SplineFontDB: 3.0
FontName: SquareAntiqua
FullName: Square Antiqua
FamilyName: Square Antiqua
Weight: Book
Copyright: Copyright (c) 2011, wmk69 (wmk69@o2.pl)\nwith Reserved Font Names 'SquareAntiqua' and 'Square Antiqua'.\n\nThis Font Software is licensed under the SIL Open Font License, Version 1.1.\nThis license is available with a FAQ at:\nhttp://scripts.sil.org/OFL
Version: 1.000
ItalicAngle: 0
UnderlinePosition: -81
UnderlineWidth: 122
Ascent: 1638
Descent: 410
LayerCount: 2
Layer: 0 1 "Warstwa t+AUIA-a"  1
Layer: 1 1 "Plan pierwszy"  0
XUID: [1021 783 23647091 10727182]
FSType: 0
OS2Version: 3
OS2_WeightWidthSlopeOnly: 0
OS2_UseTypoMetrics: 1
CreationTime: 1260698820
ModificationTime: 1313129797
PfmFamily: 17
TTFWeight: 400
TTFWidth: 5
LineGap: 0
VLineGap: 0
Panose: 2 1 5 4 2 4 4 6 2 4
OS2TypoAscent: 1937
OS2TypoAOffset: 0
OS2TypoDescent: -491
OS2TypoDOffset: 0
OS2TypoLinegap: 0
OS2WinAscent: 1937
OS2WinAOffset: 0
OS2WinDescent: 491
OS2WinDOffset: 0
HheadAscent: 1937
HheadAOffset: 0
HheadDescent: -491
HheadDOffset: 0
OS2SubXSize: 1434
OS2SubYSize: 1331
OS2SubXOff: 0
OS2SubYOff: 287
OS2SupXSize: 1434
OS2SupYSize: 1331
OS2SupXOff: 0
OS2SupYOff: 977
OS2StrikeYSize: 102
OS2StrikeYPos: 512
OS2Vendor: '    '
OS2CodePages: 20000093.00000000
OS2UnicodeRanges: 8000002f.4000204b.00000000.00000000
Lookup: 258 0 0 "'kern' Kerning poziomy w tablicy 0"  {"Podtablica 'kern' Kerning poziomy w tablicy 0-0"  } ['kern' ('DFLT' <'dflt' > 'grek' <'dflt' > 'latn' <'dflt' > ) ]
DEI: 91125
KernClass2: 14 9 "Podtablica 'kern' Kerning poziomy w tablicy 0-0" 
 33 L Lacute Lcommaaccent Lcaron Ldot
 9 P uni1E56
 42 T Tcommaaccent Tcaron Tbar uni021A uni1E6A
 1 V
 5 Thorn
 5 longs
 14 r rcommaaccent
 13 racute rcaron
 189 a b c e g h k m n o p q s agrave ae ccedilla egrave ograve oslash thorn aogonek eogonek dotlessi kcommaaccent kgreenlandic ncommaaccent napostrophe eng scedilla uni01E5 scommaaccent uni0237

StartChar: .notdef
Encoding: 65536 -1 0
Width: 894
Flags: W
HStem: 0 118<268 626> 1393 118<268 626>
VStem: 150 118<118 1393> 626 118<118 1393>
LayerCount: 2
Fore
SplineSet
150 0 m 1,0,-1
 150 1511 l 1,1,-1
 744 1511 l 1,2,-1
 744 0 l 1,3,-1
 150 0 l 1,0,-1
268 1393 m 1,4,-1
 268 118 l 1,5,-1
 626 118 l 1,6,-1
 626 1393 l 1,7,-1
 268 1393 l 1,4,-1
EndSplineSet
Validated: 19457
EndChar

StartChar: exclam
Encoding: 33 33 4
Width: 742
GlyphClass: 2
Flags: W
HStem: -20 255<265.795 476.205> 1491 20G<271 471>
VStem: 245 252<1.04248 213.958> 271 200<1095.97 1511> 311 120<353 768.027>
LayerCount: 2
Fore
SplineSet
371 -20 m 152,-1,1
 245 -20 245 -20 245 107.5 c 128,-1,2
 245 235 245 235 371 235 c 128,-1,3
 497 235 497 235 497 107.5 c 128,-1,0
 497 -20 497 -20 371 -20 c 152,-1,1
271 1511 m 1,4,-1
 471 1511 l 1,5,-1
 431 353 l 1,6,-1
 311 353 l 1,7,-1
 271 1511 l 1,4,-1
EndSplineSet
Validated: 19457
EndChar

StartChar: quotedbl
Encoding: 34 34 5
Width: 816
GlyphClass: 2
Flags: W
HStem: 994 517
VStem: 200 150<993 1240.06> 466 150<994 1241.06>
LayerCount: 2
Fore
SplineSet
466 994 m 1,0,-1
 436 1511 l 1,1,-1
 646 1511 l 1,2,-1
 616 994 l 1,3,-1
 466 994 l 1,0,-1
200 993 m 1,4,-1
 170 1510 l 1,5,-1
 380 1510 l 1,6,-1
 350 993 l 1,7,-1
 200 993 l 1,4,-1
EndSplineSet
Validated: 19457
EndChar

StartChar: numbersign
Encoding: 35 35 6
Width: 1483
GlyphClass: 2
Flags: W
HStem: 516 150<150 490 640 844 994 1333> 870 150<150 490 640 844 994 1333>
VStem: 490 150<176 516 666 870 1020 1360> 844 150<176 516 666 870 1020 1360>
LayerCount: 2
Fore
SplineSet
490 176 m 1,0,-1
 490 516 l 1,1,-1
 150 516 l 1,2,-1
 150 666 l 1,3,-1
 490 666 l 1,4,-1
 490 870 l 1,5,-1
 150 870 l 1,6,-1
 150 1020 l 1,7,-1
 490 1020 l 1,8,-1
 490 1360 l 1,9,-1
 640 1360 l 1,10,-1
 640 1020 l 1,11,-1
 844 1020 l 1,12,-1
 844 1360 l 1,13,-1
 994 1360 l 1,14,-1
 994 1020 l 1,15,-1
 1333 1020 l 1,16,-1
 1333 870 l 1,17,-1
 994 870 l 1,18,-1
 994 666 l 1,19,-1
 1333 666 l 1,20,-1
 1333 516 l 1,21,-1
 994 516 l 1,22,-1
 994 176 l 1,23,-1
 844 176 l 1,24,-1
 844 516 l 1,25,-1
 640 516 l 1,26,-1
 640 176 l 1,27,-1
 490 176 l 1,0,-1
640 666 m 1,28,-1
 844 666 l 1,29,-1
 844 870 l 1,30,-1
 640 870 l 1,31,-1
 640 666 l 1,28,-1
EndSplineSet
Validated: 19457
EndChar

StartChar: dollar
Encoding: 36 36 7
Width: 1388
GlyphClass: 2
Flags: W
HStem: -20 129<485.391 614 774 880.406> 742 153<505.798 614 774 928.289> 1400 130<505.75 614 774 882.202>
VStem: 160 200<234.56 365> 200 200<991.031 1281.06> 614 160<-186 -20 111 742 904 1399 1530 1695> 988 200<1145 1285.52> 1028 200<287.406 647.093>
LayerCount: 2
Fore
SplineSet
160 365 m 1,0,-1
 360 420 l 1,1,2
 360 142 360 142 614 109 c 1,3,-1
 614 748 l 1,4,5
 200 774 200 774 200 1058 c 2,6,-1
 200 1061 l 2,7,8
 200 1449 200 1449 614 1516 c 1,9,-1
 614 1695 l 1,10,-1
 774 1695 l 1,11,-1
 774 1530 l 1,12,13
 789 1530 789 1530 803 1530 c 0,14,15
 1188 1530 1188 1530 1188 1145 c 1,16,-1
 988 1090 l 1,17,18
 988 1363 988 1363 774 1400 c 1,19,-1
 774 895 l 1,20,21
 1228 878 1228 878 1228 546 c 2,22,-1
 1228 544 l 2,23,24
 1228 70 1228 70 774 -6 c 1,25,-1
 774 -186 l 1,26,-1
 614 -186 l 1,27,-1
 614 -20 l 1,28,29
 599 -20 599 -20 585 -20 c 0,30,31
 160 -20 160 -20 160 365 c 1,0,-1
614 904 m 1,32,-1
 614 1399 l 1,33,34
 400 1362 400 1362 400 1130 c 2,35,-1
 400 1127 l 2,36,37
 400 939 400 939 614 904 c 1,32,-1
774 742 m 1,38,-1
 774 111 l 1,39,40
 1028 159 1028 159 1028 505 c 2,41,-1
 1028 507 l 2,42,43
 1028 717 1028 717 774 742 c 1,38,-1
EndSplineSet
Validated: 19457
EndChar

StartChar: percent
Encoding: 37 37 8
Width: 1640
GlyphClass: 2
Flags: W
HStem: -20 151<1034.22 1283.64> 0 21G<378 563.272> 458 146<1034.7 1285.34> 906 151<350.219 599.885> 1383 147<350.219 601.121> 1490 20G<1066.76 1254>
VStem: 150 162<1096.19 1342.52> 378 176<0 176> 641 165<1096.31 1342.63> 834 162<170.188 416.898> 1076 178<1332 1510> 1325 165<170.54 421.021>
DStem2: 378 0 554 0 0.420582 0.907255<74.0224 1663.52>
LayerCount: 2
Fore
SplineSet
1325 300 m 0,0,1
 1325 458 1325 458 1161 458 c 128,-1,2
 997 458 997 458 996 297 c 0,3,4
 996 131 996 131 1159 131 c 0,5,6
 1324 131 1324 131 1325 300 c 0,0,1
1162 604 m 128,-1,8
 1490 604 1490 604 1490 292 c 128,-1,9
 1490 -20 1490 -20 1162 -20 c 128,-1,10
 834 -20 834 -20 834 292 c 128,-1,7
 834 604 834 604 1162 604 c 128,-1,8
475 1057 m 0,11,12
 641 1057 641 1057 641 1224 c 0,13,14
 641 1383 641 1383 475 1383 c 0,15,16
 312 1383 312 1383 312 1223 c 0,17,18
 312 1057 312 1057 475 1057 c 0,11,12
478 1530 m 128,-1,20
 806 1530 806 1530 806 1218 c 128,-1,21
 806 906 806 906 478 906 c 128,-1,22
 150 906 150 906 150 1218 c 128,-1,19
 150 1530 150 1530 478 1530 c 128,-1,20
378 0 m 17,23,-1
 1076 1510 l 1,24,-1
 1254 1510 l 1,25,-1
 554 0 l 9,26,-1
 378 0 l 17,23,-1
EndSplineSet
Validated: 19457
EndChar

StartChar: ampersand
Encoding: 38 38 9
Width: 1570
GlyphClass: 2
Flags: W
HStem: -20 124<492.425 893.245> 0 21G<1226.94 1470> 1394 136<538.034 863.665>
VStem: 160 200<234.16 610.176> 260 187<975.25 1285.41> 942 186<1231 1317.14> 1192 200<545.9 903>
DStem2: 790 898 665 763 0.603687 -0.797222<8.22037 566.008 795.972 988.771>
LayerCount: 2
Fore
SplineSet
1470 0 m 1,0,-1
 1242 0 l 1,1,-1
 1126 154 l 1,2,3
 928 -20 928 -20 585 -20 c 0,4,5
 160 -20 160 -20 160 365 c 2,6,-1
 160 372 l 2,7,8
 160 680 160 680 378 805 c 1,9,10
 260 875 260 875 260 1061 c 2,11,-1
 260 1063 l 2,12,13
 260 1530 260 1530 824 1530 c 0,14,15
 1127 1530 1127 1530 1128 1231 c 1,16,-1
 942 1178 l 1,17,18
 942 1394 942 1394 690 1394 c 0,19,20
 447 1394 447 1394 447 1116 c 2,21,-1
 447 1114 l 2,22,23
 447 898 447 898 702 898 c 2,24,-1
 790 898 l 1,25,-1
 1132 447 l 1,26,27
 1192 627 1192 627 1192 903 c 1,28,-1
 1392 942 l 1,29,30
 1392 532 1392 532 1245 297 c 1,31,-1
 1470 0 l 1,0,-1
1040 267 m 1,32,-1
 665 763 l 1,33,34
 360 745 360 745 360 427 c 2,35,-1
 360 420 l 2,36,37
 360 104 360 104 687 104 c 0,38,39
 915 104 915 104 1040 267 c 1,32,-1
EndSplineSet
Validated: 19457
EndChar

StartChar: quotesingle
Encoding: 39 39 10
Width: 550
GlyphClass: 2
Flags: W
HStem: 993 517<200 350>
VStem: 200 150<993 1240.06>
LayerCount: 2
Fore
SplineSet
200 993 m 1,0,-1
 170 1510 l 1,1,-1
 380 1510 l 1,2,-1
 350 993 l 1,3,-1
 200 993 l 1,0,-1
EndSplineSet
Validated: 19457
EndChar

StartChar: parenleft
Encoding: 40 40 11
Width: 846
GlyphClass: 2
Flags: W
VStem: 250 200<418.974 1109.56>
LayerCount: 2
Fore
SplineSet
610 1797 m 1,0,-1
 746 1797 l 1,1,2
 612 1584 612 1584 539 1352 c 0,3,4
 450 1071 450 1071 450 765 c 128,-1,5
 450 459 450 459 539 178 c 0,6,7
 612 -54 612 -54 746 -267 c 1,8,-1
 610 -267 l 1,9,10
 499 -123 499 -123 380 160 c 0,11,12
 250 469 250 469 250 765 c 0,13,14
 250 1055 250 1055 380 1370 c 0,15,16
 495 1649 495 1649 610 1797 c 1,0,-1
EndSplineSet
Validated: 19457
EndChar

StartChar: parenright
Encoding: 41 41 12
Width: 846
GlyphClass: 2
Flags: W
VStem: 396 200<418.974 1109.56>
LayerCount: 2
Fore
SplineSet
236 1797 m 1,0,1
 351 1649 351 1649 466 1370 c 0,2,3
 596 1055 596 1055 596 765 c 0,4,5
 596 469 596 469 466 160 c 0,6,7
 347 -123 347 -123 236 -267 c 1,8,-1
 100 -267 l 1,9,10
 234 -54 234 -54 307 178 c 0,11,12
 396 459 396 459 396 765 c 128,-1,13
 396 1071 396 1071 307 1352 c 0,14,15
 234 1584 234 1584 100 1797 c 1,16,-1
 236 1797 l 1,0,1
EndSplineSet
Validated: 19457
EndChar

StartChar: asterisk
Encoding: 42 42 13
Width: 1139
GlyphClass: 2
Flags: W
HStem: 1491 20G<495 645>
VStem: 495 150<678 990 1235 1511>
DStem2: 225 1373 150 1257 0.881617 -0.471965<0 303.168 551.042 861.823> 150 964 225 834 0.881617 0.471965<4.76581 316.429 564.303 866.589>
LayerCount: 2
Fore
SplineSet
495 678 m 1,0,-1
 495 990 l 1,1,-1
 225 834 l 1,2,-1
 150 964 l 1,3,-1
 432 1114 l 1,4,-1
 150 1257 l 1,5,-1
 225 1373 l 1,6,-1
 495 1235 l 1,7,-1
 495 1511 l 1,8,-1
 645 1511 l 1,9,-1
 645 1235 l 1,10,-1
 914 1373 l 1,11,-1
 989 1257 l 1,12,-1
 706 1114 l 1,13,-1
 989 964 l 1,14,-1
 914 834 l 1,15,-1
 645 990 l 1,16,-1
 645 678 l 1,17,-1
 495 678 l 1,0,-1
EndSplineSet
Validated: 19457
EndChar

StartChar: plus
Encoding: 43 43 14
Width: 1183
GlyphClass: 2
Flags: W
HStem: 693 150<150 516 666 1033>
VStem: 516 150<326 693 843 1185>
LayerCount: 2
Fore
SplineSet
516 326 m 1,0,-1
 516 693 l 1,1,-1
 150 693 l 1,2,-1
 150 843 l 1,3,-1
 516 843 l 1,4,-1
 516 1185 l 1,5,-1
 666 1185 l 1,6,-1
 666 843 l 1,7,-1
 1033 843 l 1,8,-1
 1033 693 l 1,9,-1
 666 693 l 1,10,-1
 666 326 l 1,11,-1
 516 326 l 1,0,-1
EndSplineSet
Validated: 19457
EndChar

StartChar: comma
Encoding: 44 44 15
Width: 610
GlyphClass: 2
Flags: W
HStem: -366 656
VStem: 275 185<-194.136 91.7985>
LayerCount: 2
Fore
SplineSet
314 290 m 17,0,1
 460 186 460 186 460 -25.5 c 128,-1,2
 460 -237 460 -237 243 -366 c 13,3,-1
 150 -265 l 17,4,5
 275 -190 275 -190 275 -51 c 0,6,7
 275 90 275 90 158 156 c 1,8,-1
 314 290 l 17,0,1
EndSplineSet
Validated: 19457
EndChar

StartChar: hyphen
Encoding: 45 45 16
Width: 1183
GlyphClass: 2
Flags: W
HStem: 693 150<150 1033>
LayerCount: 2
Fore
SplineSet
1033 693 m 1,0,-1
 150 693 l 1,1,-1
 150 843 l 1,2,-1
 1033 843 l 1,3,-1
 1033 693 l 1,0,-1
EndSplineSet
Validated: 19457
EndChar

StartChar: period
Encoding: 46 46 17
Width: 552
GlyphClass: 2
Flags: W
HStem: -20 255<170.795 381.205>
VStem: 150 252<1.04248 213.958>
LayerCount: 2
Fore
SplineSet
276 -20 m 152,-1,1
 150 -20 150 -20 150 107.5 c 128,-1,2
 150 235 150 235 276 235 c 128,-1,3
 402 235 402 235 402 107.5 c 128,-1,0
 402 -20 402 -20 276 -20 c 152,-1,1
EndSplineSet
Validated: 19457
EndChar

StartChar: slash
Encoding: 47 47 18
Width: 1096
GlyphClass: 2
Flags: W
DStem2: 50 -132 195 -200 0.420342 0.907366<0 2023.79>
LayerCount: 2
Fore
SplineSet
900 1705 m 1,0,-1
 1046 1637 l 1,1,-1
 195 -200 l 1,2,-1
 50 -132 l 1,3,-1
 900 1705 l 1,0,-1
EndSplineSet
Validated: 19457
EndChar

StartChar: zero
Encoding: 48 48 19
Width: 1388
GlyphClass: 2
Flags: W
HStem: -20 124<474.577 855.25> 1406 124<532.75 913.423>
VStem: 160 200<214.985 1187.44> 1028 200<322.562 1295.01>
LayerCount: 2
Fore
SplineSet
360 921 m 2,0,-1
 360 365 l 2,1,2
 360 104 360 104 687 104 c 0,3,4
 1028 104 1028 104 1028 589 c 2,5,-1
 1028 1145 l 2,6,7
 1028 1406 1028 1406 701 1406 c 0,8,9
 360 1406 360 1406 360 921 c 2,0,-1
160 921 m 18,10,11
 160 1530 160 1530 803 1530 c 0,12,13
 1228 1530 1228 1530 1228 1145 c 10,14,-1
 1228 589 l 2,15,16
 1228 -20 1228 -20 585 -20 c 0,17,18
 160 -20 160 -20 160 365 c 2,19,-1
 160 921 l 18,10,11
EndSplineSet
Validated: 19457
EndChar

StartChar: one
Encoding: 49 49 20
Width: 705
GlyphClass: 2
Flags: W
HStem: 0 21G<255 455> 1383 127<20 241.517>
VStem: 255 200<0 1380.47>
LayerCount: 2
Fore
SplineSet
20 1510 m 1,0,-1
 405 1510 l 1,1,2
 455 1411 455 1411 455 1210 c 2,3,-1
 455 0 l 1,4,-1
 255 0 l 1,5,-1
 255 1210 l 2,6,7
 255 1302 255 1302 230 1383 c 1,8,-1
 20 1383 l 1,9,-1
 20 1510 l 1,0,-1
EndSplineSet
Validated: 19457
EndChar

StartChar: two
Encoding: 50 50 21
Width: 1278
GlyphClass: 2
Flags: W
HStem: 0 127<333 1041.1> 654 128<492.038 769.435> 1403 127<343.585 816.86>
VStem: 918 200<926.703 1316.64>
LayerCount: 2
Fore
SplineSet
282 1480 m 1,0,1
 434 1530 434 1530 582 1530 c 2,2,-1
 695 1530 l 2,3,4
 1118 1530 1118 1530 1118 1194 c 2,5,-1
 1118 1175 l 2,6,7
 1118 654 1118 654 614 654 c 0,8,9
 361 654 361 654 333 127 c 1,10,-1
 801 127 l 2,11,12
 957 127 957 127 1101 197 c 9,13,-1
 1101 50 l 17,14,15
 980 0 980 0 801 0 c 2,16,-1
 130 0 l 1,17,18
 130 782 130 782 556 782 c 0,19,20
 918 782 918 782 918 1118 c 6,21,-1
 918 1185 l 2,22,23
 918 1403 918 1403 613 1403 c 2,24,-1
 582 1403 l 2,25,26
 430 1403 430 1403 282 1333 c 1,27,-1
 282 1480 l 1,0,1
EndSplineSet
Validated: 3073
EndChar

StartChar: three
Encoding: 51 51 22
Width: 1358
GlyphClass: 2
Flags: W
HStem: -20 124<462.425 840.19> 765 127<403 711.953> 1403 127<398.29 851.808>
VStem: 130 200<234.16 365> 910 189<1046.61 1348.85> 998 200<297.25 665.367>
LayerCount: 2
Fore
SplineSet
338 1480 m 1,0,1
 497 1530 497 1530 638 1530 c 2,2,-1
 694 1530 l 2,3,4
 1099 1530 1099 1530 1099 1257 c 2,5,-1
 1099 1234 l 2,6,7
 1099 979 1099 979 855 880 c 1,8,9
 1198 829 1198 829 1198 568 c 2,10,-1
 1198 544 l 2,11,12
 1198 -20 1198 -20 555 -20 c 0,13,14
 130 -20 130 -20 130 365 c 1,15,-1
 330 420 l 1,16,17
 330 104 330 104 657 104 c 0,18,19
 998 104 998 104 998 505 c 2,20,-1
 998 529 l 2,21,22
 998 765 998 765 671 765 c 2,23,-1
 403 765 l 1,24,-1
 403 892 l 1,25,26
 910 892 910 892 910 1191 c 2,27,-1
 910 1241 l 2,28,29
 910 1403 910 1403 669 1403 c 2,30,-1
 638 1403 l 2,31,32
 486 1403 486 1403 338 1333 c 1,33,-1
 338 1480 l 1,0,1
EndSplineSet
Validated: 19457
EndChar

StartChar: four
Encoding: 52 52 23
Width: 1321
GlyphClass: 2
Flags: W
HStem: 0 21G<921 1121> 443 127<400 921> 1490 20G<200 400>
VStem: 200 200<570 1510> 921 200<0 443 570 1210>
LayerCount: 2
Fore
SplineSet
400 1510 m 25,0,-1
 400 570 l 1,1,-1
 921 570 l 1,2,-1
 921 1210 l 1,3,-1
 1121 1210 l 1,4,-1
 1121 0 l 25,5,-1
 921 0 l 25,6,-1
 921 443 l 1,7,-1
 200 443 l 1,8,-1
 200 1510 l 25,9,10
 400 1510 l 25,0,-1
EndSplineSet
Validated: 3073
EndChar

StartChar: five
Encoding: 53 53 24
Width: 1358
GlyphClass: 2
Flags: W
HStem: -20 124<462.425 840.19> 765 127<486 888.707> 1382 128<518 1090>
VStem: 130 200<234.16 365> 998 200<297.25 668.146>
DStem2: 300 765 486 892 0.0642962 0.997931<138.696 629.74>
LayerCount: 2
Fore
SplineSet
348 1510 m 1,0,-1
 1090 1510 l 1,1,-1
 1090 1382 l 1,2,-1
 518 1382 l 1,3,-1
 486 892 l 1,4,-1
 765 892 l 2,5,6
 1198 892 1198 892 1198 568 c 2,7,-1
 1198 544 l 2,8,9
 1198 -20 1198 -20 555 -20 c 0,10,11
 130 -20 130 -20 130 365 c 1,12,-1
 330 420 l 1,13,14
 330 104 330 104 657 104 c 0,15,16
 998 104 998 104 998 505 c 2,17,-1
 998 529 l 2,18,19
 998 765 998 765 671 765 c 2,20,-1
 300 765 l 1,21,-1
 348 1510 l 1,0,-1
EndSplineSet
Validated: 19457
EndChar

StartChar: six
Encoding: 54 54 25
Width: 1388
GlyphClass: 2
Flags: W
HStem: -20 124<492.425 870.19> 765 124<500.318 917.679> 1406 124<532.75 900.617>
VStem: 160 200<234.16 626.285 794 1187.44> 1028 200<297.25 668.146 1145 1275.84>
LayerCount: 2
Fore
SplineSet
1221 1145 m 1,0,-1
 1028 1090 l 1,1,2
 1028 1406 1028 1406 701 1406 c 0,3,4
 360 1406 360 1406 360 921 c 2,5,-1
 360 794 l 1,6,7
 510 889 510 889 774 889 c 0,8,9
 1228 889 1228 889 1228 568 c 2,10,-1
 1228 544 l 2,11,12
 1228 -20 1228 -20 585 -20 c 0,13,14
 160 -20 160 -20 160 365 c 2,15,-1
 160 921 l 2,16,17
 160 1530 160 1530 803 1530 c 0,18,19
 1221 1530 1221 1530 1221 1145 c 1,0,-1
360 420 m 2,20,21
 360 104 360 104 687 104 c 0,22,23
 1028 104 1028 104 1028 505 c 2,24,-1
 1028 529 l 2,25,26
 1028 765 1028 765 701 765 c 0,27,28
 360 765 360 765 360 427 c 2,29,-1
 360 420 l 2,20,21
EndSplineSet
Validated: 19457
EndChar

StartChar: seven
Encoding: 55 55 26
Width: 1059
GlyphClass: 2
Flags: W
HStem: 0 21G<158 396.429> 1383 127<107.053 828>
VStem: 158 229<0 229>
DStem2: 158 0 387 0 0.435986 0.899953<99.8408 1536.75>
LayerCount: 2
Fore
SplineSet
50 1460 m 17,0,1
 188 1510 188 1510 350 1510 c 2,2,-1
 1039 1510 l 1,3,-1
 1039 1383 l 1,4,-1
 387 0 l 1,5,-1
 158 0 l 1,6,-1
 828 1383 l 1,7,-1
 350 1383 l 2,8,9
 182 1383 182 1383 50 1313 c 9,10,-1
 50 1460 l 17,0,1
EndSplineSet
Validated: 19457
EndChar

StartChar: eight
Encoding: 56 56 27
Width: 1388
GlyphClass: 2
Flags: W
HStem: -20 124<492.425 870.19> 765 133<522.067 848.879> 1394 136<538.034 862.321>
VStem: 160 200<234.16 612.421> 260 187<970.372 1285.41> 938 190<1005.88 1317.14> 1028 200<297.25 668.146>
LayerCount: 2
Fore
SplineSet
701 765 m 0,0,1
 360 765 360 765 360 427 c 2,2,-1
 360 420 l 2,3,4
 360 104 360 104 687 104 c 0,5,6
 1028 104 1028 104 1028 505 c 2,7,-1
 1028 529 l 2,8,9
 1028 765 1028 765 701 765 c 0,0,1
690 1394 m 0,10,11
 447 1394 447 1394 447 1116 c 2,12,-1
 447 1114 l 2,13,14
 447 898 447 898 698 898 c 0,15,16
 938 898 938 898 938 1173 c 2,17,-1
 938 1175 l 2,18,19
 938 1394 938 1394 690 1394 c 0,10,11
974 869 m 1,20,21
 1228 808 1228 808 1228 568 c 2,22,-1
 1228 544 l 2,23,24
 1228 -20 1228 -20 585 -20 c 0,25,26
 160 -20 160 -20 160 365 c 2,27,-1
 160 372 l 2,28,29
 160 680 160 680 378 805 c 1,30,31
 260 875 260 875 260 1061 c 2,32,-1
 260 1063 l 2,33,34
 260 1530 260 1530 824 1530 c 0,35,36
 1128 1530 1128 1530 1128 1231 c 2,37,-1
 1128 1229 l 2,38,39
 1128 985 1128 985 974 869 c 1,20,21
EndSplineSet
Validated: 19457
EndChar

StartChar: nine
Encoding: 57 57 28
Width: 1388
GlyphClass: 2
Flags: W
HStem: -20 124<487.383 855.25> 621 124<470.321 887.682> 1406 124<517.81 895.575>
VStem: 160 200<234.16 365 841.854 1212.75> 1028 200<322.562 716 883.715 1275.84>
LayerCount: 2
Fore
SplineSet
167 365 m 1,0,1
 360 420 l 1,2,3
 360 104 360 104 687 104 c 0,4,5
 1028 104 1028 104 1028 589 c 2,6,-1
 1028 716 l 1,7,8
 878 621 878 621 614 621 c 0,9,10
 160 621 160 621 160 942 c 2,11,-1
 160 966 l 2,12,13
 160 1530 160 1530 803 1530 c 0,14,15
 1228 1530 1228 1530 1228 1145 c 2,16,-1
 1228 589 l 2,17,18
 1228 -20 1228 -20 585 -20 c 0,19,20
 167 -20 167 -20 167 365 c 1,0,1
1028 1090 m 2,21,22
 1028 1406 1028 1406 701 1406 c 0,23,24
 360 1406 360 1406 360 1005 c 2,25,-1
 360 981 l 2,26,27
 360 745 360 745 687 745 c 0,28,29
 1028 745 1028 745 1028 1083 c 2,30,-1
 1028 1090 l 2,21,22
EndSplineSet
Validated: 19457
EndChar

StartChar: colon
Encoding: 58 58 29
Width: 552
GlyphClass: 2
Flags: W
HStem: -20 255<170.795 381.205> 636 255<170.795 381.205>
VStem: 150 252<1.04248 213.958 657.042 869.958>
LayerCount: 2
Fore
SplineSet
276 -20 m 152,-1,1
 150 -20 150 -20 150 107.5 c 128,-1,2
 150 235 150 235 276 235 c 128,-1,3
 402 235 402 235 402 107.5 c 128,-1,0
 402 -20 402 -20 276 -20 c 152,-1,1
276 636 m 152,-1,5
 150 636 150 636 150 763.5 c 128,-1,6
 150 891 150 891 276 891 c 128,-1,7
 402 891 402 891 402 763.5 c 128,-1,4
 402 636 402 636 276 636 c 152,-1,5
EndSplineSet
Validated: 19457
EndChar

StartChar: semicolon
Encoding: 59 59 30
Width: 610
GlyphClass: 2
Flags: W
HStem: 636 255<203.795 414.205>
VStem: 183 252<657.042 869.958> 275 185<-194.136 91.7985>
LayerCount: 2
Fore
SplineSet
314 290 m 17,0,1
 460 186 460 186 460 -25.5 c 128,-1,2
 460 -237 460 -237 243 -366 c 9,3,-1
 150 -265 l 17,4,5
 275 -190 275 -190 275 -51 c 0,6,7
 275 90 275 90 158 156 c 1,8,-1
 314 290 l 17,0,1
309 636 m 152,-1,10
 183 636 183 636 183 763.5 c 128,-1,11
 183 891 183 891 309 891 c 128,-1,12
 435 891 435 891 435 763.5 c 128,-1,9
 435 636 435 636 309 636 c 152,-1,10
EndSplineSet
Validated: 19457
EndChar

StartChar: less
Encoding: 60 60 31
Width: 1206
GlyphClass: 2
Flags: W
HStem: 149 220<786 1006> 1216 175<831 1006>
DStem2: 150 865 324 798 0.852 0.523542<113.171 913.075> 324 798 150 676 0.851556 -0.524264<0 805.67>
LayerCount: 2
Fore
SplineSet
150 676 m 1,0,-1
 150 865 l 1,1,-1
 1006 1391 l 1,2,-1
 1006 1216 l 1,3,-1
 324 798 l 1,4,-1
 1006 369 l 1,5,-1
 1006 149 l 1,6,-1
 150 676 l 1,0,-1
EndSplineSet
Validated: 19457
EndChar

StartChar: equal
Encoding: 61 61 32
Width: 1183
GlyphClass: 2
Flags: W
HStem: 551 150<150 1033> 839 150<150 1033>
LayerCount: 2
Fore
SplineSet
1033 839 m 1,0,-1
 150 839 l 1,1,-1
 150 989 l 1,2,-1
 1033 989 l 1,3,-1
 1033 839 l 1,0,-1
1033 551 m 1,4,-1
 150 551 l 1,5,-1
 150 701 l 1,6,-1
 1033 701 l 1,7,-1
 1033 551 l 1,4,-1
EndSplineSet
Validated: 19457
EndChar

StartChar: greater
Encoding: 62 62 33
Width: 1206
GlyphClass: 2
Flags: W
HStem: 150 175<200 375> 1172 220<200 420>
DStem2: 200 1392 200 1172 0.851556 -0.524264<115.338 921.008> 200 325 200 150 0.852 0.523542<0 799.904>
LayerCount: 2
Fore
SplineSet
1056 865 m 1,0,-1
 1056 676 l 1,1,-1
 200 150 l 1,2,-1
 200 325 l 1,3,-1
 882 743 l 1,4,-1
 200 1172 l 1,5,-1
 200 1392 l 1,6,-1
 1056 865 l 1,0,-1
EndSplineSet
Validated: 19457
EndChar

StartChar: question
Encoding: 63 63 34
Width: 1388
GlyphClass: 2
Flags: W
HStem: -20 255<534.795 745.205> 574 128<773.742 907.697> 1406 124<521.432 913.423>
VStem: 160 200<976 1187.44> 514 252<1.04248 213.958> 544 200<345 551.637> 1028 200<854.811 1295.01>
LayerCount: 2
Fore
SplineSet
160 921 m 17,0,1
 160 1530 160 1530 803 1530 c 0,2,3
 1228 1530 1228 1530 1228 1145 c 10,4,-1
 1228 1142 l 2,5,6
 1228 574 1228 574 838 574 c 0,7,8
 744 574 744 574 744 345 c 9,9,-1
 544 276 l 17,10,11
 544 702 544 702 780 702 c 0,12,13
 1028 702 1028 702 1028 1142 c 2,14,-1
 1028 1145 l 2,15,16
 1028 1406 1028 1406 701 1406 c 0,17,18
 360 1406 360 1406 360 976 c 9,19,-1
 160 921 l 17,0,1
640 -20 m 152,-1,21
 514 -20 514 -20 514 107.5 c 128,-1,22
 514 235 514 235 640 235 c 128,-1,23
 766 235 766 235 766 107.5 c 128,-1,20
 766 -20 766 -20 640 -20 c 152,-1,21
EndSplineSet
Validated: 19457
EndChar

StartChar: at
Encoding: 64 64 35
Width: 1481
GlyphClass: 2
Flags: W
HStem: -430 124<494.253 880.407> -20 150<693.895 887.843> 0 21G<1106 1351> 566 106<837.004 1064> 1013 107<657.939 1025.92>
VStem: 180 199<-195.015 748.296> 479 200<144.452 422.232> 947 202<-243.615 -138> 1081 200<59.9048 300 672 958.508>
LayerCount: 2
Fore
SplineSet
1351 0 m 9,0,-1
 1131 0 l 17,1,2
 1081 121 1081 121 1081 300 c 1,3,4
 1000 -20 1000 -20 717 -20 c 0,5,6
 479 -20 479 -20 479 211 c 2,7,-1
 479 219 l 2,8,9
 479 658 479 658 1078 672 c 1,10,11
 1081 714 1081 714 1081 756 c 2,12,-1
 1081 765 l 2,13,14
 1081 1013 1081 1013 926 1013 c 0,15,16
 379 1013 379 1013 379 511 c 2,17,-1
 379 -45 l 2,18,19
 379 -306 379 -306 707 -306 c 0,20,21
 937 -306 937 -306 947 -138 c 9,22,-1
 1149 -114 l 17,23,24
 1110 -430 1110 -430 605 -430 c 0,25,26
 180 -430 180 -430 180 -45 c 2,27,-1
 180 511 l 18,28,29
 180 1120 180 1120 977 1120 c 0,30,31
 1281 1120 1281 1120 1281 821 c 2,32,-1
 1281 300 l 2,33,34
 1281 140 1281 140 1351 0 c 9,0,-1
1064 566 m 1,35,36
 679 561 679 561 679 262 c 2,37,-1
 679 247 l 2,38,39
 679 130 679 130 768 130 c 0,40,41
 914 130 914 130 1000 345 c 0,42,43
 1044 455 1044 455 1064 566 c 1,35,36
EndSplineSet
Validated: 19457
EndChar

StartChar: B
Encoding: 66 66 36
Width: 1336
GlyphClass: 2
Flags: W
HStem: 0 127<400 834.312> 765 127<401 709.953> 1383 127<386 849.808>
VStem: 200 200<127 765 892 1379.02> 908 189<1047.1 1328.85> 996 200<317.25 664.097>
LayerCount: 2
Fore
SplineSet
401 765 m 1,0,-1
 400 127 l 1,1,-1
 655 127 l 2,2,3
 996 127 996 127 996 525 c 2,4,-1
 996 527 l 2,5,6
 996 765 996 765 669 765 c 2,7,-1
 401 765 l 1,0,-1
130 1510 m 1,8,-1
 692 1510 l 2,9,10
 1097 1510 1097 1510 1097 1237 c 2,11,-1
 1097 1234 l 2,12,13
 1097 980 1097 980 853 880 c 1,14,15
 1196 829 1196 829 1196 566 c 2,16,-1
 1196 564 l 2,17,18
 1196 0 1196 0 553 0 c 2,19,-1
 200 0 l 1,20,-1
 200 1210 l 2,21,22
 200 1370 200 1370 130 1510 c 1,8,-1
386 1383 m 1,23,24
 399 1370 399 1370 400 1210 c 2,25,-1
 401 892 l 1,26,27
 908 892 908 892 908 1191 c 2,28,-1
 908 1221 l 2,29,30
 908 1383 908 1383 667 1383 c 2,31,-1
 386 1383 l 1,23,24
EndSplineSet
Validated: 19457
EndChar

StartChar: C
Encoding: 67 67 37
Width: 1388
GlyphClass: 2
Flags: W
HStem: -20 124<474.577 860.815> 1406 124<532.75 895.575>
VStem: 160 200<214.985 1187.44> 1022 202<308.3 472 1145 1285.52>
LayerCount: 2
Fore
SplineSet
1224 497 m 17,0,1
 1177 -20 1177 -20 585 -20 c 0,2,3
 160 -20 160 -20 160 365 c 2,4,-1
 160 921 l 18,5,6
 160 1530 160 1530 803 1530 c 0,7,8
 1228 1530 1228 1530 1228 1145 c 9,9,-1
 1028 1090 l 17,10,11
 1028 1406 1028 1406 701 1406 c 0,12,13
 360 1406 360 1406 360 921 c 2,14,-1
 360 365 l 2,15,16
 360 104 360 104 687 104 c 0,17,18
 984 104 984 104 1022 472 c 9,19,-1
 1224 497 l 17,0,1
EndSplineSet
Validated: 19457
EndChar

StartChar: D
Encoding: 68 68 38
Width: 1388
GlyphClass: 2
Flags: W
HStem: 0 127<400 851.671> 1383 127<386 912.367>
VStem: 200 200<127 1379.02> 1028 200<342.562 1275.01>
LayerCount: 2
Fore
SplineSet
386 1383 m 1,0,1
 400 1314 400 1314 400 1210 c 2,2,-1
 400 127 l 1,3,-1
 688 127 l 2,4,5
 1028 127 1028 127 1028 609 c 2,6,-1
 1028 1125 l 2,7,8
 1028 1383 1028 1383 700 1383 c 2,9,-1
 386 1383 l 1,0,1
130 1510 m 1,10,-1
 803 1510 l 2,11,12
 1228 1510 1228 1510 1228 1125 c 10,13,-1
 1228 609 l 2,14,15
 1228 0 1228 0 586 0 c 2,16,-1
 200 0 l 1,17,-1
 200 1210 l 2,18,19
 200 1370 200 1370 130 1510 c 1,10,-1
EndSplineSet
Validated: 19457
EndChar

StartChar: E
Encoding: 69 69 39
Width: 1196
GlyphClass: 2
Flags: W
HStem: 0 127<400 1064.45> 698 127<400 967> 1383 127<386 967>
VStem: 200 200<127 698 825 1379.02>
LayerCount: 2
Fore
SplineSet
130 1510 m 1,0,-1
 967 1510 l 17,1,-1
 967 1383 l 9,2,-1
 386 1383 l 1,3,4
 400 1305 400 1305 400 1210 c 2,5,-1
 400 825 l 1,6,-1
 967 825 l 25,7,-1
 967 698 l 25,8,-1
 400 698 l 1,9,-1
 400 127 l 1,10,-1
 816 127 l 2,11,12
 998 127 998 127 1116 197 c 1,13,-1
 1116 50 l 1,14,15
 995 0 995 0 816 0 c 2,16,-1
 200 0 l 1,17,-1
 200 1210 l 2,18,19
 200 1370 200 1370 130 1510 c 1,0,-1
EndSplineSet
Validated: 19457
EndChar

StartChar: F
Encoding: 70 70 40
Width: 1087
GlyphClass: 2
Flags: W
HStem: 0 21G<200 400> 698 127<400 967> 1383 127<386 967>
VStem: 200 200<0 698 825 1379.02>
LayerCount: 2
Fore
SplineSet
130 1510 m 1,0,-1
 967 1510 l 17,1,-1
 967 1383 l 9,2,-1
 386 1383 l 1,3,4
 400 1305 400 1305 400 1210 c 2,5,-1
 400 825 l 1,6,-1
 967 825 l 25,7,-1
 967 698 l 25,8,-1
 400 698 l 1,9,-1
 400 0 l 9,10,-1
 200 0 l 17,11,-1
 200 1210 l 2,12,13
 200 1370 200 1370 130 1510 c 1,0,-1
EndSplineSet
Validated: 19457
EndChar

StartChar: G
Encoding: 71 71 41
Width: 1388
GlyphClass: 2
Flags: W
HStem: -20 124<474.577 855.25> 635 127<737.549 1028> 1406 124<532.75 895.575>
VStem: 160 200<214.985 1187.44> 1028 200<322.562 635 1145 1275.84>
LayerCount: 2
Fore
SplineSet
1228 762 m 1,0,-1
 1228 589 l 2,1,2
 1228 -20 1228 -20 585 -20 c 0,3,4
 160 -20 160 -20 160 365 c 2,5,-1
 160 921 l 2,6,7
 160 1530 160 1530 803 1530 c 0,8,9
 1228 1530 1228 1530 1228 1145 c 1,10,-1
 1028 1090 l 1,11,12
 1028 1406 1028 1406 701 1406 c 0,13,14
 360 1406 360 1406 360 921 c 2,15,-1
 360 365 l 2,16,17
 360 104 360 104 687 104 c 0,18,19
 1028 104 1028 104 1028 589 c 2,20,-1
 1028 635 l 1,21,-1
 986 635 l 2,22,23
 804 635 804 635 686 565 c 1,24,-1
 686 712 l 1,25,26
 807 762 807 762 986 762 c 2,27,-1
 1228 762 l 1,0,-1
EndSplineSet
Validated: 19457
EndChar

StartChar: H
Encoding: 72 72 42
Width: 1406
GlyphClass: 2
Flags: W
HStem: 0 21G<200 400 1031 1276> 696 127<400 1006> 1490 20G<130 375 1006 1206>
VStem: 200 200<0 696 823 1457.99> 1006 200<52.0093 696 823 1510>
LayerCount: 2
Fore
SplineSet
130 1510 m 1,0,-1
 350 1510 l 1,1,2
 400 1411 400 1411 400 1210 c 2,3,-1
 400 823 l 1,4,-1
 1006 823 l 1,5,-1
 1006 1510 l 1,6,-1
 1206 1510 l 1,7,-1
 1206 300 l 2,8,9
 1206 118 1206 118 1276 0 c 1,10,-1
 1056 0 l 1,11,12
 1006 99 1006 99 1006 300 c 2,13,-1
 1006 696 l 1,14,-1
 400 696 l 1,15,-1
 400 0 l 1,16,-1
 200 0 l 1,17,-1
 200 1210 l 2,18,19
 200 1392 200 1392 130 1510 c 1,0,-1
EndSplineSet
Validated: 19457
EndChar

StartChar: I
Encoding: 73 73 43
Width: 600
GlyphClass: 2
Flags: W
HStem: 0 21G<200 400> 1490 20G<130 375>
VStem: 200 200<0 1457.99>
LayerCount: 2
Fore
SplineSet
200 0 m 25,0,-1
 200 1210 l 2,1,2
 200 1392 200 1392 130 1510 c 9,3,-1
 350 1510 l 17,4,5
 400 1411 400 1411 400 1210 c 2,6,-1
 400 0 l 25,7,8
 200 0 l 25,0,-1
EndSplineSet
Validated: 19457
EndChar

StartChar: J
Encoding: 74 74 44
Width: 1128
GlyphClass: 2
Flags: W
HStem: -20 124<326.184 612.958> 1383 127<339.585 728>
VStem: 60 200<172.787 279> 728 200<252.438 1383>
LayerCount: 2
Fore
SplineSet
278 1460 m 1,0,1
 391 1510 391 1510 578 1510 c 2,2,-1
 928 1510 l 1,3,-1
 928 501 l 2,4,5
 928 -20 928 -20 364 -20 c 0,6,7
 60 -20 60 -20 60 279 c 1,8,-1
 260 334 l 1,9,10
 260 104 260 104 466 104 c 0,11,12
 728 104 728 104 728 484 c 2,13,-1
 728 1383 l 1,14,-1
 578 1383 l 2,15,16
 430 1383 430 1383 278 1313 c 1,17,-1
 278 1460 l 1,0,1
EndSplineSet
Validated: 19457
EndChar

StartChar: K
Encoding: 75 75 45
Width: 1277
GlyphClass: 2
Flags: W
HStem: 0 21G<200 400 902 1147> 696 127<400 747.02> 1490 20G<130 375 860 1060>
VStem: 200 200<0 696 823 1456.83> 860 200<1027.63 1510> 877 200<53.168 546.781>
LayerCount: 2
Fore
SplineSet
130 1510 m 9,0,-1
 350 1510 l 17,1,2
 400 1384 400 1384 400 1210 c 2,3,-1
 400 823 l 1,4,-1
 602 823 l 2,5,6
 860 823 860 823 860 1194 c 2,7,-1
 860 1510 l 25,8,-1
 1060 1510 l 25,9,-1
 1060 1305 l 2,10,11
 1060 910 1060 910 804 779 c 1,12,13
 1077 649 1077 649 1077 314 c 2,14,-1
 1077 300 l 2,15,16
 1077 126 1077 126 1147 0 c 1,17,-1
 927 0 l 1,18,19
 877 110 877 110 877 300 c 2,20,-1
 877 314 l 2,21,22
 877 696 877 696 602 696 c 2,23,-1
 400 696 l 1,24,-1
 400 0 l 1,25,-1
 200 0 l 1,26,-1
 200 1210 l 2,27,28
 200 1392 200 1392 130 1510 c 9,0,-1
EndSplineSet
Validated: 19457
EndChar

StartChar: L
Encoding: 76 76 46
Width: 1041
GlyphClass: 2
Flags: W
HStem: 0 127<400 979.451> 1490 20G<130 375>
VStem: 200 200<127 1457.99>
LayerCount: 2
Fore
SplineSet
130 1510 m 1,0,-1
 350 1510 l 1,1,2
 400 1411 400 1411 400 1210 c 2,3,-1
 400 127 l 1,4,-1
 731 127 l 2,5,6
 913 127 913 127 1031 197 c 1,7,-1
 1031 50 l 1,8,9
 910 0 910 0 731 0 c 2,10,-1
 200 0 l 1,11,-1
 200 1210 l 2,12,13
 200 1392 200 1392 130 1510 c 1,0,-1
EndSplineSet
Validated: 19457
EndChar

StartChar: O
Encoding: 79 79 47
Width: 1388
GlyphClass: 2
Flags: W
HStem: -20 124<474.577 855.25> 1406 124<532.75 913.423>
VStem: 160 200<214.985 1187.44> 1028 200<322.562 1295.01>
LayerCount: 2
Fore
SplineSet
360 921 m 2,0,-1
 360 365 l 2,1,2
 360 104 360 104 687 104 c 0,3,4
 1028 104 1028 104 1028 589 c 2,5,-1
 1028 1145 l 2,6,7
 1028 1406 1028 1406 701 1406 c 0,8,9
 360 1406 360 1406 360 921 c 2,0,-1
160 921 m 18,10,11
 160 1530 160 1530 803 1530 c 0,12,13
 1228 1530 1228 1530 1228 1145 c 10,14,-1
 1228 589 l 2,15,16
 1228 -20 1228 -20 585 -20 c 0,17,18
 160 -20 160 -20 160 365 c 2,19,-1
 160 921 l 18,10,11
EndSplineSet
Validated: 19457
EndChar

StartChar: P
Encoding: 80 80 48
Width: 1274
GlyphClass: 2
Flags: W
HStem: 0 21G<200 400> 508 127<400 777.671> 1383 127<388 838.367>
VStem: 200 200<0 508 635 1379.85> 954 200<850.562 1275.01>
LayerCount: 2
Fore
SplineSet
130 1510 m 1,0,1
 729 1510 l 2,2,3
 1154 1510 1154 1510 1154 1125 c 2,4,-1
 1154 1117 l 2,5,6
 1154 508 1154 508 512 508 c 2,7,-1
 400 508 l 1,8,-1
 400 0 l 1,9,-1
 200 0 l 1,10,-1
 200 1210 l 2,11,12
 200 1357 200 1357 130 1510 c 1,0,1
388 1383 m 1,13,14
 400 1282 400 1282 400 1212 c 10,15,-1
 400 635 l 17,16,-1
 614 635 l 2,17,18
 954 635 954 635 954 1117 c 2,19,-1
 954 1125 l 2,20,21
 954 1383 954 1383 626 1383 c 2,22,-1
 388 1383 l 1,13,14
EndSplineSet
Validated: 1
EndChar

StartChar: Q
Encoding: 81 81 49
Width: 1392
GlyphClass: 2
Flags: W
HStem: -20 124<474.577 862.274> 0 21G<1076.02 1312> 1406 124<532.75 913.423>
VStem: 160 200<214.985 1187.44> 620 214<314 528> 1028 200<349.166 1295.01>
DStem2: 834 528 620 528 0.671134 -0.741336<0 245.66 438.988 565.92>
LayerCount: 2
Fore
SplineSet
620 528 m 1,0,-1
 834 528 l 1,1,-1
 999 346 l 1,2,3
 1028 447 1028 447 1028 589 c 2,4,-1
 1028 1145 l 2,5,6
 1028 1406 1028 1406 701 1406 c 0,7,8
 360 1406 360 1406 360 921 c 2,9,-1
 360 365 l 2,10,11
 360 104 360 104 687 104 c 0,12,13
 835 104 835 104 919 195 c 1,14,-1
 620 528 l 1,0,-1
1312 0 m 1,15,-1
 1094 0 l 1,16,-1
 1014 89 l 1,17,18
 857 -20 857 -20 585 -20 c 0,19,20
 160 -20 160 -20 160 365 c 2,21,-1
 160 921 l 2,22,23
 160 1530 160 1530 803 1530 c 0,24,25
 1228 1530 1228 1530 1228 1145 c 2,26,-1
 1228 589 l 2,27,28
 1228 349 1228 349 1128 203 c 1,29,-1
 1312 0 l 1,15,-1
EndSplineSet
Validated: 19457
EndChar

StartChar: R
Encoding: 82 82 50
Width: 1340
GlyphClass: 2
Flags: W
HStem: 0 21G<200 400 935 1180> 508 127<400 785.909> 1383 127<388 838.367>
VStem: 200 200<0 508 635 1379.85> 910 200<59.9048 441.149> 954 200<844.457 1275.01>
LayerCount: 2
Fore
SplineSet
388 1383 m 1,0,1
 400 1282 400 1282 400 1212 c 2,2,-1
 400 635 l 1,3,-1
 614 635 l 2,4,5
 954 635 954 635 954 1117 c 2,6,-1
 954 1125 l 2,7,8
 954 1383 954 1383 626 1383 c 2,9,-1
 388 1383 l 1,0,1
130 1510 m 1,10,-1
 729 1510 l 2,11,12
 1154 1510 1154 1510 1154 1125 c 2,13,-1
 1154 1117 l 2,14,15
 1154 732 1154 732 898 591 c 1,16,17
 1110 529 1110 529 1110 308 c 2,18,-1
 1110 300 l 2,19,20
 1110 140 1110 140 1180 0 c 1,21,-1
 960 0 l 1,22,23
 910 121 910 121 910 300 c 2,24,-1
 910 308 l 2,25,26
 910 508 910 508 670 508 c 2,27,-1
 400 508 l 1,28,-1
 400 0 l 1,29,-1
 200 0 l 1,30,-1
 200 1210 l 2,31,32
 200 1357 200 1357 130 1510 c 1,10,-1
EndSplineSet
Validated: 19457
EndChar

StartChar: S
Encoding: 83 83 51
Width: 1388
GlyphClass: 2
Flags: W
HStem: -20 124<492.425 870.19> 745 151<505.786 918.707> 1406 124<511.642 873.847>
VStem: 160 200<234.16 365> 200 200<993.276 1277.07> 988 200<1145 1285.52> 1028 200<297.25 646.83>
LayerCount: 2
Fore
SplineSet
160 365 m 9,0,-1
 360 420 l 17,1,2
 360 104 360 104 687 104 c 0,3,4
 1028 104 1028 104 1028 505 c 2,5,-1
 1028 507 l 2,6,7
 1028 745 1028 745 701 745 c 0,8,9
 200 745 200 745 200 1058 c 10,10,-1
 200 1061 l 2,11,12
 200 1530 200 1530 803 1530 c 0,13,14
 1188 1530 1188 1530 1188 1145 c 9,15,-1
 988 1090 l 17,16,17
 988 1406 988 1406 701 1406 c 0,18,19
 400 1406 400 1406 400 1130 c 2,20,-1
 400 1127 l 2,21,22
 400 896 400 896 724 896 c 0,23,24
 1228 896 1228 896 1228 546 c 10,25,-1
 1228 544 l 2,26,27
 1228 -20 1228 -20 585 -20 c 0,28,29
 160 -20 160 -20 160 365 c 9,0,-1
EndSplineSet
Validated: 19457
EndChar

StartChar: T
Encoding: 84 84 52
Width: 1040
GlyphClass: 2
Flags: W
HStem: 0 21G<420 620> 1383 127<62.1968 420 620 1030>
VStem: 420 200<0 1383>
LayerCount: 2
Fore
SplineSet
10 1460 m 1,0,1
 79 1510 79 1510 310 1510 c 2,2,-1
 1030 1510 l 25,3,-1
 1030 1383 l 25,4,-1
 620 1383 l 1,5,-1
 620 0 l 1,6,-1
 420 0 l 1,7,-1
 420 1383 l 1,8,-1
 310 1383 l 2,9,10
 133 1383 133 1383 10 1313 c 1,11,-1
 10 1460 l 1,0,1
EndSplineSet
Validated: 19457
EndChar

StartChar: U
Encoding: 85 85 53
Width: 1406
GlyphClass: 2
Flags: W
HStem: -20 123<510.346 853.794> 1490 20G<130 375 1006 1206>
VStem: 200 200<205.68 1457.99> 1006 200<308.438 1510>
LayerCount: 2
Fore
SplineSet
130 1510 m 1,0,-1
 350 1510 l 1,1,2
 400 1411 400 1411 400 1210 c 2,3,-1
 400 365 l 2,4,5
 400 103 400 103 703 103 c 128,-1,6
 1006 103 1006 103 1006 589 c 2,7,-1
 1006 1510 l 25,8,-1
 1206 1510 l 25,9,-1
 1206 589 l 2,10,11
 1206 -20 1206 -20 625 -20 c 0,12,13
 200 -20 200 -20 200 365 c 2,14,-1
 200 1210 l 2,15,16
 200 1392 200 1392 130 1510 c 1,0,-1
EndSplineSet
Validated: 19457
EndChar

StartChar: V
Encoding: 86 86 54
Width: 1358
GlyphClass: 2
Flags: W
HStem: 0 21G<364 979> 1490 20G<80 325 1018 1218>
VStem: 150 200<784.18 1457.99> 1018 200<979.791 1510>
LayerCount: 2
Fore
SplineSet
80 1510 m 1,0,-1
 300 1510 l 1,1,2
 350 1411 350 1411 350 1210 c 0,3,4
 350 527 350 527 659 98 c 1,5,6
 1018 581 1018 581 1018 1510 c 1,7,-1
 1218 1510 l 1,8,9
 1218 494 1218 494 740 0 c 1,10,-1
 578 0 l 1,11,12
 150 494 150 494 150 1210 c 0,13,14
 150 1392 150 1392 80 1510 c 1,0,-1
EndSplineSet
Validated: 1
EndChar

StartChar: X
Encoding: 88 88 55
Width: 1278
GlyphClass: 2
Flags: W
HStem: 0 21G<140 340 913 1158> 1490 20G<120 365 938 1138>
VStem: 140 200<0 291.375> 190 200<1050.82 1457.99> 888 200<52.0093 493.667> 938 200<1236.67 1510>
LayerCount: 2
Fore
SplineSet
120 1510 m 1,0,-1
 340 1510 l 1,1,2
 390 1411 390 1411 390 1210 c 0,3,4
 390 1004 390 1004 639 853 c 1,5,6
 938 1124 938 1124 938 1510 c 1,7,-1
 1138 1510 l 1,8,9
 1138 1056 1138 1056 750 784 c 1,10,11
 1088 623 1088 623 1088 300 c 0,12,13
 1088 118 1088 118 1158 0 c 1,14,-1
 938 0 l 1,15,16
 888 99 888 99 888 300 c 0,17,18
 888 554 888 554 639 692 c 1,19,20
 340 414 340 414 340 0 c 1,21,-1
 140 0 l 1,22,23
 140 510 140 510 523 768 c 1,24,25
 190 940 190 940 190 1210 c 0,26,27
 190 1392 190 1392 120 1510 c 1,0,-1
EndSplineSet
Validated: 1
EndChar

StartChar: Y
Encoding: 89 89 56
Width: 1336
GlyphClass: 2
Flags: W
HStem: 507 123<477.767 558> 1490 20G<100 345 976 1176>
VStem: 170 200<731.953 1456.51> 558 200<0 507> 976 200<829.044 1510>
LayerCount: 2
Fore
SplineSet
100 1510 m 1,0,-1
 320 1510 l 1,1,2
 370 1383 370 1383 370 1210 c 2,3,-1
 370 891 l 2,4,5
 370 630 370 630 672 630 c 0,6,7
 976 630 976 630 976 1115 c 2,8,-1
 976 1510 l 1,9,-1
 1176 1510 l 1,10,-1
 1176 1115 l 2,11,12
 1176 598 1176 598 758 520 c 1,13,-1
 758 0 l 1,14,-1
 558 0 l 1,15,-1
 558 507 l 1,16,17
 170 523 170 523 170 891 c 2,18,-1
 170 1210 l 2,19,20
 170 1385 170 1385 100 1510 c 1,0,-1
EndSplineSet
Validated: 19457
EndChar

StartChar: Z
Encoding: 90 90 57
Width: 1273
GlyphClass: 2
Flags: W
HStem: 0 127<317 1133.1> 1383 127<233.053 928>
DStem2: 80 127 317 127 0.559564 0.828787<132.617 1515.47>
LayerCount: 2
Fore
SplineSet
176 1460 m 17,0,1
 314 1510 314 1510 476 1510 c 2,2,-1
 1165 1510 l 1,3,-1
 1165 1383 l 1,4,-1
 317 127 l 1,5,-1
 893 127 l 2,6,7
 1053 127 1053 127 1193 197 c 9,8,-1
 1193 50 l 17,9,10
 1072 0 1072 0 893 0 c 2,11,-1
 80 0 l 1,12,-1
 80 127 l 1,13,-1
 928 1383 l 1,14,-1
 476 1383 l 2,15,16
 308 1383 308 1383 176 1313 c 9,17,-1
 176 1460 l 17,0,1
EndSplineSet
Validated: 19457
EndChar

StartChar: bracketleft
Encoding: 91 91 58
Width: 853
GlyphClass: 2
Flags: W
HStem: -289 150<400 803> 1668 150<400 803>
VStem: 200 200<-139 1668>
LayerCount: 2
Fore
SplineSet
200 -289 m 1,0,-1
 200 1818 l 1,1,-1
 803 1818 l 1,2,-1
 803 1668 l 1,3,-1
 400 1668 l 1,4,-1
 400 -139 l 1,5,-1
 803 -139 l 1,6,-1
 803 -289 l 1,7,-1
 200 -289 l 1,0,-1
EndSplineSet
Validated: 19457
EndChar

StartChar: backslash
Encoding: 92 92 59
Width: 1096
GlyphClass: 2
Flags: W
DStem2: 196 1705 50 1637 0.420342 -0.907366<0.330939 2024.12>
LayerCount: 2
Fore
SplineSet
196 1705 m 1,0,-1
 1046 -132 l 1,1,-1
 901 -200 l 1,2,-1
 50 1637 l 1,3,-1
 196 1705 l 1,0,-1
EndSplineSet
Validated: 19457
EndChar

StartChar: bracketright
Encoding: 93 93 60
Width: 853
GlyphClass: 2
Flags: W
HStem: -289 150<50 453> 1668 150<50 453>
VStem: 453 200<-139 1668>
LayerCount: 2
Fore
SplineSet
653 -289 m 1,0,-1
 50 -289 l 1,1,-1
 50 -139 l 1,2,-1
 453 -139 l 1,3,-1
 453 1668 l 1,4,-1
 50 1668 l 1,5,-1
 50 1818 l 1,6,-1
 653 1818 l 1,7,-1
 653 -289 l 1,0,-1
EndSplineSet
Validated: 19457
EndChar

StartChar: asciicircum
Encoding: 94 94 61
Width: 1176
GlyphClass: 2
Flags: W
HStem: 988 523
VStem: 100 205<988 1193> 812 264<988 1252>
DStem2: 100 988 305 988 0.60462 0.796514<123.947 550.725> 679 1511 559 1331 0.60462 -0.796514<70.8182 496.991>
LayerCount: 2
Fore
SplineSet
100 988 m 1,0,-1
 497 1511 l 1,1,-1
 679 1511 l 1,2,-1
 1076 988 l 1,3,-1
 812 988 l 1,4,-1
 559 1331 l 1,5,-1
 305 988 l 1,6,-1
 100 988 l 1,0,-1
EndSplineSet
Validated: 19457
EndChar

StartChar: underscore
Encoding: 95 95 62
Width: 1183
GlyphClass: 2
Flags: W
HStem: -410 150<150 1033>
LayerCount: 2
Fore
SplineSet
1033 -410 m 1,0,-1
 150 -410 l 1,1,-1
 150 -260 l 1,2,-1
 1033 -260 l 1,3,-1
 1033 -410 l 1,0,-1
EndSplineSet
Validated: 19457
EndChar

StartChar: grave
Encoding: 96 96 63
Width: 792
GlyphClass: 2
Flags: W
HStem: 1037 493
VStem: 150 492
LayerCount: 2
Fore
SplineSet
536 1037 m 1,0,-1
 150 1382 l 1,1,-1
 298 1530 l 1,2,-1
 642 1143 l 1,3,-1
 536 1037 l 1,0,-1
EndSplineSet
Validated: 19457
EndChar

StartChar: a
Encoding: 97 97 64
Width: 1168
GlyphClass: 2
Flags: W
HStem: -20 150<324.081 574.843> 0 21G<793 1038> 566 106<489.811 751> 1013 107<474.093 712.92>
VStem: 100 200<156.859 411.938> 768 200<59.9048 300 672 958.508>
LayerCount: 2
Fore
SplineSet
223 884 m 17,0,1
 363 1120 363 1120 664 1120 c 0,2,3
 968 1120 968 1120 968 821 c 2,4,-1
 968 300 l 2,5,6
 968 140 968 140 1038 0 c 9,7,-1
 818 0 l 17,8,9
 768 121 768 121 768 300 c 1,10,11
 687 -19 687 -19 404 -20 c 0,12,13
 100 -20 100 -20 100 211 c 2,14,-1
 100 219 l 2,15,16
 100 658 100 658 765 672 c 1,17,18
 768 714 768 714 768 756 c 2,19,-1
 768 765 l 2,20,21
 768 1013 768 1013 613 1013 c 0,22,23
 446 1013 446 1013 368 825 c 9,24,-1
 223 884 l 17,0,1
751 566 m 1,25,26
 300 561 300 561 300 262 c 2,27,-1
 300 247 l 2,28,29
 300 130 300 130 455 130 c 0,30,31
 601 130 601 130 687 345 c 0,32,33
 731 455 731 455 751 566 c 1,25,26
EndSplineSet
Validated: 19457
EndChar

StartChar: b
Encoding: 98 98 65
Width: 1228
GlyphClass: 2
Flags: W
HStem: -20 136<473.674 766.389> 970 150<592.909 821.292> 1490 20G<130 375>
VStem: 200 200<192.862 646.413 800 1450.1> 868 200<247.497 922.613>
LayerCount: 2
Fore
SplineSet
130 1510 m 9,0,-1
 350 1510 l 17,1,2
 400 1389 400 1389 400 1210 c 2,3,-1
 400 800 l 1,4,5
 481 1120 481 1120 764 1120 c 0,6,7
 1068 1120 1068 1120 1068 821 c 2,8,-1
 1068 489 l 2,9,10
 1068 -20 1068 -20 504 -20 c 0,11,12
 200 -20 200 -20 200 279 c 2,13,-1
 200 1210 l 2,14,15
 200 1370 200 1370 130 1510 c 9,0,-1
868 489 m 2,16,-1
 868 765 l 2,17,18
 868 970 868 970 713 970 c 0,19,20
 566 970 566 970 481 755 c 0,21,22
 400 551 400 551 400 344 c 10,23,-1
 400 335 l 2,24,25
 400 116 400 116 638 116 c 8,26,27
 868 116 868 116 868 489 c 2,16,-1
EndSplineSet
Validated: 19457
EndChar

StartChar: c
Encoding: 99 99 66
Width: 1168
GlyphClass: 2
Flags: W
HStem: -20 136<423.674 714.388> 984 136<451.836 744.282>
VStem: 150 200<192.862 852.503> 808 202<229.559 349 821 922.192>
LayerCount: 2
Fore
SplineSet
1010 373 m 17,0,1
 950 -20 950 -20 454 -20 c 0,2,3
 150 -20 150 -20 150 279 c 2,4,-1
 150 611 l 2,5,6
 150 1120 150 1120 714 1120 c 0,7,8
 1017 1120 1017 1120 1018 821 c 9,9,-1
 818 765 l 17,10,11
 818 984 818 984 580 984 c 0,12,13
 351 984 351 984 350 611 c 2,14,-1
 350 334 l 2,15,16
 350 116 350 116 588 116 c 0,17,18
 768 116 768 116 808 349 c 9,19,-1
 1010 373 l 17,0,1
EndSplineSet
Validated: 19457
EndChar

StartChar: d
Encoding: 100 100 67
Width: 1228
GlyphClass: 2
Flags: W
HStem: -20 149<406.708 635.214> 0 21G<853 1098> 1012 108<467.301 750.177> 1490 20G<758 1003>
VStem: 160 200<177.387 878.988> 828 200<59.9048 300 452.977 933.531 1067 1450.1>
LayerCount: 2
Fore
SplineSet
758 1510 m 9,0,-1
 978 1510 l 17,1,2
 1028 1389 1028 1389 1028 1210 c 2,3,-1
 1028 300 l 2,4,5
 1028 140 1028 140 1098 0 c 9,6,-1
 878 0 l 17,7,8
 828 121 828 121 828 300 c 1,9,10
 748 -20 748 -20 464 -20 c 0,11,12
 160 -20 160 -20 160 279 c 2,13,-1
 160 611 l 2,14,15
 160 1119 160 1119 594 1120 c 0,16,17
 733 1120 733 1120 828 1067 c 1,18,-1
 828 1210 l 2,19,20
 828 1370 828 1370 758 1510 c 9,0,-1
828 755 m 10,21,-1
 828 764 l 2,22,23
 828 1012 828 1012 594 1012 c 128,-1,24
 360 1012 360 1012 360 610 c 2,25,-1
 360 334 l 2,26,27
 360 129 360 129 515 129 c 0,28,29
 662 129 662 129 746 344 c 0,30,31
 828 549 828 549 828 755 c 10,21,-1
EndSplineSet
Validated: 19457
EndChar

StartChar: e
Encoding: 101 101 68
Width: 1168
GlyphClass: 2
Flags: W
HStem: -20 136<423.674 714.88> 984 136<451.836 868.166>
VStem: 150 200<192.862 373 539 852.503> 808 202<229.559 349>
DStem2: 350 539 350 373 0.906044 0.423182<0 516.385>
LayerCount: 2
Fore
SplineSet
1010 373 m 1,0,1
 950 -20 950 -20 454 -20 c 0,2,3
 150 -20 150 -20 150 279 c 2,4,-1
 150 611 l 2,5,6
 150 1120 150 1120 714 1120 c 0,7,8
 1018 1120 1018 1120 1018 685 c 1,9,-1
 350 373 l 1,10,-1
 350 334 l 2,11,12
 350 116 350 116 588 116 c 0,13,14
 770 116 770 116 808 349 c 1,15,-1
 1010 373 l 1,0,1
350 539 m 1,16,-1
 809 753 l 1,17,18
 772 984 772 984 580 984 c 0,19,20
 351 984 351 984 350 611 c 2,21,-1
 350 539 l 1,16,-1
EndSplineSet
Validated: 19457
EndChar

StartChar: f
Encoding: 102 102 69
Width: 851
GlyphClass: 2
Flags: W
HStem: 0 21G<220 420> 705 127<420 720> 1394 136<521.611 812.646>
VStem: 220 200<0 676 832 1262.5>
LayerCount: 2
Fore
SplineSet
220 0 m 1,0,-1
 220 676 l 1,1,2
 168 661 168 661 113 635 c 1,3,-1
 113 782 l 1,4,5
 173 805 173 805 220 817 c 1,6,-1
 220 1021 l 2,7,8
 220 1530 220 1530 784 1530 c 0,9,10
 814 1530 814 1530 841 1527 c 9,11,-1
 805 1358 l 17,12,13
 748 1394 748 1394 650 1394 c 8,14,15
 420 1394 420 1394 420 1021 c 10,16,-1
 420 832 l 17,17,18
 570 832 570 832 720 832 c 25,19,-1
 720 705 l 25,20,-1
 420 705 l 17,21,-1
 420 0 l 1,22,-1
 220 0 l 1,0,-1
EndSplineSet
Validated: 19457
EndChar

StartChar: g
Encoding: 103 103 70
Width: 1188
GlyphClass: 2
Flags: W
HStem: -430 107<401.739 647.434> -20 150<396.708 626.578> 984 136<451.611 744.326>
VStem: 150 200<177.387 852.503> 818 200<0.329102 300 458.658 907.138>
LayerCount: 2
Fore
SplineSet
580 984 m 0,0,1
 350 984 350 984 350 611 c 2,2,-1
 350 335 l 2,3,4
 350 130 350 130 505 130 c 0,5,6
 658 130 658 130 737 345 c 0,7,8
 818 562 818 562 818 756 c 10,9,-1
 818 765 l 2,10,11
 818 984 818 984 580 984 c 0,0,1
175 -277 m 1,12,-1
 370 -221 l 1,13,14
 405 -323 405 -323 505 -323 c 0,15,16
 818 -323 818 -323 818 300 c 1,17,18
 737 -20 737 -20 454 -20 c 0,19,20
 150 -20 150 -20 150 279 c 2,21,-1
 150 611 l 2,22,23
 150 1120 150 1120 714 1120 c 0,24,25
 1018 1120 1018 1120 1018 821 c 2,26,-1
 1018 403 l 2,27,28
 1018 -430 1018 -430 454 -430 c 0,29,30
 235 -430 235 -430 175 -277 c 1,12,-1
EndSplineSet
Validated: 19457
EndChar

StartChar: h
Encoding: 104 104 71
Width: 1268
GlyphClass: 2
Flags: W
HStem: 0 21G<200 400 893 1138> 970 150<591.948 821.292> 1490 20G<130 375>
VStem: 200 200<0 603.923 800 1450.1> 868 200<59.9048 922.309>
LayerCount: 2
Fore
SplineSet
130 1510 m 9,0,-1
 350 1510 l 17,1,2
 400 1389 400 1389 400 1210 c 2,3,-1
 400 800 l 1,4,5
 480 1120 480 1120 764 1120 c 0,6,7
 1068 1119 1068 1119 1068 821 c 2,8,-1
 1068 300 l 2,9,10
 1068 140 1068 140 1138 0 c 9,11,-1
 918 0 l 17,12,13
 868 121 868 121 868 300 c 2,14,-1
 868 765 l 2,15,16
 868 970 868 970 713 970 c 0,17,18
 400 970 400 970 400 78 c 2,19,-1
 400 0 l 1,20,-1
 200 0 l 1,21,-1
 200 1210 l 2,22,23
 200 1370 200 1370 130 1510 c 9,0,-1
EndSplineSet
Validated: 19457
EndChar

StartChar: i
Encoding: 105 105 72
Width: 600
GlyphClass: 2
Flags: W
HStem: 0 21G<225 470> 1080 20G<130 375> 1275 255<161.795 372.205>
VStem: 141 252<1296.04 1508.96> 200 200<60.6226 1040.1>
LayerCount: 2
Fore
SplineSet
130 1100 m 9,0,-1
 350 1100 l 17,1,2
 400 979 400 979 400 800 c 2,3,-1
 400 300 l 2,4,5
 400 142 400 142 470 0 c 9,6,-1
 250 0 l 17,7,8
 200 123 200 123 200 300 c 2,9,-1
 200 800 l 2,10,11
 200 958 200 958 130 1100 c 9,0,-1
267 1275 m 152,-1,13
 141 1275 141 1275 141 1402.5 c 128,-1,14
 141 1530 141 1530 267 1530 c 128,-1,15
 393 1530 393 1530 393 1402.5 c 128,-1,12
 393 1275 393 1275 267 1275 c 152,-1,13
EndSplineSet
Validated: 19457
EndChar

StartChar: j
Encoding: 106 106 73
Width: 610
GlyphClass: 2
Flags: W
HStem: -430 128<10 58.4375> 1080 20G<140 385> 1275 255<151.795 362.205>
VStem: 131 252<1296.04 1508.96> 210 200<-45.957 1040.1>
LayerCount: 2
Fore
SplineSet
140 1100 m 9,0,-1
 360 1100 l 17,1,2
 410 979 410 979 410 800 c 2,3,-1
 410 319 l 2,4,5
 410 -331 410 -331 10 -430 c 9,6,-1
 10 -302 l 17,7,8
 210 -181 210 -181 210 319 c 2,9,-1
 210 800 l 2,10,11
 210 960 210 960 140 1100 c 9,0,-1
257 1275 m 152,-1,13
 131 1275 131 1275 131 1402.5 c 128,-1,14
 131 1530 131 1530 257 1530 c 128,-1,15
 383 1530 383 1530 383 1402.5 c 128,-1,12
 383 1275 383 1275 257 1275 c 152,-1,13
EndSplineSet
Validated: 1
EndChar

StartChar: k
Encoding: 107 107 74
Width: 1218
GlyphClass: 2
Flags: W
HStem: 0 21G<200 405.692 811 1056> 513 107<576 715.336> 970 150<712.637 965> 1490 20G<130 375>
VStem: 200 200<0 50.3724 378 1450.1> 786 200<59.9048 444.483> 868 200<821 951.812>
DStem2: 400 378 546 513 0.273081 0.961991<0 179.718 280.864 603.277>
LayerCount: 2
Fore
SplineSet
130 1510 m 9,0,-1
 350 1510 l 17,1,2
 400 1389 400 1389 400 1210 c 2,3,-1
 400 378 l 1,4,5
 475 713 475 713 525 834 c 0,6,7
 643 1120 643 1120 862 1120 c 0,8,9
 1068 1120 1068 1120 1068 821 c 1,10,-1
 868 765 l 1,11,12
 868 970 868 970 788 970 c 0,13,14
 678 970 678 970 576 620 c 1,15,16
 986 620 986 620 986 308 c 2,17,-1
 986 300 l 2,18,19
 986 140 986 140 1056 0 c 9,20,-1
 836 0 l 17,21,22
 786 121 786 121 786 300 c 2,23,-1
 786 308 l 2,24,25
 786 513 786 513 546 513 c 1,26,-1
 400 0 l 1,27,-1
 200 0 l 1,28,-1
 200 1210 l 2,29,30
 200 1370 200 1370 130 1510 c 9,0,-1
EndSplineSet
Validated: 19457
EndChar

StartChar: l
Encoding: 108 108 75
Width: 600
GlyphClass: 2
Flags: W
HStem: 0 21G<225 470> 1490 20G<130 375>
VStem: 200 200<59.9048 1450.1>
LayerCount: 2
Fore
SplineSet
130 1510 m 9,0,-1
 350 1510 l 17,1,2
 400 1389 400 1389 400 1210 c 2,3,-1
 400 300 l 2,4,5
 400 140 400 140 470 0 c 9,6,-1
 250 0 l 17,7,8
 200 121 200 121 200 300 c 2,9,-1
 200 1210 l 2,10,11
 200 1370 200 1370 130 1510 c 9,0,-1
EndSplineSet
Validated: 19457
EndChar

StartChar: m
Encoding: 109 109 76
Width: 1936
GlyphClass: 2
Flags: W
HStem: 0 21G<200 400 868 1068 1561 1806> 970 150<591.948 821.292 1259.95 1489.29> 1080 20G<130 375>
VStem: 200 200<0 603.923 800 1040.1> 868 200<0 603.923 800 922.309> 1536 200<59.9048 922.309>
CounterMasks: 1 1c
LayerCount: 2
Fore
SplineSet
130 1100 m 9,0,-1
 350 1100 l 17,1,2
 400 979 400 979 400 800 c 1,3,4
 480 1120 480 1120 764 1120 c 0,5,6
 1068 1119 1068 1119 1068 821 c 2,7,-1
 1068 800 l 1,8,9
 1148 1120 1148 1120 1432 1120 c 0,10,11
 1736 1119 1736 1119 1736 821 c 2,12,-1
 1736 300 l 2,13,14
 1736 140 1736 140 1806 0 c 9,15,-1
 1586 0 l 17,16,17
 1536 121 1536 121 1536 300 c 2,18,-1
 1536 765 l 2,19,20
 1536 970 1536 970 1381 970 c 0,21,22
 1068 970 1068 970 1068 78 c 2,23,-1
 1068 0 l 1,24,-1
 868 0 l 1,25,-1
 868 765 l 2,26,27
 868 970 868 970 713 970 c 0,28,29
 400 970 400 970 400 78 c 2,30,-1
 400 0 l 1,31,-1
 200 0 l 1,32,-1
 200 800 l 2,33,34
 200 960 200 960 130 1100 c 9,0,-1
EndSplineSet
Validated: 19457
EndChar

StartChar: n
Encoding: 110 110 77
Width: 1268
GlyphClass: 2
Flags: W
HStem: 0 21G<200 400 893 1138> 970 150<591.948 821.292> 1080 20G<130 375>
VStem: 200 200<0 603.923 800 1040.1> 868 200<59.9048 922.309>
LayerCount: 2
Fore
SplineSet
130 1100 m 9,0,-1
 350 1100 l 17,1,2
 400 979 400 979 400 800 c 1,3,4
 480 1120 480 1120 764 1120 c 0,5,6
 1068 1119 1068 1119 1068 821 c 2,7,-1
 1068 300 l 2,8,9
 1068 140 1068 140 1138 0 c 9,10,-1
 918 0 l 17,11,12
 868 121 868 121 868 300 c 2,13,-1
 868 765 l 2,14,15
 868 970 868 970 713 970 c 0,16,17
 400 970 400 970 400 78 c 2,18,-1
 400 0 l 1,19,-1
 200 0 l 1,20,-1
 200 800 l 2,21,22
 200 960 200 960 130 1100 c 9,0,-1
EndSplineSet
Validated: 19457
EndChar

StartChar: o
Encoding: 111 111 78
Width: 1188
GlyphClass: 2
Flags: W
HStem: -20 124<423.006 725.816> 996 124<462.184 764.994>
VStem: 150 200<176.371 853.035> 838 200<246.965 923.629>
LayerCount: 2
Fore
SplineSet
350 611 m 2,0,-1
 350 315 l 2,1,2
 350 104 350 104 587 104 c 0,3,4
 838 104 838 104 838 489 c 2,5,-1
 838 785 l 2,6,7
 838 996 838 996 601 996 c 0,8,9
 350 996 350 996 350 611 c 2,0,-1
150 611 m 18,10,11
 150 1120 150 1120 703 1120 c 0,12,13
 1038 1120 1038 1120 1038 785 c 10,14,-1
 1038 489 l 2,15,16
 1038 -20 1038 -20 485 -20 c 0,17,18
 150 -20 150 -20 150 315 c 2,19,-1
 150 611 l 18,10,11
EndSplineSet
Validated: 19457
EndChar

StartChar: p
Encoding: 112 112 79
Width: 1228
GlyphClass: 2
Flags: W
HStem: -410 21G<200 400> -20 107<477.823 760.699> 971 149<593.183 821.433> 1080 20G<130 375>
VStem: 200 200<-410 33 165.785 647.023 800 1040.1> 868 200<220.582 922.613>
LayerCount: 2
Fore
SplineSet
130 1100 m 9,0,-1
 350 1100 l 17,1,2
 400 979 400 979 400 800 c 1,3,4
 480 1120 480 1120 764 1120 c 0,5,6
 1068 1120 1068 1120 1068 821 c 2,7,-1
 1068 489 l 2,8,9
 1068 -20 1068 -20 634 -20 c 0,10,11
 495 -20 495 -20 400 33 c 1,12,-1
 400 -410 l 1,13,-1
 200 -410 l 1,14,-1
 200 800 l 2,15,16
 200 960 200 960 130 1100 c 9,0,-1
400 345 m 10,17,-1
 400 336 l 2,18,19
 400 87 400 87 634 87 c 136,-1,20
 868 87 868 87 868 490 c 2,21,-1
 868 766 l 2,22,23
 868 971 868 971 714 971 c 0,24,25
 567 971 567 971 482 756 c 0,26,27
 400 551 400 551 400 345 c 10,17,-1
EndSplineSet
Validated: 19457
EndChar

StartChar: q
Encoding: 113 113 80
Width: 1228
GlyphClass: 2
Flags: W
HStem: -410 21G<853 1098> -20 150<406.708 635.317> 984 136<461.611 754.326>
VStem: 160 200<177.387 852.503> 828 200<-350.095 300 453.587 907.138>
LayerCount: 2
Fore
SplineSet
1098 -410 m 9,0,-1
 878 -410 l 17,1,2
 828 -289 828 -289 828 -110 c 2,3,-1
 828 300 l 1,4,5
 748 -20 748 -20 464 -20 c 0,6,7
 160 -20 160 -20 160 279 c 2,8,-1
 160 611 l 2,9,10
 160 1120 160 1120 724 1120 c 0,11,12
 1028 1120 1028 1120 1028 821 c 2,13,-1
 1028 -110 l 2,14,15
 1028 -270 1028 -270 1098 -410 c 9,0,-1
360 611 m 2,16,-1
 360 335 l 2,17,18
 360 130 360 130 515 130 c 0,19,20
 662 130 662 130 747 345 c 0,21,22
 828 549 828 549 828 756 c 10,23,-1
 828 765 l 2,24,25
 828 984 828 984 590 984 c 0,26,27
 360 984 360 984 360 611 c 2,16,-1
EndSplineSet
Validated: 19457
EndChar

StartChar: r
Encoding: 114 114 81
Width: 1078
GlyphClass: 2
Flags: W
HStem: 0 21G<200 400> 970 150<591.948 821.292> 1080 20G<130 375>
VStem: 200 200<0 603.923 800 1040.1> 868 200<821 922.309>
LayerCount: 2
Fore
SplineSet
130 1100 m 9,0,-1
 350 1100 l 17,1,2
 400 979 400 979 400 800 c 1,3,4
 480 1120 480 1120 764 1120 c 0,5,6
 1068 1119 1068 1119 1068 821 c 9,7,-1
 868 765 l 17,8,9
 868 970 868 970 713 970 c 0,10,11
 400 970 400 970 400 78 c 2,12,-1
 400 0 l 1,13,-1
 200 0 l 1,14,-1
 200 800 l 2,15,16
 200 960 200 960 130 1100 c 9,0,-1
EndSplineSet
Validated: 19457
EndChar

StartChar: t
Encoding: 116 116 82
Width: 820
GlyphClass: 2
Flags: W
HStem: 0 21G<335 580> 973 127<69.9048 310 510 810> 1490 20G<240 485>
VStem: 310 200<59.9048 973 1100 1450.1>
LayerCount: 2
Fore
SplineSet
240 1510 m 9,0,-1
 460 1510 l 17,1,2
 510 1389 510 1389 510 1210 c 2,3,-1
 510 1100 l 1,4,5
 660 1100 660 1100 810 1100 c 25,6,-1
 810 973 l 25,7,-1
 510 973 l 17,8,-1
 510 300 l 2,9,10
 510 140 510 140 580 0 c 9,11,-1
 360 0 l 17,12,13
 310 121 310 121 310 300 c 2,14,-1
 310 973 l 1,15,16
 150 973 150 973 10 903 c 9,17,-1
 10 1050 l 17,18,19
 131 1100 131 1100 310 1100 c 1,20,-1
 310 1210 l 2,21,22
 310 1370 310 1370 240 1510 c 9,0,-1
EndSplineSet
Validated: 19457
EndChar

StartChar: u
Encoding: 117 117 83
Width: 1268
GlyphClass: 2
Flags: W
HStem: -20 150<446.708 676.052> 0 21G<893 1138> 1080 20G<130 375 868 1068>
VStem: 200 200<177.691 1040.1> 868 200<59.9048 300 496.077 1100>
LayerCount: 2
Fore
SplineSet
130 1100 m 9,0,-1
 350 1100 l 17,1,2
 400 979 400 979 400 800 c 2,3,-1
 400 335 l 2,4,5
 400 130 400 130 555 130 c 0,6,7
 868 130 868 130 868 1022 c 2,8,-1
 868 1100 l 1,9,-1
 1068 1100 l 1,10,-1
 1068 300 l 2,11,12
 1068 140 1068 140 1138 0 c 9,13,-1
 918 0 l 17,14,15
 868 121 868 121 868 300 c 1,16,17
 788 -20 788 -20 504 -20 c 0,18,19
 200 -19 200 -19 200 279 c 2,20,-1
 200 800 l 2,21,22
 200 960 200 960 130 1100 c 9,0,-1
EndSplineSet
Validated: 19457
EndChar

StartChar: v
Encoding: 118 118 84
Width: 1083
GlyphClass: 2
Flags: W
HStem: 0 21G<269.5 802> 1080 20G<30 275 803 1003>
VStem: 100 200<523.551 1047.99> 803 200<691.578 1100>
LayerCount: 2
Fore
SplineSet
30 1100 m 1,0,-1
 250 1100 l 1,1,2
 300 1001 300 1001 300 800 c 0,3,4
 300 439 300 439 520 109 c 1,5,6
 803 526 803 526 803 1100 c 1,7,-1
 1003 1100 l 1,8,9
 1003 424 1003 424 601 0 c 1,10,-1
 439 0 l 1,11,12
 100 424 100 424 100 800 c 0,13,14
 100 982 100 982 30 1100 c 1,0,-1
EndSplineSet
Validated: 1
EndChar

StartChar: w
Encoding: 119 119 85
Width: 1896
GlyphClass: 2
Flags: W
HStem: -20 150<446.708 676.052> -20 107<1123.08 1361.8> 1080 20G<130 375 868 1068 1466 1711>
VStem: 200 200<177.387 1040.1> 868 200<141.492 300 496.077 1100> 1536 200<400.371 1040.1>
CounterMasks: 1 1c
LayerCount: 2
Fore
SplineSet
130 1100 m 9,0,-1
 350 1100 l 17,1,2
 400 979 400 979 400 800 c 2,3,-1
 400 335 l 2,4,5
 400 130 400 130 555 130 c 0,6,7
 868 130 868 130 868 1022 c 2,8,-1
 868 1100 l 1,9,-1
 1068 1100 l 1,10,-1
 1068 335 l 2,11,12
 1068 87 1068 87 1223 87 c 0,13,14
 1536 87 1536 87 1536 750 c 2,15,-1
 1536 800 l 2,16,17
 1536 960 1536 960 1466 1100 c 9,18,-1
 1686 1100 l 17,19,20
 1736 979 1736 979 1736 800 c 10,21,-1
 1736 790 l 18,22,23
 1736 -20 1736 -20 1172 -20 c 0,24,25
 868 -20 868 -20 868 279 c 2,26,-1
 868 300 l 1,27,28
 788 -20 788 -20 504 -20 c 0,29,30
 200 -20 200 -20 200 279 c 2,31,-1
 200 800 l 2,32,33
 200 960 200 960 130 1100 c 9,0,-1
EndSplineSet
Validated: 19457
EndChar

StartChar: x
Encoding: 120 120 86
Width: 1078
GlyphClass: 2
Flags: W
HStem: 0 21G<100 300 743 988> 1080 20G<90 335 778 978>
VStem: 100 200<0 214.871> 160 200<700.055 1047.99> 718 200<52.0093 418.959> 778 200<876.783 1100>
LayerCount: 2
Fore
SplineSet
90 1100 m 1,0,-1
 310 1100 l 1,1,2
 360 1001 360 1001 360 800 c 0,3,4
 360 686 360 686 531 626 c 1,5,6
 778 815 778 815 778 1100 c 1,7,-1
 978 1100 l 1,8,9
 978 765 978 765 655 566 c 1,10,11
 918 494 918 494 918 300 c 0,12,13
 918 118 918 118 988 0 c 1,14,-1
 768 0 l 1,15,16
 718 99 718 99 718 300 c 0,17,18
 718 444 718 444 550 486 c 1,19,20
 300 277 300 277 300 0 c 1,21,-1
 100 0 l 1,22,23
 100 354 100 354 432 546 c 1,24,25
 160 645 160 645 160 800 c 0,26,27
 159 983 159 983 90 1100 c 1,0,-1
EndSplineSet
Validated: 1
EndChar

StartChar: y
Encoding: 121 121 87
Width: 1268
GlyphClass: 2
Flags: W
HStem: -430 107<451.739 697.434> -20 150<446.708 676.052> 1080 20G<130 375 868 1068>
VStem: 200 200<177.387 1040.1> 868 200<0.329102 300 496.077 1100>
LayerCount: 2
Fore
SplineSet
130 1100 m 9,0,-1
 350 1100 l 17,1,2
 400 979 400 979 400 800 c 2,3,-1
 400 335 l 2,4,5
 400 130 400 130 555 130 c 0,6,7
 868 130 868 130 868 1022 c 2,8,-1
 868 1100 l 1,9,-1
 1068 1100 l 1,10,-1
 1068 403 l 2,11,12
 1068 -430 1068 -430 504 -430 c 0,13,14
 285 -430 285 -430 225 -277 c 1,15,-1
 420 -221 l 1,16,17
 455 -323 455 -323 555 -323 c 0,18,19
 868 -323 868 -323 868 300 c 1,20,21
 788 -20 788 -20 504 -20 c 0,22,23
 200 -20 200 -20 200 279 c 2,24,-1
 200 800 l 2,25,26
 200 960 200 960 130 1100 c 9,0,-1
EndSplineSet
Validated: 19457
EndChar

StartChar: z
Encoding: 122 122 88
Width: 993
GlyphClass: 2
Flags: W
HStem: 0 127<304 853.095> 973 127<179.905 660>
DStem2: 80 127 304 127 0.565453 0.824781<126.661 1025.73>
LayerCount: 2
Fore
SplineSet
120 1050 m 17,0,1
 241 1100 241 1100 420 1100 c 2,2,-1
 884 1100 l 1,3,-1
 884 973 l 1,4,-1
 304 127 l 1,5,-1
 613 127 l 2,6,7
 773 127 773 127 913 197 c 9,8,-1
 913 50 l 17,9,10
 792 0 792 0 613 0 c 2,11,-1
 80 0 l 1,12,-1
 80 127 l 1,13,-1
 660 973 l 1,14,-1
 420 973 l 2,15,16
 260 973 260 973 120 903 c 9,17,-1
 120 1050 l 17,0,1
EndSplineSet
Validated: 19457
EndChar

StartChar: braceleft
Encoding: 123 123 89
Width: 879
GlyphClass: 2
Flags: W
HStem: -288 107<653.299 829> 1711 107<653.299 829>
VStem: 336 195<-55.2188 608.536 921.464 1585.22>
LayerCount: 2
Fore
SplineSet
829 1818 m 9,0,1
 829 1711 l 17,2,3
 531 1711 531 1711 531 1389 c 2,4,-1
 531 1058 l 2,5,6
 531 834 531 834 293 765 c 1,7,8
 531 705 531 705 531 472 c 2,9,-1
 531 141 l 2,10,11
 531 -181 531 -181 829 -181 c 9,12,13
 829 -288 l 17,14,15
 336 -288 336 -288 336 141 c 2,16,-1
 336 472 l 2,17,18
 336 645 336 645 100 765 c 1,19,20
 336 885 336 885 336 1058 c 2,21,-1
 336 1389 l 2,22,23
 336 1818 336 1818 829 1818 c 9,0,1
EndSplineSet
Validated: 19457
EndChar

StartChar: bar
Encoding: 124 124 90
Width: 661
GlyphClass: 2
Flags: W
VStem: 250 160<-186 1695>
LayerCount: 2
Fore
SplineSet
250 -186 m 1,0,-1
 250 1695 l 1,1,-1
 411 1695 l 1,2,-1
 410 -186 l 1,3,-1
 250 -186 l 1,0,-1
EndSplineSet
Validated: 19457
EndChar

StartChar: braceright
Encoding: 125 125 91
Width: 879
GlyphClass: 2
Flags: W
HStem: -288 107<50 225.701> 1711 107<50 225.701>
VStem: 348 195<-55.2188 608.536 921.464 1585.22>
LayerCount: 2
Fore
SplineSet
50 1818 m 17,0,1
 543 1818 543 1818 543 1389 c 2,2,-1
 543 1058 l 2,3,4
 543 885 543 885 779 765 c 1,5,6
 543 645 543 645 543 472 c 2,7,-1
 543 141 l 2,8,9
 543 -288 543 -288 50 -288 c 9,10,-1
 50 -181 l 17,11,12
 348 -181 348 -181 348 141 c 2,13,-1
 348 472 l 2,14,15
 348 705 348 705 586 765 c 1,16,17
 348 834 348 834 348 1058 c 2,18,-1
 348 1389 l 2,19,20
 348 1711 348 1711 50 1711 c 9,21,-1
 50 1818 l 17,0,1
EndSplineSet
Validated: 19457
EndChar

StartChar: asciitilde
Encoding: 126 126 92
Width: 1228
GlyphClass: 2
Flags: W
HStem: 578 148<673.038 965> 787 146<259 533>
VStem: 160 200<634 764.812> 868 200<746.188 877>
LayerCount: 2
Fore
SplineSet
160 634 m 1,0,1
 160 933 160 933 358 933 c 0,2,3
 534 933 534 933 638 793 c 0,4,5
 688 726 688 726 780 726 c 0,6,7
 868 726 868 726 868 933 c 1,8,-1
 1068 877 l 1,9,10
 1068 578 1068 578 862 578 c 0,11,12
 664 578 664 578 578 714 c 0,13,14
 532 787 532 787 450 787 c 0,15,16
 360 787 360 787 360 578 c 1,17,-1
 160 634 l 1,0,1
EndSplineSet
Validated: 19457
EndChar

StartChar: exclamdown
Encoding: 161 161 94
Width: 742
GlyphClass: 2
Flags: W
HStem: -20 21G<271 471> 1256 255<265.795 476.205>
VStem: 245 252<1277.04 1489.96> 271 200<-20 395.027> 311 120<722.973 1138>
LayerCount: 2
Fore
SplineSet
371 1511 m 152,-1,1
 497 1511 497 1511 497 1383.5 c 128,-1,2
 497 1256 497 1256 371 1256 c 128,-1,3
 245 1256 245 1256 245 1383.5 c 128,-1,0
 245 1511 245 1511 371 1511 c 152,-1,1
471 -20 m 1,4,-1
 271 -20 l 1,5,-1
 311 1138 l 1,6,-1
 431 1138 l 1,7,-1
 471 -20 l 1,4,-1
EndSplineSet
Validated: 19457
EndChar

StartChar: cent
Encoding: 162 162 95
Width: 1188
GlyphClass: 2
Flags: W
HStem: -20 21G<312 476.5> 1100 20G<711.5 875.5>
VStem: 160 200<192.862 850.368> 514 160<-188 -19 128 971 1119 1282> 818 202<229.782 349 821 922.613>
LayerCount: 2
Fore
SplineSet
1020 373 m 1,0,1
 974 73 974 73 674 2 c 1,2,-1
 674 -188 l 1,3,-1
 514 -188 l 1,4,-1
 514 -19 l 1,5,6
 489 -20 489 -20 464 -20 c 0,7,8
 160 -20 160 -20 160 279 c 2,9,-1
 160 611 l 2,10,11
 160 1014 160 1014 514 1098 c 1,12,-1
 514 1282 l 1,13,-1
 674 1282 l 1,14,-1
 674 1119 l 1,15,16
 699 1120 699 1120 724 1120 c 0,17,18
 1027 1120 1027 1120 1028 821 c 1,19,-1
 828 765 l 1,20,21
 828 941 828 941 674 976 c 1,22,-1
 674 128 l 1,23,24
 787 170 787 170 818 349 c 1,25,-1
 1020 373 l 1,0,1
514 124 m 1,26,-1
 514 971 l 1,27,28
 361 915 361 915 360 611 c 2,29,-1
 360 334 l 2,30,31
 360 159 360 159 514 124 c 1,26,-1
EndSplineSet
Validated: 19457
EndChar

StartChar: sterling
Encoding: 163 163 96
Width: 1280
GlyphClass: 2
Flags: W
HStem: 0 127<408 1068.42> 1406 124<535.042 821.816>
VStem: 220 200<129.328 692 819 1257.56> 888 200<1231 1337.21>
LayerCount: 2
Fore
SplineSet
150 0 m 1,0,1
 220 118 220 118 220 300 c 2,2,-1
 220 692 l 1,3,4
 167 692 167 692 113 637 c 1,5,-1
 113 784 l 1,6,7
 167 819 167 819 220 819 c 1,8,-1
 220 1009 l 2,9,10
 220 1530 220 1530 784 1530 c 0,11,12
 1088 1530 1088 1530 1088 1231 c 1,13,-1
 888 1176 l 1,14,15
 888 1406 888 1406 682 1406 c 0,16,17
 420 1406 420 1406 420 1026 c 2,18,-1
 420 819 l 1,19,20
 580 819 580 819 720 889 c 9,21,-1
 720 742 l 17,22,23
 599 692 599 692 420 692 c 1,24,-1
 420 300 l 2,25,26
 420 201 420 201 408 127 c 1,27,-1
 830 127 l 2,28,29
 978 127 978 127 1130 197 c 1,30,-1
 1130 50 l 1,31,32
 1017 0 1017 0 830 0 c 2,33,-1
 150 0 l 1,0,1
EndSplineSet
Validated: 19457
EndChar

StartChar: currency
Encoding: 164 164 97
Width: 1465
GlyphClass: 2
Flags: W
HStem: 354 136<561.294 889.165> 986 136<575.601 902.432>
VStem: 299 187<563.8 877.406> 977 190<598.662 912.804>
DStem2: 259 1308 150 1200 0.718504 -0.695523<0 344.081 1128.25 1475.13> 150 278 252 171 0.718504 0.695523<0 284.342 1194.21 1475.13>
LayerCount: 2
Fore
SplineSet
729 986 m 0,0,1
 486 986 486 986 486 708 c 2,2,-1
 486 706 l 2,3,4
 486 490 486 490 737 490 c 0,5,6
 977 490 977 490 977 765 c 2,7,-1
 977 767 l 2,8,9
 977 986 977 986 729 986 c 0,0,1
259 1308 m 1,10,-1
 518 1056 l 1,11,12
 650 1122 650 1122 863 1122 c 0,13,14
 939 1122 939 1122 996 1103 c 1,15,-1
 1206 1308 l 1,16,-1
 1315 1200 l 1,17,-1
 1120 1012 l 1,18,19
 1167 940 1167 940 1167 823 c 2,20,-1
 1167 821 l 2,21,22
 1167 629 1167 629 1071 516 c 1,23,-1
 1315 278 l 1,24,-1
 1213 171 l 1,25,-1
 953 423 l 1,26,27
 819 354 819 354 603 354 c 0,28,29
 522 354 522 354 463 375 c 1,30,-1
 252 171 l 1,31,-1
 150 278 l 1,32,-1
 344 467 l 1,33,34
 299 538 299 538 299 653 c 2,35,-1
 299 655 l 2,36,37
 299 849 299 849 396 962 c 1,38,-1
 150 1200 l 1,39,-1
 259 1308 l 1,10,-1
EndSplineSet
Validated: 19457
EndChar

StartChar: yen
Encoding: 165 165 98
Width: 1475
GlyphClass: 2
Flags: W
HStem: 0 21G<638 838> 507 150<224 559 917 1266> 795 150<224 408 685 828 1068 1266> 1490 20G<111 340.911 1178.91 1364>
VStem: 111 220<1290 1510> 638 200<0 507> 1189 175<1335 1510>
DStem2: 331 1510 111 1510 0.464976 -0.885323<0 536.011 797.608 861.195>
LayerCount: 2
Fore
SplineSet
111 1510 m 1,0,-1
 331 1510 l 1,1,-1
 611 945 l 1,2,-1
 904 945 l 1,3,-1
 1189 1510 l 1,4,-1
 1364 1510 l 1,5,-1
 1068 945 l 1,6,-1
 1266 945 l 1,7,-1
 1266 795 l 1,8,-1
 989 795 l 1,9,-1
 917 657 l 1,10,-1
 1266 657 l 1,11,-1
 1266 507 l 1,12,-1
 838 507 l 1,13,-1
 838 0 l 1,14,-1
 638 0 l 1,15,-1
 638 507 l 1,16,-1
 224 507 l 1,17,-1
 224 657 l 1,18,-1
 559 657 l 1,19,-1
 487 795 l 1,20,-1
 224 795 l 1,21,-1
 224 945 l 1,22,-1
 408 945 l 1,23,-1
 111 1510 l 1,0,-1
828 795 m 1,24,-1
 685 795 l 1,25,-1
 754 657 l 1,26,-1
 759 657 l 1,27,-1
 828 795 l 1,24,-1
EndSplineSet
Validated: 19457
EndChar

StartChar: brokenbar
Encoding: 166 166 99
Width: 661
GlyphClass: 2
Flags: W
VStem: 250 161<-186 672 837 1695>
LayerCount: 2
Fore
SplineSet
250 -186 m 1,0,-1
 250 672 l 1,1,-1
 411 672 l 1,2,-1
 411 -186 l 1,3,-1
 250 -186 l 1,0,-1
250 837 m 1,4,-1
 250 1695 l 1,5,-1
 411 1695 l 1,6,-1
 411 837 l 1,7,-1
 250 837 l 1,4,-1
EndSplineSet
Validated: 19457
EndChar

StartChar: section
Encoding: 167 167 100
Width: 1206
GlyphClass: 2
Flags: W
HStem: -20 136<455.57 750.214> 425 139<393.767 769.941> 946 139<436.059 812.233> 1394 136<455.786 750.43>
VStem: 150 200<606.646 827.103> 201 200<1121.33 1339.09> 805 200<170.915 388.672> 856 200<682.897 903.354>
LayerCount: 2
Fore
SplineSet
222 184 m 9,0,-1
 422 240 l 17,1,2
 422 116 422 116 615 116 c 8,3,4
 805 116 805 116 805 304 c 2,5,-1
 805 306 l 2,6,7
 805 425 805 425 602 425 c 0,8,9
 150 425 150 425 150 654 c 2,10,-1
 150 655 l 2,11,12
 150 811 150 811 283 943 c 9,13,-1
 494 917 l 17,14,15
 350 846 350 846 350 685 c 2,16,-1
 350 683 l 2,17,18
 350 564 350 564 604 564 c 0,19,20
 1005 564 1005 564 1005 335 c 2,21,-1
 1005 334 l 2,22,23
 1005 -20 1005 -20 481 -20 c 0,24,25
 222 -20 222 -20 222 184 c 9,0,-1
984 1326 m 9,26,-1
 784 1270 l 17,27,28
 784 1394 784 1394 591 1394 c 8,29,30
 401 1394 401 1394 401 1206 c 2,31,-1
 401 1204 l 2,32,33
 401 1085 401 1085 604 1085 c 0,34,35
 1056 1085 1056 1085 1056 856 c 2,36,-1
 1056 855 l 2,37,38
 1056 699 1056 699 923 567 c 9,39,-1
 712 593 l 17,40,41
 856 664 856 664 856 825 c 2,42,-1
 856 827 l 2,43,44
 856 946 856 946 602 946 c 0,45,46
 201 946 201 946 201 1175 c 2,47,-1
 201 1176 l 2,48,49
 201 1530 201 1530 725 1530 c 0,50,51
 984 1530 984 1530 984 1326 c 9,26,-1
EndSplineSet
Validated: 19457
EndChar

StartChar: dieresis
Encoding: 168 168 101
Width: 943
GlyphClass: 2
Flags: W
HStem: 1275 255<170.795 381.205 561.795 772.205>
VStem: 150 252<1296.04 1508.96> 541 252<1296.04 1508.96>
LayerCount: 2
Fore
SplineSet
667 1275 m 152,-1,1
 541 1275 541 1275 541 1402.5 c 128,-1,2
 541 1530 541 1530 667 1530 c 128,-1,3
 793 1530 793 1530 793 1402.5 c 128,-1,0
 793 1275 793 1275 667 1275 c 152,-1,1
276 1275 m 152,-1,5
 150 1275 150 1275 150 1402.5 c 128,-1,6
 150 1530 150 1530 276 1530 c 128,-1,7
 402 1530 402 1530 402 1402.5 c 128,-1,4
 402 1275 402 1275 276 1275 c 152,-1,5
EndSplineSet
Validated: 19457
EndChar

StartChar: copyright
Encoding: 169 169 102
Width: 1451
GlyphClass: 2
Flags: W
HStem: 152 115<541.928 908.617> 339 113<597.53 820.622> 1052 112<624.145 831.936> 1241 115<536.557 917.269>
VStem: 150 124<550.274 971.041> 430 150<472.057 1007.45> 862 154<493.742 633 929 1020.57> 1176 125<546.721 969.437>
LayerCount: 2
Fore
SplineSet
1176 764 m 0,0,1
 1176 947 1176 947 1055 1090 c 24,2,3
 927 1241 927 1241 722 1241 c 256,4,5
 546 1241 546 1241 409 1102 c 0,6,7
 274 966 274 966 274 759 c 0,8,9
 274 560 274 560 409 413.5 c 128,-1,10
 544 267 544 267 724 267 c 256,11,12
 915 267 915 267 1055 428 c 24,13,14
 1176 567 1176 567 1176 764 c 0,0,1
1301 754 m 128,-1,16
 1301 514 1301 514 1133 330 c 0,17,18
 970 152 970 152 723 152 c 0,19,20
 489 152 489 152 318 330 c 0,21,22
 150 502 150 502 150 754 c 128,-1,23
 150 1006 150 1006 318 1178 c 0,24,25
 489 1356 489 1356 723 1356 c 0,26,27
 970 1356 970 1356 1133 1178 c 0,28,15
 1301 994 1301 994 1301 754 c 128,-1,16
1016 652 m 1,29,30
 1016 339 1016 339 666 339 c 0,31,32
 430 339 430 339 430 557 c 2,33,-1
 430 835 l 2,34,35
 430 1164 430 1164 776 1164 c 0,36,37
 1016 1164 1016 1164 1016 929 c 1,38,-1
 864 887 l 1,39,40
 864 1052 864 1052 726 1052 c 0,41,42
 580 1052 580 1052 580 835 c 2,43,-1
 580 557 l 2,44,45
 580 452 580 452 712 452 c 0,46,47
 862 452 862 452 862 633 c 1,48,-1
 1016 652 l 1,29,30
EndSplineSet
Validated: 19457
EndChar

StartChar: ordfeminine
Encoding: 170 170 103
Width: 1183
GlyphClass: 2
Flags: W
HStem: 693 150<150 1033> 908 125<473.062 605.818> 1200 105<504.746 644> 1426 104<529.645 652.326>
VStem: 323 148<1037.51 1162.13> 644 165<1069.53 1200> 660 149<1297.91 1422.05>
LayerCount: 2
Fore
SplineSet
375 1373 m 1,0,1
 467 1530 467 1530 629 1530 c 24,2,3
 809 1530 809 1530 809 1360 c 2,4,-1
 809 1090 l 2,5,6
 809 1003 809 1003 859 918 c 1,7,-1
 692 918 l 1,8,9
 672 961 672 961 668 993 c 1,10,11
 611 908 611 908 502 908 c 24,12,13
 323 908 323 908 323 1046 c 2,14,-1
 323 1050 l 2,15,16
 323 1253 323 1253 660 1305 c 1,17,18
 660 1319 660 1319 660 1321 c 2,19,-1
 660 1326 l 2,20,21
 660 1426 660 1426 608 1426 c 0,22,23
 539 1426 539 1426 497 1323 c 1,24,-1
 375 1373 l 1,0,1
644 1200 m 1,25,26
 471 1193 471 1193 471 1076 c 2,27,-1
 471 1068 l 2,28,29
 471 1033 471 1033 527 1033 c 24,30,31
 593 1033 593 1033 631 1122 c 0,32,33
 643 1150 643 1150 644 1200 c 1,25,26
1033 693 m 1,34,-1
 150 693 l 1,35,-1
 150 843 l 1,36,-1
 1033 843 l 1,37,-1
 1033 693 l 1,34,-1
EndSplineSet
Validated: 19457
EndChar

StartChar: guillemotleft
Encoding: 171 171 104
Width: 1409
GlyphClass: 2
Flags: W
HStem: 124 280<393 673 929 1209> 1196 205<468 673 1004 1209>
DStem2: 150 859 298 799 0.690413 0.723415<58.7762 609.217> 298 799 150 678 0.691073 -0.722785<0 540.316> 686 853 834 793 0.690413 0.723415<58.7762 609.217> 834 793 686 678 0.686469 -0.727159<0 540.291>
LayerCount: 2
Fore
SplineSet
1209 1401 m 1,0,-1
 1209 1196 l 1,1,-1
 834 793 l 1,2,-1
 1209 404 l 1,3,-1
 1209 124 l 1,4,-1
 686 678 l 1,5,-1
 686 853 l 1,6,-1
 1209 1401 l 1,0,-1
673 1407 m 1,7,-1
 673 1202 l 1,8,-1
 298 799 l 1,9,-1
 673 410 l 1,10,-1
 673 131 l 1,11,-1
 150 678 l 1,12,-1
 150 859 l 1,13,-1
 673 1407 l 1,7,-1
EndSplineSet
Validated: 19457
EndChar

StartChar: logicalnot
Encoding: 172 172 105
Width: 1183
GlyphClass: 2
Flags: W
HStem: 693 150<150 883>
VStem: 883 150<436 693>
LayerCount: 2
Fore
SplineSet
1033 436 m 1,0,-1
 883 436 l 1,1,-1
 883 693 l 1,2,-1
 150 693 l 1,3,-1
 150 843 l 1,4,-1
 1033 843 l 1,5,-1
 1033 436 l 1,0,-1
EndSplineSet
Validated: 19457
EndChar

StartChar: uni00AD
Encoding: 173 173 106
Width: 1183
GlyphClass: 2
Flags: W
HStem: 693 150<150 1033>
LayerCount: 2
Fore
SplineSet
1033 693 m 1,0,-1
 150 693 l 1,1,-1
 150 843 l 1,2,-1
 1033 843 l 1,3,-1
 1033 693 l 1,0,-1
EndSplineSet
Validated: 19457
EndChar

StartChar: registered
Encoding: 174 174 107
Width: 1451
GlyphClass: 2
Flags: W
HStem: 152 115<542.169 909.631> 599 113<642 825.635> 1036 114<639 850.276> 1241 115<535.968 917.269>
VStem: 150 124<550.521 971.038> 492 150<345 599 712 1035> 847 151<396.038 590.999> 869 150<394 577.287 756.74 1011.57> 1176 125<551.51 969.437>
LayerCount: 2
Fore
SplineSet
639 1036 m 1,0,1
 642 1004 642 1004 642 976 c 2,2,-1
 642 712 l 1,3,-1
 724 712 l 2,4,5
 869 712 869 712 869 928 c 2,6,-1
 869 932 l 2,7,8
 869 1036 869 1036 730 1036 c 2,9,-1
 639 1036 l 1,0,1
1301 754 m 128,-1,11
 1301 514 1301 514 1133 330 c 0,12,13
 970 152 970 152 723 152 c 0,14,15
 490 152 490 152 318 330 c 0,16,17
 150 503 150 503 150 754 c 128,-1,18
 150 1005 150 1005 318 1178 c 0,19,20
 490 1356 490 1356 723 1356 c 0,21,22
 970 1356 970 1356 1133 1178 c 0,23,10
 1301 994 1301 994 1301 754 c 128,-1,11
1176 764 m 0,24,25
 1176 947 1176 947 1055 1090 c 0,26,27
 927 1241 927 1241 722 1241 c 0,28,29
 580 1241 580 1241 463 1150 c 1,30,-1
 782 1150 l 2,31,32
 1019 1150 1019 1150 1019 932 c 2,33,-1
 1019 928 l 2,34,35
 1019 753 1019 753 918 671 c 1,36,37
 998 634 998 634 998 524 c 2,38,-1
 998 520 l 2,39,40
 998 458 998 458 1023 394 c 1,41,42
 1040 410 1040 410 1055 428 c 0,43,44
 1176 573 1176 573 1176 764 c 0,24,25
965 345 m 1,45,-1
 880 345 l 1,46,47
 847 437 847 437 847 520 c 2,48,-1
 847 524 l 2,49,50
 847 599 847 599 752 599 c 2,51,-1
 642 599 l 1,52,-1
 642 345 l 1,53,-1
 492 345 l 1,54,-1
 492 975 l 2,55,56
 492 1073 492 1073 450 1140 c 1,57,58
 429 1122 429 1122 409 1102 c 0,59,60
 274 967 274 967 274 759 c 0,61,62
 274 560 274 560 409 413.5 c 128,-1,63
 544 267 544 267 724 267 c 0,64,65
 857 267 857 267 965 345 c 1,45,-1
EndSplineSet
Validated: 19457
EndChar

StartChar: macron
Encoding: 175 175 108
Width: 1183
GlyphClass: 2
Flags: W
HStem: 1361 150<150 1033>
LayerCount: 2
Fore
SplineSet
1033 1361 m 1,0,-1
 150 1361 l 1,1,-1
 150 1511 l 1,2,-1
 1033 1511 l 1,3,-1
 1033 1361 l 1,0,-1
EndSplineSet
Validated: 19457
EndChar

StartChar: degree
Encoding: 176 176 109
Width: 1056
GlyphClass: 2
Flags: W
HStem: 906 151<400.219 649.885> 1383 147<400.219 651.121>
VStem: 200 162<1096.19 1342.52> 691 165<1096.31 1342.63>
LayerCount: 2
Fore
SplineSet
525 1057 m 0,0,1
 691 1057 691 1057 691 1224 c 0,2,3
 691 1383 691 1383 525 1383 c 0,4,5
 362 1383 362 1383 362 1223 c 0,6,7
 362 1057 362 1057 525 1057 c 0,0,1
528 1530 m 128,-1,9
 856 1530 856 1530 856 1218 c 128,-1,10
 856 906 856 906 528 906 c 128,-1,11
 200 906 200 906 200 1218 c 128,-1,8
 200 1530 200 1530 528 1530 c 128,-1,9
EndSplineSet
Validated: 19457
EndChar

StartChar: plusminus
Encoding: 177 177 110
Width: 1183
GlyphClass: 2
Flags: W
HStem: 215 150<150 1033> 782 150<150 516 666 1033>
VStem: 516 150<415 782 932 1298>
LayerCount: 2
Fore
SplineSet
1033 215 m 1,0,-1
 150 215 l 1,1,-1
 150 365 l 1,2,-1
 1033 365 l 1,3,-1
 1033 215 l 1,0,-1
516 415 m 1,4,-1
 516 782 l 1,5,-1
 150 782 l 1,6,-1
 150 932 l 1,7,-1
 516 932 l 1,8,-1
 516 1298 l 1,9,-1
 666 1298 l 1,10,-1
 666 932 l 1,11,-1
 1033 932 l 1,12,-1
 1033 782 l 1,13,-1
 666 782 l 1,14,-1
 666 415 l 1,15,-1
 516 415 l 1,4,-1
EndSplineSet
Validated: 19457
EndChar

StartChar: uni00B2
Encoding: 178 178 111
Width: 844
GlyphClass: 2
Flags: W
HStem: 715 113<304 678.465> 1040 114<345.467 504.036> 1417 113<224.157 524.564>
VStem: 150 154<828 1007.27> 544 150<1192.44 1396.9>
LayerCount: 2
Fore
SplineSet
214 1499 m 1,0,1
 323 1530 323 1530 404 1530 c 2,2,-1
 456 1530 l 2,3,4
 694 1530 694 1530 694 1312 c 2,5,-1
 694 1311 l 2,6,7
 694 1040 694 1040 417 1040 c 0,8,9
 308 1040 308 1040 304 828 c 1,10,-1
 510 828 l 2,11,12
 636 828 636 828 686 878 c 1,13,-1
 686 748 l 1,14,15
 606 715 606 715 510 715 c 2,16,-1
 150 715 l 1,17,18
 150 1154 150 1154 388 1154 c 0,19,20
 544 1154 544 1154 544 1311 c 2,21,-1
 544 1312 l 2,22,23
 544 1417 544 1417 406 1417 c 2,24,-1
 389 1417 l 2,25,26
 318 1417 318 1417 214 1368 c 1,27,-1
 214 1499 l 1,0,1
EndSplineSet
Validated: 19457
EndChar

StartChar: uni00B3
Encoding: 179 179 112
Width: 884
GlyphClass: 2
Flags: W
HStem: 716 112<333.533 548.489> 1108 114<286 496.369> 1417 113<264.157 534.805>
VStem: 150 150<860.043 952> 540 144<1266.2 1407.5> 584 150<867.282 1090.2>
LayerCount: 2
Fore
SplineSet
254 1499 m 1,0,1
 363 1530 363 1530 444 1530 c 2,2,-1
 458 1530 l 2,3,4
 684 1530 684 1530 684 1370 c 2,5,-1
 684 1367 l 2,6,7
 684 1268 684 1268 606 1200 c 1,8,9
 734 1157 734 1157 734 1034 c 2,10,-1
 734 1022 l 2,11,12
 734 716 734 716 390 716 c 0,13,14
 150 716 150 716 150 952 c 1,15,-1
 300 993 l 1,16,17
 300 828 300 828 442 828 c 128,-1,18
 584 828 584 828 584 1003 c 2,19,-1
 584 1015 l 2,20,21
 584 1108 584 1108 446 1108 c 2,22,-1
 286 1108 l 1,23,-1
 286 1222 l 1,24,25
 540 1223 540 1223 540 1346 c 2,26,-1
 540 1361 l 2,27,28
 540 1417 540 1417 444 1417 c 2,29,-1
 429 1417 l 2,30,31
 359 1417 359 1417 254 1368 c 1,32,-1
 254 1499 l 1,0,1
EndSplineSet
Validated: 19457
EndChar

StartChar: acute
Encoding: 180 180 113
Width: 792
GlyphClass: 2
Flags: W
HStem: 1037 493
VStem: 150 492
LayerCount: 2
Fore
SplineSet
256 1037 m 1,0,-1
 150 1143 l 1,1,-1
 494 1530 l 1,2,-1
 642 1382 l 1,3,-1
 256 1037 l 1,0,-1
EndSplineSet
Validated: 19457
EndChar

StartChar: uni00B5
Encoding: 181 181 114
Width: 1268
GlyphClass: 2
Flags: W
HStem: -410 21G<200 400> -20 150<444.196 676.052> 0 21G<893 1138> 1080 20G<130 375 868 1068>
VStem: 130 220<880 1100> 200 200<-410 -9 175.044 1030.97> 868 200<59.9048 300 496.077 1100>
LayerCount: 2
Fore
SplineSet
130 1100 m 1,0,-1
 350 1100 l 1,1,2
 400 979 400 979 400 800 c 2,3,-1
 400 335 l 2,4,5
 400 130 400 130 555 130 c 0,6,7
 868 130 868 130 868 1022 c 2,8,-1
 868 1100 l 1,9,-1
 1068 1100 l 1,10,-1
 1068 300 l 2,11,12
 1068 140 1068 140 1138 0 c 1,13,-1
 918 0 l 1,14,15
 868 121 868 121 868 300 c 1,16,17
 788 -20 788 -20 504 -20 c 0,18,19
 447 -20 447 -20 400 -9 c 1,20,-1
 400 -410 l 1,21,-1
 200 -410 l 1,22,-1
 200 800 l 2,23,24
 200 925 200 925 130 1100 c 1,0,-1
EndSplineSet
Validated: 19457
EndChar

StartChar: paragraph
Encoding: 182 182 115
Width: 1183
GlyphClass: 2
Flags: W
HStem: 0 21G<726 810 897 983> 1490 20G<342.5 1053>
VStem: 726 84<0 508> 897 86<0 1274.6>
LayerCount: 2
Fore
SplineSet
1053 1510 m 1,0,1
 983 1357 983 1357 983 1210 c 2,2,-1
 983 0 l 1,3,-1
 897 0 l 1,4,-1
 897 1276 l 1,5,-1
 810 1276 l 1,6,-1
 810 0 l 1,7,-1
 726 0 l 1,8,-1
 726 508 l 1,9,-1
 715 508 l 2,10,11
 130 508 130 508 130 1117 c 2,12,-1
 130 1125 l 2,13,14
 130 1510 130 1510 555 1510 c 2,15,-1
 1053 1510 l 1,0,1
EndSplineSet
Validated: 19457
EndChar

StartChar: periodcentered
Encoding: 183 183 116
Width: 552
GlyphClass: 2
Flags: W
HStem: 638 255<170.795 381.205>
VStem: 150 252<659.042 871.958>
LayerCount: 2
Fore
SplineSet
276 638 m 152,-1,1
 150 638 150 638 150 765.5 c 128,-1,2
 150 893 150 893 276 893 c 128,-1,3
 402 893 402 893 402 765.5 c 128,-1,0
 402 638 402 638 276 638 c 152,-1,1
EndSplineSet
Validated: 19457
EndChar

StartChar: cedilla
Encoding: 184 184 117
Width: 610
GlyphClass: 2
Flags: W
HStem: -430 520
VStem: 292 168<-232.172 -72.6616>
LayerCount: 2
Fore
SplineSet
245 90 m 17,0,1
 460 6 460 6 460 -159 c 0,2,3
 460 -329 460 -329 306 -430 c 9,4,-1
 150 -296 l 1,5,6
 292 -226 292 -226 292 -153.5 c 128,-1,7
 292 -81 292 -81 152 -11 c 9,8,-1
 245 90 l 17,0,1
EndSplineSet
Validated: 19457
EndChar

StartChar: uni00B9
Encoding: 185 185 118
Width: 668
GlyphClass: 2
Flags: W
HStem: 1396 114<150 267.116>
VStem: 150 233<1396.95 1510> 268 150<705 1393.77>
LayerCount: 2
Fore
SplineSet
150 1510 m 1,0,-1
 383 1510 l 1,1,2
 418 1454 418 1454 418 1335 c 2,3,-1
 418 705 l 1,4,-1
 268 705 l 1,5,-1
 268 1335 l 2,6,7
 267 1366 267 1366 261 1396 c 1,8,-1
 150 1396 l 1,9,-1
 150 1510 l 1,0,-1
EndSplineSet
Validated: 19457
EndChar

StartChar: ordmasculine
Encoding: 186 186 119
Width: 1183
GlyphClass: 2
Flags: W
HStem: 693 150<150 1033> 911 112<510.535 671.931> 1418 112<530.179 689.726>
VStem: 353 150<1033.56 1398.38> 697 150<1042.87 1408.08>
LayerCount: 2
Fore
SplineSet
596 1023 m 24,0,1
 697 1023 697 1023 697 1190 c 2,2,-1
 697 1338 l 2,3,4
 697 1418 697 1418 607 1418 c 24,5,6
 503 1418 503 1418 503 1252 c 2,7,-1
 503 1104 l 2,8,9
 503 1023 503 1023 596 1023 c 24,0,1
546 911 m 0,10,11
 353 911 353 911 353 1104 c 2,12,-1
 353 1252 l 2,13,14
 353 1530 353 1530 660 1530 c 0,15,16
 847 1530 847 1530 847 1338 c 2,17,-1
 847 1190 l 2,18,19
 847 911 847 911 546 911 c 0,10,11
1033 693 m 1,20,-1
 150 693 l 1,21,-1
 150 843 l 1,22,-1
 1033 843 l 1,23,-1
 1033 693 l 1,20,-1
EndSplineSet
Validated: 19457
EndChar

StartChar: guillemotright
Encoding: 187 187 120
Width: 1409
GlyphClass: 2
Flags: W
HStem: 124 205<200 405 736 941> 1121 280<200 480 736 1016>
DStem2: 200 1401 200 1121 0.685814 -0.727776<203.777 744.063> 200 329 200 124 0.691073 0.722785<0 550.435> 736 1401 736 1121 0.689754 -0.724044<202.732 743.043> 736 329 736 124 0.691073 0.722785<0 550.435>
LayerCount: 2
Fore
SplineSet
200 124 m 1,0,-1
 200 329 l 1,1,-1
 575 732 l 1,2,-1
 200 1121 l 1,3,-1
 200 1401 l 1,4,-1
 723 846 l 1,5,-1
 723 671 l 1,6,-1
 200 124 l 1,0,-1
736 124 m 1,7,-1
 736 329 l 1,8,-1
 1111 732 l 1,9,-1
 736 1121 l 1,10,-1
 736 1401 l 1,11,-1
 1259 852 l 1,12,-1
 1259 671 l 1,13,-1
 736 124 l 1,7,-1
EndSplineSet
Validated: 19457
EndChar

StartChar: questiondown
Encoding: 191 191 121
Width: 1388
GlyphClass: 2
Flags: W
HStem: -20 124<474.577 866.568> 808 128<480.303 614.258> 1275 255<642.795 853.205>
VStem: 160 200<214.985 655.189> 622 252<1296.04 1508.96> 644 200<958.363 1165> 1028 200<322.562 534>
LayerCount: 2
Fore
SplineSet
1228 589 m 17,0,1
 1228 -20 1228 -20 585 -20 c 0,2,3
 160 -20 160 -20 160 365 c 10,4,-1
 160 368 l 2,5,6
 160 936 160 936 550 936 c 0,7,8
 644 936 644 936 644 1165 c 9,9,-1
 844 1234 l 17,10,11
 844 808 844 808 608 808 c 0,12,13
 360 808 360 808 360 368 c 2,14,-1
 360 365 l 2,15,16
 360 104 360 104 687 104 c 0,17,18
 1028 104 1028 104 1028 534 c 9,19,-1
 1228 589 l 17,0,1
748 1530 m 152,-1,21
 874 1530 874 1530 874 1402.5 c 128,-1,22
 874 1275 874 1275 748 1275 c 128,-1,23
 622 1275 622 1275 622 1402.5 c 128,-1,20
 622 1530 622 1530 748 1530 c 152,-1,21
EndSplineSet
Validated: 19457
EndChar

StartChar: Oacute
Encoding: 211 211 122
Width: 1388
GlyphClass: 2
Flags: W
HStem: -20 124<474.577 855.25> 1406 124<532.75 913.423>
VStem: 160 200<214.985 1187.44> 1028 200<322.562 1295.01>
LayerCount: 2
Fore
SplineSet
724 1587 m 1,0,-1
 642 1667 l 1,1,-1
 886 1947 l 1,2,-1
 1010 1825 l 1,3,-1
 724 1587 l 1,0,-1
360 921 m 2,4,-1
 360 365 l 2,5,6
 360 104 360 104 687 104 c 0,7,8
 1028 104 1028 104 1028 589 c 2,9,-1
 1028 1145 l 2,10,11
 1028 1406 1028 1406 701 1406 c 0,12,13
 360 1406 360 1406 360 921 c 2,4,-1
160 921 m 18,14,15
 160 1530 160 1530 803 1530 c 0,16,17
 1228 1530 1228 1530 1228 1145 c 10,18,-1
 1228 589 l 2,19,20
 1228 -20 1228 -20 585 -20 c 0,21,22
 160 -20 160 -20 160 365 c 2,23,-1
 160 921 l 18,14,15
EndSplineSet
Validated: 19457
EndChar

StartChar: multiply
Encoding: 215 215 123
Width: 1031
GlyphClass: 2
Flags: W
HStem: 662 213<408.5 621.5>
VStem: 409 213<661.5 874.5>
DStem2: 256 1134 150 1027 0.707107 -0.707107<0.707107 366.281 517.602 883.176> 150 509 256 403 0.707673 0.70654<0.120025 366.281 517.016 883.176>
LayerCount: 2
Fore
SplineSet
774 403 m 1,0,-1
 515 662 l 1,1,-1
 256 403 l 1,2,-1
 150 509 l 1,3,-1
 409 768 l 1,4,-1
 150 1027 l 1,5,-1
 256 1134 l 1,6,-1
 515 875 l 1,7,-1
 774 1134 l 1,8,-1
 881 1027 l 1,9,-1
 622 768 l 1,10,-1
 881 509 l 1,11,-1
 774 403 l 1,0,-1
EndSplineSet
Validated: 19457
EndChar

StartChar: oacute
Encoding: 243 243 124
Width: 1188
GlyphClass: 2
Flags: W
HStem: -20 124<423.006 725.816> 996 124<462.184 764.994> 1510 20G<704.571 742.328>
VStem: 150 200<176.371 853.035> 838 200<246.965 923.629>
LayerCount: 2
Fore
SplineSet
560 1170 m 1,0,-1
 478 1250 l 1,1,-1
 722 1530 l 1,2,-1
 846 1408 l 1,3,-1
 560 1170 l 1,0,-1
350 611 m 2,4,-1
 350 315 l 2,5,6
 350 104 350 104 587 104 c 0,7,8
 838 104 838 104 838 489 c 2,9,-1
 838 785 l 2,10,11
 838 996 838 996 601 996 c 0,12,13
 350 996 350 996 350 611 c 2,4,-1
150 611 m 18,14,15
 150 1120 150 1120 703 1120 c 0,16,17
 1038 1120 1038 1120 1038 785 c 10,18,-1
 1038 489 l 2,19,20
 1038 -20 1038 -20 485 -20 c 0,21,22
 150 -20 150 -20 150 315 c 2,23,-1
 150 611 l 18,14,15
EndSplineSet
Validated: 19457
EndChar

StartChar: divide
Encoding: 247 247 125
Width: 1183
GlyphClass: 2
Flags: W
HStem: 292 255<487.795 698.205> 693 150<150 1033> 948 255<485.795 696.205>
VStem: 467 252<313.042 525.958 970.692 1180.31>
LayerCount: 2
Fore
SplineSet
591 948 m 152,-1,1
 465 948 465 948 465 1075.5 c 128,-1,2
 465 1203 465 1203 591 1203 c 128,-1,3
 717 1203 717 1203 717 1075.5 c 128,-1,0
 717 948 717 948 591 948 c 152,-1,1
593 292 m 152,-1,5
 467 292 467 292 467 419.5 c 128,-1,6
 467 547 467 547 593 547 c 128,-1,7
 719 547 719 547 719 419.5 c 128,-1,4
 719 292 719 292 593 292 c 152,-1,5
150 843 m 1,8,-1
 1033 843 l 1,9,-1
 1033 693 l 1,10,-1
 150 693 l 1,11,-1
 150 843 l 1,8,-1
EndSplineSet
Validated: 19457
EndChar

StartChar: Aogonek
Encoding: 260 260 126
Width: 1386
GlyphClass: 2
Flags: W
HStem: -430 21G<1001 1120.32> 0 21G<180 380> 719 127<380 986> 1407 123<532.206 875.654>
VStem: 180 200<0 719 846 1201.56> 902 163<-227.167 -26.3506> 986 200<80.792 719 846 1304.32>
LayerCount: 2
Fore
SplineSet
986 846 m 1,0,-1
 986 1145 l 2,1,2
 986 1407 986 1407 683 1407 c 128,-1,3
 380 1407 380 1407 380 921 c 2,4,-1
 380 846 l 1,5,-1
 986 846 l 1,0,-1
180 0 m 1,6,-1
 180 921 l 2,7,8
 180 1530 180 1530 761 1530 c 0,9,10
 1186 1530 1186 1530 1186 1145 c 2,11,-1
 1186 300 l 2,12,13
 1186 118 1186 118 1256 0 c 1,14,-1
 1136 0 l 1,15,16
 1065 -58 1065 -58 1065 -130 c 0,17,18
 1065 -235 1065 -235 1228 -304 c 1,19,-1
 1100 -430 l 1,20,21
 902 -329 902 -329 902 -134 c 0,22,23
 902 -12 902 -12 1008 78 c 1,24,25
 986 167 986 167 986 300 c 2,26,-1
 986 719 l 1,27,-1
 380 719 l 1,28,-1
 380 0 l 1,29,-1
 180 0 l 1,6,-1
EndSplineSet
Validated: 1
EndChar

StartChar: aogonek
Encoding: 261 261 127
Width: 1168
GlyphClass: 2
Flags: W
HStem: -430 21G<795 914.317> -20 150<324.081 574.843> 566 106<489.811 751> 1013 107<474.093 712.92>
VStem: 100 200<156.859 411.938> 696 163<-227.167 -26.3855> 768 200<75.1011 300 672 958.508>
LayerCount: 2
Fore
SplineSet
751 566 m 1,0,1
 300 561 300 561 300 262 c 2,2,-1
 300 247 l 2,3,4
 300 130 300 130 455 130 c 0,5,6
 601 130 601 130 687 345 c 0,7,8
 731 455 731 455 751 566 c 1,0,1
223 884 m 1,9,10
 363 1120 363 1120 664 1120 c 0,11,12
 968 1120 968 1120 968 821 c 2,13,-1
 968 300 l 2,14,15
 968 140 968 140 1038 0 c 5,16,-1
 930 0 l 5,17,18
 859 -58 859 -58 859 -130 c 4,19,20
 859 -235 859 -235 1022 -304 c 5,21,-1
 894 -430 l 5,22,23
 696 -329 696 -329 696 -134 c 4,24,25
 696 -16 696 -16 794 72 c 5,26,27
 768 171 768 171 768 300 c 5,28,29
 687 -19 687 -19 404 -20 c 1,30,31
 100 -20 100 -20 100 211 c 2,32,-1
 100 219 l 2,33,34
 100 658 100 658 765 672 c 1,35,36
 768 714 768 714 768 756 c 2,37,-1
 768 765 l 2,38,39
 768 1013 768 1013 613 1013 c 0,40,41
 446 1013 446 1013 368 825 c 1,42,-1
 223 884 l 1,9,10
EndSplineSet
Validated: 19457
EndChar

StartChar: Cacute
Encoding: 262 262 128
Width: 1388
GlyphClass: 2
Flags: W
HStem: -20 124<474.577 860.815> 1406 124<532.75 895.575>
VStem: 160 200<214.985 1187.44> 1022 202<308.3 472 1145 1285.52>
LayerCount: 2
Fore
SplineSet
724 1587 m 1,0,-1
 642 1667 l 1,1,-1
 886 1947 l 1,2,-1
 1010 1825 l 1,3,-1
 724 1587 l 1,0,-1
1224 497 m 17,4,5
 1177 -20 1177 -20 585 -20 c 0,6,7
 160 -20 160 -20 160 365 c 2,8,-1
 160 921 l 18,9,10
 160 1530 160 1530 803 1530 c 0,11,12
 1228 1530 1228 1530 1228 1145 c 9,13,-1
 1028 1090 l 17,14,15
 1028 1406 1028 1406 701 1406 c 0,16,17
 360 1406 360 1406 360 921 c 2,18,-1
 360 365 l 2,19,20
 360 104 360 104 687 104 c 0,21,22
 984 104 984 104 1022 472 c 9,23,-1
 1224 497 l 17,4,5
EndSplineSet
Validated: 19457
EndChar

StartChar: cacute
Encoding: 263 263 129
Width: 1168
GlyphClass: 2
Flags: W
HStem: -20 136<423.674 714.388> 984 136<451.836 744.282> 1510 20G<704.571 742.328>
VStem: 150 200<192.862 852.503> 808 202<229.559 349 821 922.192>
LayerCount: 2
Fore
SplineSet
560 1170 m 1,0,-1
 478 1250 l 1,1,-1
 722 1530 l 1,2,-1
 846 1408 l 1,3,-1
 560 1170 l 1,0,-1
1010 373 m 17,4,5
 950 -20 950 -20 454 -20 c 0,6,7
 150 -20 150 -20 150 279 c 2,8,-1
 150 611 l 2,9,10
 150 1120 150 1120 714 1120 c 0,11,12
 1017 1120 1017 1120 1018 821 c 9,13,-1
 818 765 l 17,14,15
 818 984 818 984 580 984 c 0,16,17
 351 984 351 984 350 611 c 2,18,-1
 350 334 l 2,19,20
 350 116 350 116 588 116 c 0,21,22
 768 116 768 116 808 349 c 9,23,-1
 1010 373 l 17,4,5
EndSplineSet
Validated: 19457
EndChar

StartChar: Eogonek
Encoding: 280 280 130
Width: 1196
GlyphClass: 2
Flags: W
HStem: -430 21G<903 1022.32> 0 127<400 838.5> 698 127<400 967> 1383 127<386 967>
VStem: 200 200<127 698 825 1379.02> 804 163<-227.167 -24.9502>
LayerCount: 2
Fore
SplineSet
130 1510 m 1,0,-1
 967 1510 l 1,1,-1
 967 1383 l 1,2,-1
 386 1383 l 1,3,4
 400 1305 400 1305 400 1210 c 2,5,-1
 400 825 l 1,6,-1
 967 825 l 1,7,-1
 967 698 l 1,8,-1
 400 698 l 1,9,-1
 400 127 l 1,10,-1
 816 127 l 2,11,12
 998 127 998 127 1116 197 c 1,13,-1
 1116 50 l 1,14,15
 967 -26 967 -26 967 -130 c 0,16,17
 967 -235 967 -235 1130 -304 c 1,18,-1
 1002 -430 l 1,19,20
 804 -329 804 -329 804 -134 c 0,21,22
 804 -61 804 -61 842 0 c 1,23,24
 829 0 829 0 816 0 c 2,25,-1
 200 0 l 1,26,-1
 200 1210 l 2,27,28
 200 1370 200 1370 130 1510 c 1,0,-1
EndSplineSet
Validated: 19457
EndChar

StartChar: eogonek
Encoding: 281 281 131
Width: 1168
GlyphClass: 2
Flags: W
HStem: -430 21G<582 701.317> -20 136<426.168 512> 984 136<451.836 868.166>
VStem: 150 200<192.862 373 539 852.503> 483 163<-227.167 -25.1309> 808 202<226.129 349>
DStem2: 350 539 350 373 0.906044 0.423182<0 516.385>
LayerCount: 2
Fore
SplineSet
350 539 m 1,0,-1
 809 753 l 1,1,2
 772 984 772 984 580 984 c 0,3,4
 351 984 351 984 350 611 c 1,5,-1
 350 539 l 1,0,-1
1010 373 m 1,6,7
 975 141 975 141 787 46 c 1,8,9
 646 -29 646 -29 646 -130 c 0,10,11
 646 -235 646 -235 809 -304 c 1,12,-1
 681 -430 l 1,13,14
 483 -329 483 -329 483 -134 c 0,15,16
 483 -72 483 -72 512 -19 c 1,17,18
 484 -20 484 -20 454 -20 c 0,19,20
 150 -20 150 -20 150 279 c 2,21,-1
 150 611 l 2,22,23
 150 1120 150 1120 714 1120 c 0,24,25
 1018 1120 1018 1120 1018 685 c 1,26,-1
 350 373 l 1,27,-1
 350 334 l 2,28,29
 350 116 350 116 588 116 c 0,30,31
 770 116 770 116 808 349 c 1,32,-1
 1010 373 l 1,6,7
EndSplineSet
Validated: 19457
EndChar

StartChar: Lslash
Encoding: 321 321 132
Width: 1041
GlyphClass: 2
Flags: W
HStem: 0 127<400 979.451> 1100 20G<734.273 773> 1490 20G<130 375>
VStem: 200 200<127 557 743 1457.99>
DStem2: 400 743 400 557 0.683582 0.729874<0 512.301>
LayerCount: 2
Fore
SplineSet
130 1510 m 1,0,-1
 350 1510 l 1,1,2
 400 1411 400 1411 400 1210 c 2,3,-1
 400 743 l 1,4,-1
 753 1120 l 1,5,-1
 843 1030 l 1,6,-1
 400 557 l 1,7,-1
 400 127 l 1,8,-1
 731 127 l 2,9,10
 913 127 913 127 1031 197 c 1,11,-1
 1031 50 l 1,12,13
 910 0 910 0 731 0 c 2,14,-1
 200 0 l 1,15,-1
 200 1210 l 2,16,17
 200 1392 200 1392 130 1510 c 1,0,-1
EndSplineSet
Validated: 19457
EndChar

StartChar: lslash
Encoding: 322 322 133
Width: 751
GlyphClass: 2
Flags: W
HStem: 0 21G<301 546> 1100 20G<632.283 671> 1490 20G<206 451>
VStem: 276 200<59.9048 532 718 747 933 1450.1>
DStem2: 10 434 100 344 0.682736 0.730666<0 253.213 682.757 934.556>
LayerCount: 2
Fore
SplineSet
206 1510 m 1,0,-1
 426 1510 l 1,1,2
 476 1389 476 1389 476 1210 c 2,3,-1
 476 933 l 1,4,-1
 651 1120 l 1,5,-1
 741 1030 l 1,6,-1
 476 747 l 1,7,-1
 476 300 l 2,8,9
 476 140 476 140 546 0 c 1,10,-1
 326 0 l 1,11,12
 276 121 276 121 276 300 c 2,13,-1
 276 532 l 1,14,-1
 100 344 l 1,15,-1
 10 434 l 1,16,-1
 276 718 l 1,17,-1
 276 1210 l 2,18,19
 276 1370 276 1370 206 1510 c 1,0,-1
EndSplineSet
Validated: 19457
EndChar

StartChar: Sacute
Encoding: 346 346 134
Width: 1388
GlyphClass: 2
Flags: W
HStem: -20 124<492.425 870.19> 745 151<505.786 918.707> 1406 124<511.642 873.847>
VStem: 160 200<234.16 365> 200 200<993.276 1277.07> 988 200<1145 1285.52> 1028 200<297.25 646.83>
LayerCount: 2
Fore
SplineSet
724 1587 m 1,0,-1
 642 1667 l 1,1,-1
 886 1947 l 1,2,-1
 1010 1825 l 1,3,-1
 724 1587 l 1,0,-1
160 365 m 9,4,-1
 360 420 l 17,5,6
 360 104 360 104 687 104 c 0,7,8
 1028 104 1028 104 1028 505 c 2,9,-1
 1028 507 l 2,10,11
 1028 745 1028 745 701 745 c 0,12,13
 200 745 200 745 200 1058 c 10,14,-1
 200 1061 l 2,15,16
 200 1530 200 1530 803 1530 c 0,17,18
 1188 1530 1188 1530 1188 1145 c 9,19,-1
 988 1090 l 17,20,21
 988 1406 988 1406 701 1406 c 0,22,23
 400 1406 400 1406 400 1130 c 2,24,-1
 400 1127 l 2,25,26
 400 896 400 896 724 896 c 0,27,28
 1228 896 1228 896 1228 546 c 10,29,-1
 1228 544 l 2,30,31
 1228 -20 1228 -20 585 -20 c 0,32,33
 160 -20 160 -20 160 365 c 9,4,-1
EndSplineSet
Validated: 19457
EndChar

StartChar: sacute
Encoding: 347 347 135
Width: 1168
GlyphClass: 2
Flags: W
HStem: -20 136<423.674 740.147> 536 139<425.059 758.601> 984 136<444.786 846.676> 1510 20G<704.571 742.328>
VStem: 150 200<192.862 279> 190 200<711.328 929.085> 778 200<820 921.91> 818 200<191.948 476.293>
LayerCount: 2
Fore
SplineSet
560 1170 m 1,0,-1
 478 1250 l 1,1,-1
 722 1530 l 1,2,-1
 846 1408 l 1,3,-1
 560 1170 l 1,0,-1
150 279 m 9,4,-1
 350 334 l 17,5,6
 350 116 350 116 588 116 c 0,7,8
 818 116 818 116 818 356 c 2,9,-1
 818 358 l 2,10,11
 818 536 818 536 591 536 c 0,12,13
 190 536 190 536 190 765 c 2,14,-1
 190 766 l 2,15,16
 190 1120 190 1120 714 1120 c 0,17,18
 978 1120 978 1120 978 820 c 9,19,-1
 778 764 l 17,20,21
 778 984 778 984 580 984 c 8,22,23
 390 984 390 984 390 796 c 2,24,-1
 390 794 l 2,25,26
 390 675 390 675 593 675 c 0,27,28
 1018 675 1018 675 1018 374 c 2,29,-1
 1018 373 l 2,30,31
 1018 -20 1018 -20 454 -20 c 0,32,33
 150 -20 150 -20 150 279 c 9,4,-1
EndSplineSet
Validated: 19457
EndChar

StartChar: Zacute
Encoding: 377 377 136
Width: 1273
GlyphClass: 2
Flags: W
HStem: 0 127<317 1133.1> 1383 127<233.053 928>
DStem2: 80 127 317 127 0.559564 0.828787<132.617 1515.47>
LayerCount: 2
Fore
SplineSet
684 1587 m 1,0,-1
 602 1667 l 1,1,-1
 846 1947 l 1,2,-1
 970 1825 l 1,3,-1
 684 1587 l 1,0,-1
176 1460 m 17,4,5
 314 1510 314 1510 476 1510 c 2,6,-1
 1165 1510 l 1,7,-1
 1165 1383 l 1,8,-1
 317 127 l 1,9,-1
 893 127 l 2,10,11
 1053 127 1053 127 1193 197 c 9,12,-1
 1193 50 l 17,13,14
 1072 0 1072 0 893 0 c 2,15,-1
 80 0 l 1,16,-1
 80 127 l 1,17,-1
 928 1383 l 1,18,-1
 476 1383 l 2,19,20
 308 1383 308 1383 176 1313 c 9,21,-1
 176 1460 l 17,4,5
EndSplineSet
Validated: 19457
EndChar

StartChar: zacute
Encoding: 378 378 137
Width: 993
GlyphClass: 2
Flags: W
HStem: 0 127<304 853.095> 973 127<179.905 660> 1510 20G<674.571 712.328>
DStem2: 80 127 304 127 0.565453 0.824781<126.661 1025.73>
LayerCount: 2
Fore
SplineSet
530 1170 m 1,0,-1
 448 1250 l 1,1,-1
 692 1530 l 1,2,-1
 816 1408 l 1,3,-1
 530 1170 l 1,0,-1
120 1050 m 17,4,5
 241 1100 241 1100 420 1100 c 2,6,-1
 884 1100 l 1,7,-1
 884 973 l 1,8,-1
 304 127 l 1,9,-1
 613 127 l 2,10,11
 773 127 773 127 913 197 c 9,12,-1
 913 50 l 17,13,14
 792 0 792 0 613 0 c 2,15,-1
 80 0 l 1,16,-1
 80 127 l 1,17,-1
 660 973 l 1,18,-1
 420 973 l 2,19,20
 260 973 260 973 120 903 c 9,21,-1
 120 1050 l 17,4,5
EndSplineSet
Validated: 19457
EndChar

StartChar: Zdotaccent
Encoding: 379 379 138
Width: 1273
GlyphClass: 2
Flags: W
HStem: 0 127<317 1133.1> 1383 127<233.053 928> 1692 255<610.795 821.205>
VStem: 590 252<1713.04 1925.96>
DStem2: 80 127 317 127 0.559564 0.828787<132.617 1515.47>
LayerCount: 2
Fore
SplineSet
716 1692 m 152,-1,1
 590 1692 590 1692 590 1819.5 c 128,-1,2
 590 1947 590 1947 716 1947 c 128,-1,3
 842 1947 842 1947 842 1819.5 c 128,-1,0
 842 1692 842 1692 716 1692 c 152,-1,1
176 1460 m 17,4,5
 314 1510 314 1510 476 1510 c 2,6,-1
 1165 1510 l 1,7,-1
 1165 1383 l 1,8,-1
 317 127 l 1,9,-1
 893 127 l 2,10,11
 1053 127 1053 127 1193 197 c 9,12,-1
 1193 50 l 17,13,14
 1072 0 1072 0 893 0 c 2,15,-1
 80 0 l 1,16,-1
 80 127 l 1,17,-1
 928 1383 l 1,18,-1
 476 1383 l 2,19,20
 308 1383 308 1383 176 1313 c 9,21,-1
 176 1460 l 17,4,5
EndSplineSet
Validated: 19457
EndChar

StartChar: zdotaccent
Encoding: 380 380 139
Width: 993
GlyphClass: 2
Flags: W
HStem: 0 127<304 853.095> 973 127<179.905 660> 1275 255<423.795 634.205>
VStem: 403 252<1296.04 1508.96>
DStem2: 80 127 304 127 0.565453 0.824781<126.661 1025.73>
LayerCount: 2
Fore
SplineSet
529 1275 m 152,-1,1
 403 1275 403 1275 403 1402.5 c 128,-1,2
 403 1530 403 1530 529 1530 c 128,-1,3
 655 1530 655 1530 655 1402.5 c 128,-1,0
 655 1275 655 1275 529 1275 c 152,-1,1
120 1050 m 17,4,5
 241 1100 241 1100 420 1100 c 2,6,-1
 884 1100 l 1,7,-1
 884 973 l 1,8,-1
 304 127 l 1,9,-1
 613 127 l 2,10,11
 773 127 773 127 913 197 c 9,12,-1
 913 50 l 17,13,14
 792 0 792 0 613 0 c 2,15,-1
 80 0 l 1,16,-1
 80 127 l 1,17,-1
 660 973 l 1,18,-1
 420 973 l 2,19,20
 260 973 260 973 120 903 c 9,21,-1
 120 1050 l 17,4,5
EndSplineSet
Validated: 19457
EndChar

StartChar: florin
Encoding: 402 402 140
Width: 851
GlyphClass: 2
Flags: W
HStem: -430 128<20 68.4375> 705 127<420 720> 1394 136<521.611 812.646>
VStem: 220 200<-45.957 676 832 1262.5>
LayerCount: 2
Fore
SplineSet
20 -302 m 1,0,1
 220 -181 220 -181 220 319 c 2,2,-1
 220 676 l 1,3,4
 168 661 168 661 113 635 c 1,5,-1
 113 782 l 1,6,7
 173 805 173 805 220 817 c 1,8,-1
 220 1021 l 2,9,10
 220 1530 220 1530 784 1530 c 0,11,12
 814 1530 814 1530 841 1527 c 1,13,-1
 805 1358 l 1,14,15
 748 1394 748 1394 650 1394 c 0,16,17
 420 1394 420 1394 420 1021 c 2,18,-1
 420 832 l 1,19,-1
 720 832 l 1,20,-1
 720 705 l 1,21,-1
 420 705 l 1,22,-1
 420 319 l 2,23,24
 420 -331 420 -331 20 -430 c 1,25,-1
 20 -302 l 1,0,1
EndSplineSet
Validated: 19457
EndChar

StartChar: uni01E4
Encoding: 484 484 141
Width: 1388
GlyphClass: 2
Flags: W
HStem: -20 124<474.577 859.748> 307 127<692 985 1216 1298> 635 127<737.549 1028> 1406 124<532.75 895.575>
VStem: 160 200<214.985 1187.44> 1028 200<434 635 1145 1275.84>
LayerCount: 2
Fore
SplineSet
1228 762 m 1,0,-1
 1228 589 l 2,1,2
 1228 506 1228 506 1216 434 c 1,3,-1
 1298 434 l 1,4,-1
 1298 307 l 1,5,-1
 1182 307 l 1,6,7
 1056 -20 1056 -20 585 -20 c 0,8,9
 160 -20 160 -20 160 365 c 2,10,-1
 160 921 l 2,11,12
 160 1530 160 1530 803 1530 c 0,13,14
 1228 1530 1228 1530 1228 1145 c 1,15,-1
 1028 1090 l 1,16,17
 1028 1406 1028 1406 701 1406 c 0,18,19
 360 1406 360 1406 360 921 c 2,20,-1
 360 365 l 2,21,22
 360 104 360 104 687 104 c 0,23,24
 908 104 908 104 985 307 c 1,25,-1
 692 307 l 1,26,-1
 692 434 l 1,27,-1
 1018 434 l 1,28,29
 1028 504 1028 504 1028 589 c 2,30,-1
 1028 635 l 1,31,-1
 986 635 l 2,32,33
 804 635 804 635 686 565 c 1,34,-1
 686 712 l 1,35,36
 807 762 807 762 986 762 c 2,37,-1
 1228 762 l 1,0,-1
EndSplineSet
Validated: 19457
EndChar

StartChar: uni01E5
Encoding: 485 485 142
Width: 1188
GlyphClass: 2
Flags: W
HStem: -430 107<401.739 647.434> -20 150<396.708 626.33> 491 127<532 782.816 1018 1138> 984 136<451.611 744.326>
VStem: 150 200<177.387 852.503> 818 200<0.329102 300 618 907.138>
LayerCount: 2
Fore
SplineSet
175 -277 m 1,0,-1
 370 -221 l 1,1,2
 405 -323 405 -323 505 -323 c 0,3,4
 818 -323 818 -323 818 300 c 1,5,6
 737 -20 737 -20 454 -20 c 0,7,8
 150 -20 150 -20 150 279 c 2,9,-1
 150 611 l 2,10,11
 150 1120 150 1120 714 1120 c 0,12,13
 1018 1120 1018 1120 1018 821 c 2,14,-1
 1018 618 l 1,15,-1
 1138 618 l 1,16,-1
 1138 491 l 1,17,-1
 1018 491 l 1,18,-1
 1018 403 l 2,19,20
 1018 -430 1018 -430 454 -430 c 0,21,22
 235 -430 235 -430 175 -277 c 1,0,-1
580 984 m 0,23,24
 350 984 350 984 350 611 c 2,25,-1
 350 335 l 2,26,27
 350 130 350 130 505 130 c 0,28,29
 657 130 657 130 737 345 c 0,30,31
 765 420 765 420 783 491 c 1,32,-1
 532 491 l 1,33,-1
 532 618 l 1,34,-1
 808 618 l 1,35,36
 818 689 818 689 818 756 c 2,37,-1
 818 765 l 2,38,39
 818 984 818 984 580 984 c 0,23,24
EndSplineSet
Validated: 19457
EndChar

StartChar: Scommaaccent
Encoding: 536 536 143
Width: 1388
GlyphClass: 2
Flags: W
HStem: -430 21G<581.672 619.429> -20 124<492.425 870.19> 745 151<505.786 918.707> 1406 124<511.642 873.847>
VStem: 160 200<234.16 365> 200 200<993.276 1277.07> 988 200<1145 1285.52> 1028 200<297.25 646.83>
LayerCount: 2
Fore
SplineSet
764 -70 m 1,0,-1
 846 -150 l 1,1,-1
 602 -430 l 1,2,-1
 478 -308 l 1,3,-1
 764 -70 l 1,0,-1
160 365 m 9,4,-1
 360 420 l 17,5,6
 360 104 360 104 687 104 c 0,7,8
 1028 104 1028 104 1028 505 c 2,9,-1
 1028 507 l 2,10,11
 1028 745 1028 745 701 745 c 0,12,13
 200 745 200 745 200 1058 c 10,14,-1
 200 1061 l 2,15,16
 200 1530 200 1530 803 1530 c 0,17,18
 1188 1530 1188 1530 1188 1145 c 9,19,-1
 988 1090 l 17,20,21
 988 1406 988 1406 701 1406 c 0,22,23
 400 1406 400 1406 400 1130 c 2,24,-1
 400 1127 l 2,25,26
 400 896 400 896 724 896 c 0,27,28
 1228 896 1228 896 1228 546 c 10,29,-1
 1228 544 l 2,30,31
 1228 -20 1228 -20 585 -20 c 0,32,33
 160 -20 160 -20 160 365 c 9,4,-1
EndSplineSet
Validated: 19457
EndChar

StartChar: scommaaccent
Encoding: 537 537 144
Width: 1168
GlyphClass: 2
Flags: W
HStem: -430 21G<571.672 609.429> -20 136<423.674 740.147> 536 139<425.059 758.601> 984 136<444.786 846.676>
VStem: 150 200<192.862 279> 190 200<711.328 929.085> 778 200<820 921.91> 818 200<191.948 476.293>
LayerCount: 2
Fore
SplineSet
754 -70 m 1,0,-1
 836 -150 l 1,1,-1
 592 -430 l 1,2,-1
 468 -308 l 1,3,-1
 754 -70 l 1,0,-1
150 279 m 9,4,-1
 350 334 l 17,5,6
 350 116 350 116 588 116 c 0,7,8
 818 116 818 116 818 356 c 2,9,-1
 818 358 l 2,10,11
 818 536 818 536 591 536 c 0,12,13
 190 536 190 536 190 765 c 2,14,-1
 190 766 l 2,15,16
 190 1120 190 1120 714 1120 c 0,17,18
 978 1120 978 1120 978 820 c 9,19,-1
 778 764 l 17,20,21
 778 984 778 984 580 984 c 8,22,23
 390 984 390 984 390 796 c 2,24,-1
 390 794 l 2,25,26
 390 675 390 675 593 675 c 0,27,28
 1018 675 1018 675 1018 374 c 2,29,-1
 1018 373 l 2,30,31
 1018 -20 1018 -20 454 -20 c 0,32,33
 150 -20 150 -20 150 279 c 9,4,-1
EndSplineSet
Validated: 19457
EndChar

StartChar: uni021A
Encoding: 538 538 145
Width: 1040
GlyphClass: 2
Flags: W
HStem: -430 21G<328.672 366.429> 0 21G<420 620> 1383 127<62.1968 420 620 1030>
VStem: 420 200<0 1383>
LayerCount: 2
Fore
SplineSet
511 -70 m 1,0,-1
 593 -150 l 1,1,-1
 349 -430 l 1,2,-1
 225 -308 l 1,3,-1
 511 -70 l 1,0,-1
10 1460 m 1,4,5
 79 1510 79 1510 310 1510 c 2,6,-1
 1030 1510 l 25,7,-1
 1030 1383 l 25,8,-1
 620 1383 l 1,9,-1
 620 0 l 1,10,-1
 420 0 l 1,11,-1
 420 1383 l 1,12,-1
 310 1383 l 2,13,14
 133 1383 133 1383 10 1313 c 1,15,-1
 10 1460 l 1,4,5
EndSplineSet
Validated: 19457
EndChar

StartChar: uni021B
Encoding: 539 539 146
Width: 820
GlyphClass: 2
Flags: W
HStem: -430 21G<255.672 293.429> 0 21G<335 580> 973 127<69.9048 310 510 810> 1490 20G<240 485>
VStem: 310 200<59.9048 973 1100 1450.1>
LayerCount: 2
Fore
SplineSet
438 -70 m 1,0,-1
 520 -150 l 1,1,-1
 276 -430 l 1,2,-1
 152 -308 l 1,3,-1
 438 -70 l 1,0,-1
240 1510 m 9,4,-1
 460 1510 l 17,5,6
 510 1389 510 1389 510 1210 c 2,7,-1
 510 1100 l 1,8,9
 660 1100 660 1100 810 1100 c 25,10,-1
 810 973 l 25,11,-1
 510 973 l 17,12,-1
 510 300 l 2,13,14
 510 140 510 140 580 0 c 9,15,-1
 360 0 l 17,16,17
 310 121 310 121 310 300 c 2,18,-1
 310 973 l 1,19,20
 150 973 150 973 10 903 c 9,21,-1
 10 1050 l 17,22,23
 131 1100 131 1100 310 1100 c 1,24,-1
 310 1210 l 2,25,26
 310 1370 310 1370 240 1510 c 9,4,-1
EndSplineSet
Validated: 19457
EndChar

StartChar: Delta
Encoding: 916 916 147
Width: 1237
GlyphClass: 2
Flags: W
HStem: 0 117<186 978> 1490 20G<514.232 722.768>
DStem2: 716 1510 580 1327 0.320553 -0.947231<129.748 1403.48>
LayerCount: 2
Fore
SplineSet
10 0 m 1,0,-1
 521 1510 l 1,1,-1
 716 1510 l 1,2,-1
 1227 0 l 1,3,-1
 10 0 l 1,0,-1
580 1327 m 1,4,-1
 186 117 l 1,5,-1
 978 117 l 1,6,-1
 580 1327 l 1,4,-1
EndSplineSet
Validated: 19457
EndChar

StartChar: Pi
Encoding: 928 928 148
Width: 1406
GlyphClass: 2
Flags: W
HStem: 0 21G<200 400 1031 1276> 1383 127<388 1006>
VStem: 200 200<0 1380.67> 1006 200<52.2949 1383>
LayerCount: 2
Fore
SplineSet
130 1510 m 1,0,-1
 1206 1510 l 1,1,-1
 1206 300 l 2,2,3
 1206 118 1206 118 1276 0 c 1,4,-1
 1056 0 l 1,5,6
 1006 111 1006 111 1006 300 c 2,7,-1
 1006 1383 l 1,8,-1
 388 1383 l 1,9,10
 400 1309 400 1309 400 1210 c 2,11,-1
 400 0 l 1,12,-1
 200 0 l 1,13,-1
 200 1210 l 2,14,15
 200 1392 200 1392 130 1510 c 1,0,-1
EndSplineSet
Validated: 19457
EndChar

StartChar: Sigma
Encoding: 931 931 149
Width: 1408
GlyphClass: 2
Flags: W
HStem: 0 127<483 1206.45> 1383 127<481 1169>
DStem2: 481 1383 150 1510 0.615111 -0.788441<0 642.438> 151 0 483 127 0.605321 0.795981<302.056 959.821>
LayerCount: 2
Fore
SplineSet
150 1510 m 1,0,-1
 1169 1510 l 17,1,-1
 1169 1383 l 9,2,-1
 481 1383 l 1,3,-1
 973 760 l 1,4,-1
 483 127 l 1,5,-1
 958 127 l 2,6,7
 1140 127 1140 127 1258 197 c 1,8,-1
 1258 50 l 1,9,10
 1137 0 1137 0 958 0 c 2,11,-1
 151 0 l 1,12,-1
 732 764 l 1,13,-1
 150 1510 l 1,0,-1
EndSplineSet
Validated: 19457
EndChar

StartChar: Omega
Encoding: 937 937 150
Width: 1448
GlyphClass: 2
Flags: W
HStem: 0 127<244.251 447 1001 1203.75> 50 147<160 307 1141 1288> 1406 124<562.75 943.423>
VStem: 190 200<455.38 1187.44> 447 127<127 256.747> 874 127<127 301.539> 1058 200<532.515 1295.01>
LayerCount: 2
Fore
SplineSet
160 197 m 1,0,1
 377 127 377 127 447 127 c 1,2,-1
 447 245 l 1,3,4
 190 311 190 311 190 612 c 2,5,-1
 190 921 l 2,6,7
 190 1530 190 1530 833 1530 c 0,8,9
 1258 1530 1258 1530 1258 1145 c 2,10,-1
 1258 807 l 2,11,12
 1258 419 1258 419 1001 278 c 1,13,-1
 1001 127 l 1,14,15
 1071 127 1071 127 1288 197 c 1,16,-1
 1288 50 l 1,17,18
 1167 0 1167 0 1001 0 c 2,19,-1
 874 0 l 1,20,-1
 874 354 l 1,21,22
 1058 447 1058 447 1058 807 c 2,23,-1
 1058 1145 l 2,24,25
 1058 1406 1058 1406 731 1406 c 0,26,27
 390 1406 390 1406 390 921 c 2,28,-1
 390 612 l 2,29,30
 390 414 390 414 574 366 c 1,31,-1
 574 0 l 1,32,-1
 447 0 l 2,33,34
 281 0 281 0 160 50 c 1,35,-1
 160 197 l 1,0,1
EndSplineSet
Validated: 19457
EndChar

StartChar: mu
Encoding: 956 956 151
Width: 1268
GlyphClass: 2
Flags: W
HStem: -410 21G<200 400> -20 150<444.196 676.052> 0 21G<893 1138> 1080 20G<130 375 868 1068>
VStem: 130 220<880 1100> 200 200<-410 -9 175.044 1030.97> 868 200<59.9048 300 496.077 1100>
LayerCount: 2
Fore
SplineSet
130 1100 m 1,0,-1
 350 1100 l 1,1,2
 400 979 400 979 400 800 c 2,3,-1
 400 335 l 2,4,5
 400 130 400 130 555 130 c 0,6,7
 868 130 868 130 868 1022 c 2,8,-1
 868 1100 l 1,9,-1
 1068 1100 l 1,10,-1
 1068 300 l 2,11,12
 1068 140 1068 140 1138 0 c 1,13,-1
 918 0 l 1,14,15
 868 121 868 121 868 300 c 1,16,17
 788 -20 788 -20 504 -20 c 0,18,19
 447 -20 447 -20 400 -9 c 1,20,-1
 400 -410 l 1,21,-1
 200 -410 l 1,22,-1
 200 800 l 2,23,24
 200 925 200 925 130 1100 c 1,0,-1
EndSplineSet
Validated: 19457
EndChar

StartChar: pi
Encoding: 960 960 152
Width: 1268
GlyphClass: 2
Flags: W
HStem: 0 21G<200 400 893 1138> 973 127<388 868>
VStem: 200 200<0 969.789> 868 200<45.0747 973>
LayerCount: 2
Fore
SplineSet
130 1100 m 1,0,-1
 1068 1100 l 1,1,-1
 1068 300 l 2,2,3
 1068 101 1068 101 1138 0 c 1,4,-1
 918 0 l 1,5,6
 868 98 868 98 868 300 c 2,7,-1
 868 973 l 1,8,-1
 388 973 l 1,9,10
 400 899 400 899 400 800 c 2,11,-1
 400 0 l 1,12,-1
 200 0 l 1,13,-1
 200 800 l 2,14,15
 200 999 200 999 130 1100 c 1,0,-1
EndSplineSet
Validated: 19457
EndChar

StartChar: uni2010
Encoding: 8208 8208 153
Width: 1133
GlyphClass: 2
Flags: W
HStem: 692 150<185 948>
LayerCount: 2
Fore
SplineSet
948 692 m 1,0,-1
 185 692 l 1,1,-1
 185 842 l 1,2,-1
 948 842 l 1,3,-1
 948 692 l 1,0,-1
EndSplineSet
Validated: 19457
EndChar

StartChar: uni2011
Encoding: 8209 8209 154
Width: 1133
GlyphClass: 2
Flags: W
HStem: 692 150<185 948>
LayerCount: 2
Fore
SplineSet
948 692 m 1,0,-1
 185 692 l 1,1,-1
 185 842 l 1,2,-1
 948 842 l 1,3,-1
 948 692 l 1,0,-1
EndSplineSet
Validated: 19457
EndChar

StartChar: figuredash
Encoding: 8210 8210 155
Width: 1183
GlyphClass: 2
Flags: W
HStem: 693 150<150 1033>
LayerCount: 2
Fore
SplineSet
1033 693 m 1,0,-1
 150 693 l 1,1,-1
 150 843 l 1,2,-1
 1033 843 l 1,3,-1
 1033 693 l 1,0,-1
EndSplineSet
Validated: 19457
EndChar

StartChar: endash
Encoding: 8211 8211 156
Width: 1183
GlyphClass: 2
Flags: W
HStem: 693 150<150 1033>
LayerCount: 2
Fore
SplineSet
1033 693 m 1,0,-1
 150 693 l 1,1,-1
 150 843 l 1,2,-1
 1033 843 l 1,3,-1
 1033 693 l 1,0,-1
EndSplineSet
Validated: 19457
EndChar

StartChar: emdash
Encoding: 8212 8212 157
Width: 1133
GlyphClass: 2
Flags: W
HStem: 696 150<25 1108>
LayerCount: 2
Fore
SplineSet
1108 696 m 1,0,-1
 25 696 l 1,1,-1
 25 846 l 1,2,-1
 1108 846 l 1,3,-1
 1108 696 l 1,0,-1
EndSplineSet
Validated: 19457
EndChar

StartChar: afii00208
Encoding: 8213 8213 158
Width: 1133
GlyphClass: 2
Flags: W
HStem: 696 150<25 1108>
LayerCount: 2
Fore
SplineSet
1108 696 m 1,0,-1
 25 696 l 1,1,-1
 25 846 l 1,2,-1
 1108 846 l 1,3,-1
 1108 696 l 1,0,-1
EndSplineSet
Validated: 19457
EndChar

StartChar: underscoredbl
Encoding: 8215 8215 159
Width: 1183
GlyphClass: 2
Flags: W
HStem: -410 150<150 1033> -170 150<150 1033>
LayerCount: 2
Fore
SplineSet
1033 -170 m 1,0,-1
 150 -170 l 1,1,-1
 150 -20 l 1,2,-1
 1033 -20 l 1,3,-1
 1033 -170 l 1,0,-1
1033 -410 m 1,4,-1
 150 -410 l 1,5,-1
 150 -260 l 1,6,-1
 1033 -260 l 1,7,-1
 1033 -410 l 1,4,-1
EndSplineSet
Validated: 19457
EndChar

StartChar: quoteleft
Encoding: 8216 8216 160
Width: 610
GlyphClass: 2
Flags: W
HStem: 874 656
VStem: 150 185<1072.2 1358.14>
LayerCount: 2
Fore
SplineSet
367 1530 m 9,0,-1
 460 1429 l 17,1,2
 335 1354 335 1354 335 1215 c 0,3,4
 335 1074 335 1074 452 1008 c 1,5,-1
 296 874 l 17,6,7
 150 978 150 978 150 1189.5 c 128,-1,8
 150 1401 150 1401 367 1530 c 9,0,-1
EndSplineSet
Validated: 19457
EndChar

StartChar: quoteright
Encoding: 8217 8217 161
Width: 610
GlyphClass: 2
Flags: W
HStem: 874 656
VStem: 275 185<1045.86 1331.8>
LayerCount: 2
Fore
SplineSet
314 1530 m 17,0,1
 460 1426 460 1426 460 1214.5 c 128,-1,2
 460 1003 460 1003 243 874 c 9,3,-1
 150 975 l 17,4,5
 275 1050 275 1050 275 1189 c 0,6,7
 275 1330 275 1330 158 1396 c 1,8,-1
 314 1530 l 17,0,1
EndSplineSet
Validated: 19457
EndChar

StartChar: quotesinglbase
Encoding: 8218 8218 162
Width: 610
GlyphClass: 2
Flags: W
HStem: -366 656
VStem: 275 185<-194.136 91.7985>
LayerCount: 2
Fore
SplineSet
314 290 m 17,0,1
 460 186 460 186 460 -25.5 c 128,-1,2
 460 -237 460 -237 243 -366 c 9,3,-1
 150 -265 l 17,4,5
 275 -190 275 -190 275 -51 c 0,6,7
 275 90 275 90 158 156 c 1,8,-1
 314 290 l 17,0,1
EndSplineSet
Validated: 19457
EndChar

StartChar: quotereversed
Encoding: 8219 8219 163
Width: 610
GlyphClass: 2
Flags: W
HStem: 874 656
VStem: 150 185<1045.86 1331.8>
LayerCount: 2
Fore
SplineSet
296 1530 m 9,0,1
 452 1396 l 1,2,3
 335 1330 335 1330 335 1189 c 0,4,5
 335 1050 335 1050 460 975 c 9,6,-1
 367 874 l 0,7,8
 150 1003 150 1003 150 1214.5 c 128,-1,9
 150 1426 150 1426 296 1530 c 9,0,1
EndSplineSet
Validated: 19457
EndChar

StartChar: quotedblleft
Encoding: 8220 8220 164
Width: 967
GlyphClass: 2
Flags: W
HStem: 874 656
VStem: 150 185<1072.2 1358.14> 507 185<1072.2 1358.14>
LayerCount: 2
Fore
SplineSet
367 1530 m 9,0,-1
 460 1429 l 17,1,2
 335 1354 335 1354 335 1215 c 0,3,4
 335 1074 335 1074 452 1008 c 1,5,-1
 296 874 l 17,6,7
 150 978 150 978 150 1189.5 c 128,-1,8
 150 1401 150 1401 367 1530 c 9,0,-1
724 1530 m 9,9,-1
 817 1429 l 17,10,11
 692 1354 692 1354 692 1215 c 0,12,13
 692 1074 692 1074 809 1008 c 1,14,-1
 653 874 l 17,15,16
 507 978 507 978 507 1189.5 c 128,-1,17
 507 1401 507 1401 724 1530 c 9,9,-1
EndSplineSet
Validated: 19457
EndChar

StartChar: quotedblright
Encoding: 8221 8221 165
Width: 967
GlyphClass: 2
Flags: W
HStem: 874 656
VStem: 275 185<1045.86 1331.8> 632 185<1045.86 1331.8>
LayerCount: 2
Fore
SplineSet
671 1530 m 17,0,1
 817 1426 817 1426 817 1214.5 c 128,-1,2
 817 1003 817 1003 600 874 c 9,3,-1
 507 975 l 17,4,5
 632 1050 632 1050 632 1189 c 0,6,7
 632 1330 632 1330 515 1396 c 1,8,-1
 671 1530 l 17,0,1
314 1530 m 17,9,10
 460 1426 460 1426 460 1214.5 c 128,-1,11
 460 1003 460 1003 243 874 c 9,12,-1
 150 975 l 17,13,14
 275 1050 275 1050 275 1189 c 0,15,16
 275 1330 275 1330 158 1396 c 1,17,-1
 314 1530 l 17,9,10
EndSplineSet
Validated: 19457
EndChar

StartChar: quotedblbase
Encoding: 8222 8222 166
Width: 967
GlyphClass: 2
Flags: W
HStem: -366 656
VStem: 275 185<-194.136 91.7985> 632 185<-194.136 91.7985>
LayerCount: 2
Fore
SplineSet
671 290 m 17,0,1
 817 186 817 186 817 -25.5 c 128,-1,2
 817 -237 817 -237 600 -366 c 9,3,-1
 507 -265 l 17,4,5
 632 -190 632 -190 632 -51 c 0,6,7
 632 90 632 90 515 156 c 1,8,-1
 671 290 l 17,0,1
314 290 m 17,9,10
 460 186 460 186 460 -25.5 c 128,-1,11
 460 -237 460 -237 243 -366 c 9,12,-1
 150 -265 l 17,13,14
 275 -190 275 -190 275 -51 c 0,15,16
 275 90 275 90 158 156 c 1,17,-1
 314 290 l 17,9,10
EndSplineSet
Validated: 19457
EndChar

StartChar: uni201F
Encoding: 8223 8223 167
Width: 967
GlyphClass: 2
Flags: W
HStem: 874 656
VStem: 150 185<1045.86 1331.8> 507 185<1045.86 1331.8>
LayerCount: 2
Fore
SplineSet
296 1530 m 9,0,1
 452 1396 l 1,2,3
 335 1330 335 1330 335 1189 c 0,4,5
 335 1050 335 1050 460 975 c 9,6,-1
 367 874 l 17,7,8
 150 1003 150 1003 150 1214.5 c 128,-1,9
 150 1426 150 1426 296 1530 c 9,0,1
653 1530 m 9,10,-1
 809 1396 l 1,11,12
 692 1330 692 1330 692 1189 c 0,13,14
 692 1050 692 1050 817 975 c 9,15,-1
 724 874 l 17,16,17
 507 1003 507 1003 507 1214.5 c 128,-1,18
 507 1426 507 1426 653 1530 c 9,10,-1
EndSplineSet
Validated: 19457
EndChar

StartChar: dagger
Encoding: 8224 8224 168
Width: 1183
GlyphClass: 2
Flags: W
HStem: 0 21G<492 692> 1019 150<150 492 692 1033> 1490 20G<492 692>
VStem: 492 200<0 1019 1169 1510>
LayerCount: 2
Fore
SplineSet
492 0 m 1,0,-1
 492 1019 l 1,1,-1
 150 1019 l 1,2,-1
 150 1169 l 1,3,-1
 492 1169 l 1,4,-1
 492 1510 l 1,5,-1
 692 1510 l 1,6,-1
 692 1169 l 1,7,-1
 1033 1169 l 1,8,-1
 1033 1019 l 1,9,-1
 692 1019 l 1,10,-1
 692 0 l 1,11,-1
 492 0 l 1,0,-1
EndSplineSet
Validated: 19457
EndChar

StartChar: daggerdbl
Encoding: 8225 8225 169
Width: 1183
GlyphClass: 2
Flags: W
HStem: 0 21G<492 692> 342 150<150 492 692 1033> 1019 150<150 492 692 1033> 1490 20G<492 692>
VStem: 492 200<0 342 492 1019 1169 1510>
LayerCount: 2
Fore
SplineSet
492 0 m 1,0,-1
 492 342 l 1,1,-1
 150 342 l 1,2,-1
 150 492 l 1,3,-1
 492 492 l 1,4,-1
 492 1019 l 1,5,-1
 150 1019 l 1,6,-1
 150 1169 l 1,7,-1
 492 1169 l 1,8,-1
 492 1510 l 1,9,-1
 692 1510 l 1,10,-1
 692 1169 l 1,11,-1
 1033 1169 l 1,12,-1
 1033 1019 l 1,13,-1
 692 1019 l 1,14,-1
 692 492 l 1,15,-1
 1033 492 l 1,16,-1
 1033 342 l 1,17,-1
 692 342 l 1,18,-1
 692 0 l 1,19,-1
 492 0 l 1,0,-1
EndSplineSet
Validated: 19457
EndChar

StartChar: bullet
Encoding: 8226 8226 170
Width: 1056
GlyphClass: 2
Flags: W
HStem: 444 624<328.125 727.875>
VStem: 200 656<572.045 939.955>
LayerCount: 2
Fore
SplineSet
528 1068 m 128,-1,1
 856 1068 856 1068 856 756 c 128,-1,2
 856 444 856 444 528 444 c 128,-1,3
 200 444 200 444 200 756 c 128,-1,0
 200 1068 200 1068 528 1068 c 128,-1,1
EndSplineSet
Validated: 19457
EndChar

StartChar: uni2023
Encoding: 8227 8227 171
Width: 950
GlyphClass: 2
Flags: W
LayerCount: 2
Fore
SplineSet
150 310 m 1,0,-1
 150 1158 l 1,1,-1
 850 761 l 1,2,-1
 150 310 l 1,0,-1
EndSplineSet
Validated: 3073
EndChar

StartChar: onedotenleader
Encoding: 8228 8228 172
Width: 552
GlyphClass: 2
Flags: W
HStem: -20 255<170.795 381.205>
VStem: 150 252<1.04248 213.958>
LayerCount: 2
Fore
SplineSet
276 -20 m 152,-1,1
 150 -20 150 -20 150 107.5 c 128,-1,2
 150 235 150 235 276 235 c 128,-1,3
 402 235 402 235 402 107.5 c 128,-1,0
 402 -20 402 -20 276 -20 c 152,-1,1
EndSplineSet
Validated: 19457
EndChar

StartChar: twodotenleader
Encoding: 8229 8229 173
Width: 1017
GlyphClass: 2
Flags: W
HStem: -20 255<170.795 381.205 635.795 846.205>
VStem: 150 252<1.04248 213.958> 615 252<1.04248 213.958>
LayerCount: 2
Fore
SplineSet
741 -20 m 152,-1,1
 615 -20 615 -20 615 107.5 c 128,-1,2
 615 235 615 235 741 235 c 128,-1,3
 867 235 867 235 867 107.5 c 128,-1,0
 867 -20 867 -20 741 -20 c 152,-1,1
276 -20 m 152,-1,5
 150 -20 150 -20 150 107.5 c 128,-1,6
 150 235 150 235 276 235 c 128,-1,7
 402 235 402 235 402 107.5 c 128,-1,4
 402 -20 402 -20 276 -20 c 152,-1,5
EndSplineSet
Validated: 19457
EndChar

StartChar: ellipsis
Encoding: 8230 8230 174
Width: 1482
GlyphClass: 2
Flags: W
HStem: -20 255<170.795 381.205 635.795 846.205 1100.79 1311.21>
VStem: 150 252<1.04248 213.958> 615 252<1.04248 213.958> 1080 252<1.04248 213.958>
CounterMasks: 1 70
LayerCount: 2
Fore
SplineSet
1206 -20 m 152,-1,1
 1080 -20 1080 -20 1080 107.5 c 128,-1,2
 1080 235 1080 235 1206 235 c 128,-1,3
 1332 235 1332 235 1332 107.5 c 128,-1,0
 1332 -20 1332 -20 1206 -20 c 152,-1,1
741 -20 m 152,-1,5
 615 -20 615 -20 615 107.5 c 128,-1,6
 615 235 615 235 741 235 c 128,-1,7
 867 235 867 235 867 107.5 c 128,-1,4
 867 -20 867 -20 741 -20 c 152,-1,5
276 -20 m 152,-1,9
 150 -20 150 -20 150 107.5 c 128,-1,10
 150 235 150 235 276 235 c 128,-1,11
 402 235 402 235 402 107.5 c 128,-1,8
 402 -20 402 -20 276 -20 c 152,-1,9
EndSplineSet
Validated: 19457
EndChar

StartChar: uni2027
Encoding: 8231 8231 175
Width: 552
GlyphClass: 2
Flags: W
HStem: 638 255<170.795 381.205>
VStem: 150 252<659.042 871.958>
LayerCount: 2
Fore
SplineSet
276 638 m 152,-1,1
 150 638 150 638 150 765.5 c 128,-1,2
 150 893 150 893 276 893 c 128,-1,3
 402 893 402 893 402 765.5 c 128,-1,0
 402 638 402 638 276 638 c 152,-1,1
EndSplineSet
Validated: 19457
EndChar

StartChar: perthousand
Encoding: 8240 8240 176
Width: 2383
GlyphClass: 2
Flags: W
HStem: -20 151<1034.22 1283.64 1777.22 2026.64> 0 21G<378 563.272> 458 146<1034.7 1285.34 1777.7 2028.34> 906 151<350.219 599.885> 1383 147<350.219 601.121> 1490 20G<1066.76 1254>
VStem: 150 162<1096.19 1342.52> 378 176<0 176> 641 165<1096.31 1342.63> 834 162<170.188 416.898> 1076 178<1332 1510> 1325 165<170.54 421.021> 1577 162<170.188 416.898> 2068 165<170.54 421.021>
DStem2: 378 0 554 0 0.420582 0.907255<74.0224 1663.52>
LayerCount: 2
Fore
SplineSet
2068 300 m 0,0,1
 2068 458 2068 458 1904 458 c 128,-1,2
 1740 458 1740 458 1739 297 c 0,3,4
 1739 131 1739 131 1902 131 c 0,5,6
 2067 131 2067 131 2068 300 c 0,0,1
1905 604 m 128,-1,8
 2233 604 2233 604 2233 292 c 128,-1,9
 2233 -20 2233 -20 1905 -20 c 128,-1,10
 1577 -20 1577 -20 1577 292 c 128,-1,7
 1577 604 1577 604 1905 604 c 128,-1,8
1325 300 m 0,11,12
 1325 458 1325 458 1161 458 c 128,-1,13
 997 458 997 458 996 297 c 0,14,15
 996 131 996 131 1159 131 c 0,16,17
 1324 131 1324 131 1325 300 c 0,11,12
1162 604 m 128,-1,19
 1490 604 1490 604 1490 292 c 128,-1,20
 1490 -20 1490 -20 1162 -20 c 128,-1,21
 834 -20 834 -20 834 292 c 128,-1,18
 834 604 834 604 1162 604 c 128,-1,19
475 1057 m 0,22,23
 641 1057 641 1057 641 1224 c 0,24,25
 641 1383 641 1383 475 1383 c 0,26,27
 312 1383 312 1383 312 1223 c 0,28,29
 312 1057 312 1057 475 1057 c 0,22,23
478 1530 m 128,-1,31
 806 1530 806 1530 806 1218 c 128,-1,32
 806 906 806 906 478 906 c 128,-1,33
 150 906 150 906 150 1218 c 128,-1,30
 150 1530 150 1530 478 1530 c 128,-1,31
378 0 m 17,34,-1
 1076 1510 l 1,35,-1
 1254 1510 l 1,36,-1
 554 0 l 9,37,-1
 378 0 l 17,34,-1
EndSplineSet
Validated: 19457
EndChar

StartChar: minute
Encoding: 8242 8242 177
Width: 727
GlyphClass: 2
Flags: W
HStem: 1049 461
VStem: 150 427
LayerCount: 2
Fore
SplineSet
577 1510 m 1,0,-1
 307 1049 l 1,1,-1
 150 1049 l 1,2,-1
 371 1510 l 1,3,-1
 577 1510 l 1,0,-1
EndSplineSet
Validated: 19457
EndChar

StartChar: second
Encoding: 8243 8243 178
Width: 1089
GlyphClass: 2
Flags: W
HStem: 1049 461
LayerCount: 2
Fore
SplineSet
939 1510 m 1,0,-1
 669 1049 l 1,1,-1
 512 1049 l 1,2,-1
 733 1510 l 1,3,-1
 939 1510 l 1,0,-1
577 1510 m 1,4,-1
 307 1049 l 1,5,-1
 150 1049 l 1,6,-1
 371 1510 l 1,7,-1
 577 1510 l 1,4,-1
EndSplineSet
Validated: 19457
EndChar

StartChar: uni2034
Encoding: 8244 8244 179
Width: 1451
GlyphClass: 2
Flags: W
HStem: 1049 461
LayerCount: 2
Fore
SplineSet
1301 1510 m 1,0,-1
 1031 1049 l 1,1,-1
 874 1049 l 1,2,-1
 1095 1510 l 1,3,-1
 1301 1510 l 1,0,-1
939 1510 m 1,4,-1
 669 1049 l 1,5,-1
 512 1049 l 1,6,-1
 733 1510 l 1,7,-1
 939 1510 l 1,4,-1
577 1510 m 1,8,-1
 307 1049 l 1,9,-1
 150 1049 l 1,10,-1
 371 1510 l 1,11,-1
 577 1510 l 1,8,-1
EndSplineSet
Validated: 19457
EndChar

StartChar: uni2035
Encoding: 8245 8245 180
Width: 727
GlyphClass: 2
Flags: W
HStem: 1049 461
VStem: 150 427
LayerCount: 2
Fore
SplineSet
150 1510 m 1,0,-1
 356 1510 l 1,1,-1
 577 1049 l 1,2,-1
 420 1049 l 1,3,-1
 150 1510 l 1,0,-1
EndSplineSet
Validated: 19457
EndChar

StartChar: uni2036
Encoding: 8246 8246 181
Width: 1089
GlyphClass: 2
Flags: W
HStem: 1049 461
LayerCount: 2
Fore
SplineSet
150 1510 m 1,0,-1
 356 1510 l 1,1,-1
 577 1049 l 1,2,-1
 420 1049 l 1,3,-1
 150 1510 l 1,0,-1
512 1510 m 1,4,-1
 718 1510 l 1,5,-1
 939 1049 l 1,6,-1
 782 1049 l 1,7,-1
 512 1510 l 1,4,-1
EndSplineSet
Validated: 19457
EndChar

StartChar: uni2037
Encoding: 8247 8247 182
Width: 1451
GlyphClass: 2
Flags: W
HStem: 1049 461
LayerCount: 2
Fore
SplineSet
150 1510 m 1,0,-1
 356 1510 l 1,1,-1
 577 1049 l 1,2,-1
 420 1049 l 1,3,-1
 150 1510 l 1,0,-1
512 1510 m 1,4,-1
 718 1510 l 1,5,-1
 939 1049 l 1,6,-1
 782 1049 l 1,7,-1
 512 1510 l 1,4,-1
874 1510 m 1,8,-1
 1080 1510 l 1,9,-1
 1301 1049 l 1,10,-1
 1144 1049 l 1,11,-1
 874 1510 l 1,8,-1
EndSplineSet
Validated: 19457
EndChar

StartChar: guilsinglleft
Encoding: 8249 8249 183
Width: 873
GlyphClass: 2
Flags: W
HStem: 131 279<394 673> 1202 205<468 673>
VStem: 150 523
DStem2: 150 859 298 799 0.690413 0.723415<58.7762 609.217> 298 799 150 678 0.691073 -0.722785<0 540.316>
LayerCount: 2
Fore
SplineSet
673 1407 m 1,0,-1
 673 1202 l 1,1,-1
 298 799 l 1,2,-1
 673 410 l 1,3,-1
 673 131 l 1,4,-1
 150 678 l 1,5,-1
 150 859 l 1,6,-1
 673 1407 l 1,0,-1
EndSplineSet
Validated: 19457
EndChar

StartChar: guilsinglright
Encoding: 8250 8250 184
Width: 873
GlyphClass: 2
Flags: W
HStem: 124 205<200 405> 1121 280<200 480>
VStem: 200 523
DStem2: 200 1401 200 1121 0.685814 -0.727776<203.777 744.063> 200 329 200 124 0.691073 0.722785<0 550.435>
LayerCount: 2
Fore
SplineSet
200 124 m 1,0,-1
 200 329 l 1,1,-1
 575 732 l 1,2,-1
 200 1121 l 1,3,-1
 200 1401 l 1,4,-1
 723 846 l 1,5,-1
 723 671 l 1,6,-1
 200 124 l 1,0,-1
EndSplineSet
Validated: 19457
EndChar

StartChar: uni2043
Encoding: 8259 8259 185
Width: 1139
GlyphClass: 2
Flags: W
VStem: 495 150<314 626 871 1147>
DStem2: 225 1009 150 893 0.881617 -0.471965<0 303.168 551.042 861.823> 150 600 225 470 0.881617 0.471965<4.76581 316.429 564.303 866.589>
LayerCount: 2
Fore
SplineSet
495 314 m 1,0,-1
 495 626 l 1,1,-1
 225 470 l 1,2,-1
 150 600 l 1,3,-1
 432 750 l 1,4,-1
 150 893 l 1,5,-1
 225 1009 l 1,6,-1
 495 871 l 1,7,-1
 495 1147 l 1,8,-1
 645 1147 l 1,9,-1
 645 871 l 1,10,-1
 914 1009 l 1,11,-1
 989 893 l 1,12,-1
 706 750 l 1,13,-1
 989 600 l 1,14,-1
 914 470 l 1,15,-1
 645 626 l 1,16,-1
 645 314 l 1,17,-1
 495 314 l 1,0,-1
EndSplineSet
Validated: 19457
EndChar

StartChar: fraction
Encoding: 8260 8260 186
Width: 1096
GlyphClass: 2
Flags: W
DStem2: 50 -132 195 -200 0.420342 0.907366<0 2023.79>
LayerCount: 2
Fore
SplineSet
900 1705 m 1,0,-1
 1046 1637 l 1,1,-1
 195 -200 l 1,2,-1
 50 -132 l 1,3,-1
 900 1705 l 1,0,-1
EndSplineSet
Validated: 19457
EndChar

StartChar: Euro
Encoding: 8364 8364 187
Width: 1528
GlyphClass: 2
Flags: W
HStem: -20 124<574.577 960.815> 530 150<100 260 460 961> 818 150<100 260 461 961> 1406 124<629.852 995.575>
VStem: 260 200<214.985 530 680 818 968 1198.98> 1122 202<308.3 472 1145 1285.52>
LayerCount: 2
Fore
SplineSet
1324 497 m 1,0,1
 1277 -20 1277 -20 685 -20 c 0,2,3
 260 -20 260 -20 260 365 c 2,4,-1
 260 530 l 1,5,-1
 100 530 l 1,6,-1
 100 680 l 1,7,-1
 260 680 l 1,8,-1
 260 818 l 1,9,-1
 100 818 l 1,10,-1
 100 968 l 1,11,-1
 261 968 l 1,12,13
 285 1530 285 1530 903 1530 c 0,14,15
 1328 1530 1328 1530 1328 1145 c 1,16,-1
 1128 1090 l 1,17,18
 1128 1406 1128 1406 801 1406 c 0,19,20
 477 1406 477 1406 461 968 c 1,21,-1
 961 968 l 1,22,-1
 961 818 l 1,23,-1
 460 818 l 1,24,-1
 460 680 l 1,25,-1
 961 680 l 1,26,-1
 961 530 l 1,27,-1
 460 530 l 1,28,-1
 460 365 l 2,29,30
 460 104 460 104 787 104 c 0,31,32
 1084 104 1084 104 1122 472 c 1,33,-1
 1324 497 l 1,0,1
EndSplineSet
Validated: 19457
EndChar

StartChar: afii61248
Encoding: 8453 8453 188
Width: 1723
GlyphClass: 2
Flags: W
HStem: -20 112<1158.79 1378.86> 0 21G<431 616.272> 705 113<317.53 540.622 1200.89 1394.1> 1418 112<344.145 551.936> 1490 20G<1119.76 1307>
VStem: 150 150<838.057 1373.45> 431 176<0 176> 582 154<859.742 999 1295 1386.57> 991 150<113.057 642.347> 1129 178<1332 1510> 1423 150<136.555 671.943>
DStem2: 431 0 607 0 0.420582 0.907255<74.0224 1663.52>
LayerCount: 2
Fore
SplineSet
991 476 m 2,0,1
 991 805 991 805 1337 805 c 0,2,3
 1573 805 1573 805 1573 587 c 2,4,-1
 1573 309 l 2,5,6
 1573 -20 1573 -20 1227 -20 c 0,7,8
 991 -20 991 -20 991 198 c 2,9,-1
 991 476 l 2,0,1
1141 476 m 2,10,-1
 1141 198 l 2,11,12
 1141 93 1141 93 1277 92 c 0,13,14
 1423 92 1423 92 1423 309 c 2,15,-1
 1423 587 l 2,16,17
 1423 692 1423 692 1291 692 c 0,18,19
 1141 692 1141 692 1141 476 c 2,10,-1
736 1018 m 1,20,21
 736 705 736 705 386 705 c 0,22,23
 150 705 150 705 150 923 c 2,24,-1
 150 1201 l 2,25,26
 150 1530 150 1530 496 1530 c 0,27,28
 736 1530 736 1530 736 1295 c 1,29,-1
 584 1253 l 1,30,31
 584 1418 584 1418 446 1418 c 0,32,33
 300 1418 300 1418 300 1201 c 2,34,-1
 300 923 l 2,35,36
 300 818 300 818 432 818 c 0,37,38
 582 818 582 818 582 999 c 1,39,-1
 736 1018 l 1,20,21
431 0 m 17,40,-1
 1129 1510 l 1,41,-1
 1307 1510 l 1,42,-1
 607 0 l 9,43,-1
 431 0 l 17,40,-1
EndSplineSet
Validated: 19457
EndChar

StartChar: afii61289
Encoding: 8467 8467 189
Width: 1158
GlyphClass: 2
Flags: W
HStem: -20 136<558.838 669.963> 0 21G<150 363.84> 1510 20G<698 839>
LayerCount: 2
Fore
SplineSet
540 672 m 1,0,1
 620 847 620 847 667 1017 c 0,2,3
 716 1194 716 1194 729 1389 c 1,4,5
 655 1230 655 1230 610 1044 c 0,6,7
 565 856 565 856 540 672 c 1,0,1
150 0 m 1,8,9
 264 144 264 144 340 296 c 1,10,11
 332 374 332 374 332 448 c 0,12,13
 332 598 332 598 418 954 c 0,14,15
 507 1330 507 1330 576 1443 c 0,16,17
 629 1530 629 1530 767 1530 c 2,18,-1
 770 1530 l 2,19,20
 908 1530 908 1530 908 1344 c 2,21,-1
 908 1338 l 2,22,23
 908 1246 908 1246 878 1092 c 0,24,25
 811 746 811 746 522 272 c 1,26,27
 555 116 555 116 611 116 c 0,28,29
 638 116 638 116 665 154 c 0,30,31
 677 170 677 170 716 228 c 1,32,-1
 892 228 l 1,33,34
 821 91 821 91 749 33 c 0,35,36
 683 -20 683 -20 602 -20 c 0,37,38
 474 -20 474 -20 403 81 c 1,39,-1
 351 0 l 1,40,-1
 150 0 l 1,8,9
EndSplineSet
Validated: 19457
EndChar

StartChar: trademark
Encoding: 8482 8482 190
Width: 1756
GlyphClass: 2
Flags: W
HStem: 1396 114<167.72 355 505 710>
VStem: 355 150<755 1396> 805 150<755 1416.5> 1078 150<1086 1337.29> 1352 150<770.035 1418>
LayerCount: 2
Fore
SplineSet
150 1473 m 1,0,1
 201 1510 201 1510 325 1510 c 2,2,-1
 710 1510 l 1,3,-1
 710 1396 l 1,4,-1
 505 1396 l 1,5,-1
 505 755 l 1,6,-1
 355 755 l 1,7,-1
 355 1396 l 1,8,-1
 322 1397 l 2,9,10
 212 1397 212 1397 150 1337 c 1,11,-1
 150 1473 l 1,0,1
751 1510 m 1,12,-1
 905 1510 l 2,13,14
 1103 1510 1103 1510 1152 1355 c 1,15,16
 1198 1510 1198 1510 1377 1510 c 2,17,-1
 1502 1510 l 1,18,-1
 1502 919 l 2,19,20
 1502 835 1502 835 1556 755 c 1,21,-1
 1387 755 l 1,22,23
 1352 810 1352 810 1352 930 c 2,24,-1
 1352 1418 l 1,25,26
 1228 1394 1228 1394 1228 1086 c 1,27,-1
 1078 1086 l 1,28,29
 1077 1365 1077 1365 953 1417 c 1,30,31
 955 1401 955 1401 955 1385 c 2,32,-1
 955 755 l 1,33,-1
 805 755 l 1,34,-1
 805 1346 l 2,35,36
 805 1460 805 1460 751 1510 c 1,12,-1
EndSplineSet
Validated: 19457
EndChar

StartChar: uni2126
Encoding: 8486 8486 191
Width: 1448
GlyphClass: 2
Flags: W
HStem: 0 127<244.251 447 1001 1203.75> 50 147<160 307 1141 1288> 1406 124<562.75 943.423>
VStem: 190 200<455.38 1187.44> 447 127<127 256.747> 874 127<127 301.539> 1058 200<532.515 1295.01>
LayerCount: 2
Fore
SplineSet
160 197 m 1,0,1
 377 127 377 127 447 127 c 1,2,-1
 447 245 l 1,3,4
 190 311 190 311 190 612 c 2,5,-1
 190 921 l 2,6,7
 190 1530 190 1530 833 1530 c 0,8,9
 1258 1530 1258 1530 1258 1145 c 2,10,-1
 1258 807 l 2,11,12
 1258 419 1258 419 1001 278 c 1,13,-1
 1001 127 l 1,14,15
 1071 127 1071 127 1288 197 c 1,16,-1
 1288 50 l 1,17,18
 1167 0 1167 0 1001 0 c 2,19,-1
 874 0 l 1,20,-1
 874 354 l 1,21,22
 1058 447 1058 447 1058 807 c 2,23,-1
 1058 1145 l 2,24,25
 1058 1406 1058 1406 731 1406 c 0,26,27
 390 1406 390 1406 390 921 c 2,28,-1
 390 612 l 2,29,30
 390 414 390 414 574 366 c 1,31,-1
 574 0 l 1,32,-1
 447 0 l 2,33,34
 281 0 281 0 160 50 c 1,35,-1
 160 197 l 1,0,1
EndSplineSet
Validated: 19457
EndChar

StartChar: estimated
Encoding: 8494 8494 192
Width: 1430
GlyphClass: 2
Flags: W
HStem: -20 85<547.242 885.171> 529 80<398 1033> 1044 84<535.274 896.49>
VStem: 150 248<332.604 529 609 775.465> 1033 247<609 769.25>
LayerCount: 2
Fore
SplineSet
1202 269 m 1,0,1
 1098 117 1098 117 998 61 c 0,2,3
 853 -20 853 -20 715 -20 c 0,4,5
 466 -20 466 -20 317 144 c 0,6,7
 150 329 150 329 150 554 c 0,8,9
 150 772 150 772 306 954 c 24,10,11
 455 1128 455 1128 716 1128 c 0,12,13
 957 1128 957 1128 1107 970 c 280,14,15
 1280 789 1280 789 1280 529 c 1,16,-1
 398 529 l 1,17,-1
 398 220 l 1,18,19
 544 65 544 65 716 65 c 256,20,21
 827 65 827 65 930 132 c 0,22,23
 1014 187 1014 187 1063 269 c 1,24,-1
 1202 269 l 1,0,1
398 890 m 1,25,26
 398 609 l 1,27,-1
 1033 609 l 1,28,-1
 1033 889 l 1,29,30
 908 1044 908 1044 716 1044 c 0,31,32
 522 1044 522 1044 398 890 c 1,25,26
EndSplineSet
Validated: 19457
EndChar

StartChar: partialdiff
Encoding: 8706 8706 193
Width: 1182
GlyphClass: 2
Flags: W
HStem: -20 178<389.35 570.834> 678 186<440.321 636.819> 1185 205<370.67 664.318>
VStem: 150 203<198.054 562.031> 767 215<736.444 1065.09>
LayerCount: 2
Fore
SplineSet
342 1353 m 1,0,1
 491 1390 491 1390 565 1390 c 0,2,3
 823 1390 823 1390 932 1129 c 0,4,5
 982 1009 982 1009 982 831 c 0,6,7
 982 720 982 720 959 589 c 0,8,9
 900 262 900 262 749 106 c 0,10,11
 627 -20 627 -20 482 -20 c 0,12,13
 345 -20 345 -20 255 70 c 0,14,15
 150 176 150 176 150 363 c 0,16,17
 150 555 150 555 239 704 c 0,18,19
 335 864 335 864 510 864 c 0,20,21
 624 864 624 864 714 787 c 0,22,23
 741 764 741 764 764 734 c 1,24,25
 767 778 767 778 767 825 c 0,26,27
 767 955 767 955 740 1028 c 0,28,29
 682 1185 682 1185 530 1185 c 0,30,31
 466 1185 466 1185 342 1128 c 1,32,-1
 342 1353 l 1,0,1
725 495 m 1,33,34
 651 678 651 678 532 678 c 0,35,36
 432 678 432 678 385 529 c 0,37,38
 353 428 353 428 353 335 c 0,39,40
 353 248 353 248 388 203 c 256,41,42
 423 158 423 158 475 158 c 0,43,44
 523 158 523 158 562 194 c 0,45,46
 622 250 622 250 668 343 c 0,47,48
 706 418 706 418 725 495 c 1,33,34
EndSplineSet
Validated: 19457
EndChar

StartChar: uni2206
Encoding: 8710 8710 194
Width: 1237
GlyphClass: 2
Flags: W
HStem: 0 117<186 978> 1490 20G<514.232 722.768>
DStem2: 716 1510 580 1327 0.320553 -0.947231<129.748 1403.48>
LayerCount: 2
Fore
SplineSet
10 0 m 1,0,-1
 521 1510 l 1,1,-1
 716 1510 l 1,2,-1
 1227 0 l 1,3,-1
 10 0 l 1,0,-1
580 1327 m 1,4,-1
 186 117 l 1,5,-1
 978 117 l 1,6,-1
 580 1327 l 1,4,-1
EndSplineSet
Validated: 19457
EndChar

StartChar: product
Encoding: 8719 8719 195
Width: 1406
GlyphClass: 2
Flags: W
HStem: -410 20G<200 400 1006 1206> 1383 127<400 1006>
VStem: 200 200<-410 1383> 1006 200<-411 1383>
LayerCount: 2
Fore
SplineSet
200 1510 m 1,0,-1
 1206 1510 l 1,1,-1
 1206 -411 l 1,2,-1
 1006 -411 l 1,3,-1
 1006 1383 l 1,4,-1
 400 1383 l 1,5,-1
 400 -410 l 1,6,-1
 200 -410 l 1,7,-1
 200 1510 l 1,0,-1
EndSplineSet
Validated: 19457
EndChar

StartChar: summation
Encoding: 8721 8721 196
Width: 1407
GlyphClass: 2
Flags: W
HStem: -410 127<455 1205.45> 1383 127<467 1169>
DStem2: 467 1383 150 1510 0.525415 -0.850846<0 825.468> 150 -410 455 -283 0.506484 0.862249<263.983 1141.2>
LayerCount: 2
Fore
SplineSet
150 1510 m 1,0,-1
 1169 1510 l 17,1,-1
 1169 1383 l 9,2,-1
 467 1383 l 1,3,-1
 969 570 l 1,4,-1
 455 -283 l 1,5,-1
 957 -283 l 2,6,7
 1139 -283 1139 -283 1257 -213 c 1,8,-1
 1257 -360 l 1,9,10
 1136 -410 1136 -410 957 -410 c 2,11,-1
 150 -410 l 1,12,-1
 728 574 l 1,13,-1
 150 1510 l 1,0,-1
EndSplineSet
Validated: 19457
EndChar

StartChar: minus
Encoding: 8722 8722 197
Width: 1183
GlyphClass: 2
Flags: W
HStem: 693 150<150 1033>
LayerCount: 2
Fore
SplineSet
1033 693 m 1,0,-1
 150 693 l 1,1,-1
 150 843 l 1,2,-1
 1033 843 l 1,3,-1
 1033 693 l 1,0,-1
EndSplineSet
Validated: 19457
EndChar

StartChar: uni2215
Encoding: 8725 8725 198
Width: 1096
GlyphClass: 2
Flags: W
DStem2: 50 -132 195 -200 0.420342 0.907366<0 2023.79>
LayerCount: 2
Fore
SplineSet
900 1705 m 1,0,-1
 1046 1637 l 1,1,-1
 195 -200 l 1,2,-1
 50 -132 l 1,3,-1
 900 1705 l 1,0,-1
EndSplineSet
Validated: 19457
EndChar

StartChar: asteriskmath
Encoding: 8727 8727 199
Width: 1139
GlyphClass: 2
Flags: W
VStem: 495 150<314 626 871 1147>
DStem2: 225 1009 150 893 0.881617 -0.471965<0 303.168 551.042 861.823> 150 600 225 470 0.881617 0.471965<4.76581 316.429 564.303 866.589>
LayerCount: 2
Fore
SplineSet
495 314 m 1,0,-1
 495 626 l 1,1,-1
 225 470 l 1,2,-1
 150 600 l 1,3,-1
 432 750 l 1,4,-1
 150 893 l 1,5,-1
 225 1009 l 1,6,-1
 495 871 l 1,7,-1
 495 1147 l 1,8,-1
 645 1147 l 1,9,-1
 645 871 l 1,10,-1
 914 1009 l 1,11,-1
 989 893 l 1,12,-1
 706 750 l 1,13,-1
 989 600 l 1,14,-1
 914 470 l 1,15,-1
 645 626 l 1,16,-1
 645 314 l 1,17,-1
 495 314 l 1,0,-1
EndSplineSet
Validated: 19457
EndChar

StartChar: uni2218
Encoding: 8728 8728 200
Width: 1056
GlyphClass: 2
Flags: W
HStem: 444 151<400.219 649.885> 921 147<400.219 651.121>
VStem: 200 162<634.188 880.516> 691 165<634.306 880.633>
LayerCount: 2
Fore
SplineSet
525 595 m 0,0,1
 691 595 691 595 691 762 c 0,2,3
 691 921 691 921 525 921 c 0,4,5
 362 921 362 921 362 761 c 0,6,7
 362 595 362 595 525 595 c 0,0,1
528 1068 m 128,-1,9
 856 1068 856 1068 856 756 c 128,-1,10
 856 444 856 444 528 444 c 128,-1,11
 200 444 200 444 200 756 c 128,-1,8
 200 1068 200 1068 528 1068 c 128,-1,9
EndSplineSet
Validated: 19457
EndChar

StartChar: uni2219
Encoding: 8729 8729 201
Width: 552
GlyphClass: 2
Flags: W
HStem: 638 255<170.795 381.205>
VStem: 150 252<659.042 871.958>
LayerCount: 2
Fore
SplineSet
276 638 m 152,-1,1
 150 638 150 638 150 765.5 c 128,-1,2
 150 893 150 893 276 893 c 128,-1,3
 402 893 402 893 402 765.5 c 128,-1,0
 402 638 402 638 276 638 c 152,-1,1
EndSplineSet
Validated: 19457
EndChar

StartChar: radical
Encoding: 8730 8730 202
Width: 1271
GlyphClass: 2
Flags: W
HStem: 0 21G<466.037 657.138> 675 105<100 238> 1413 97<1015 1171>
DStem2: 401 780 238 675 0.328792 -0.944402<45.5692 580.821> 582 228 652 0 0.248821 0.96855<0 1255.47>
LayerCount: 2
Fore
SplineSet
473 0 m 1,0,-1
 238 675 l 1,1,-1
 100 675 l 1,2,-1
 100 780 l 1,3,-1
 401 780 l 1,4,-1
 582 228 l 1,5,-1
 916 1510 l 1,6,-1
 1171 1510 l 1,7,-1
 1171 1413 l 1,8,-1
 1015 1413 l 1,9,-1
 652 0 l 1,10,-1
 473 0 l 1,0,-1
EndSplineSet
Validated: 19457
EndChar

StartChar: uni221B
Encoding: 8731 8731 203
Width: 1271
GlyphClass: 2
Flags: W
HStem: 0 21G<466.037 657.138> 675 105<100 238> 879 89<337.954 522.057> 1080 20G<242 317> 1192 92<305 486.657> 1413 97<280 504.512 1015 1171> 1440 90<282.713 504.512>
VStem: 197 120<989.788 1068> 509 115<1312.15 1435.47> 544 120<989.597 1181.01>
DStem2: 401 780 238 675 0.328792 -0.944402<45.5692 580.821> 582 228 652 0 0.248821 0.96855<0 1255.47>
LayerCount: 2
Fore
SplineSet
280 1505 m 1,0,1
 367 1530 367 1530 432 1530 c 2,2,-1
 443 1530 l 2,3,4
 624 1530 624 1530 624 1402 c 2,5,-1
 624 1400 l 2,6,7
 624 1320 624 1320 561 1266 c 1,8,9
 664 1232 664 1232 664 1133 c 2,10,-1
 664 1124 l 2,11,12
 664 879 664 879 389 879 c 0,13,14
 197 879 197 879 197 1068 c 1,15,-1
 317 1100 l 1,16,17
 317 968 317 968 430 968 c 0,18,19
 544 968 544 968 544 1108 c 2,20,-1
 544 1118 l 2,21,22
 544 1192 544 1192 433 1192 c 2,23,-1
 305 1192 l 1,24,-1
 305 1284 l 1,25,26
 509 1284 509 1284 509 1383 c 2,27,-1
 509 1395 l 2,28,29
 509 1440 509 1440 432 1440 c 2,30,-1
 420 1440 l 2,31,32
 364 1440 364 1440 280 1400 c 1,33,-1
 280 1505 l 1,0,1
473 0 m 1,34,-1
 238 675 l 1,35,-1
 100 675 l 1,36,-1
 100 780 l 1,37,-1
 401 780 l 1,38,-1
 582 228 l 1,39,-1
 916 1510 l 1,40,-1
 1171 1510 l 1,41,-1
 1171 1413 l 1,42,-1
 1015 1413 l 1,43,-1
 652 0 l 1,44,-1
 473 0 l 1,34,-1
EndSplineSet
Validated: 19457
EndChar

StartChar: infinity
Encoding: 8734 8734 204
Width: 1452
GlyphClass: 2
Flags: W
HStem: 444 151<350.219 600.532 847.565 1095.89> 921 147<350.219 603.819 845.536 1097.12>
VStem: 150 162<634.188 880.516> 641 167<634.181 883.461> 1137 165<634.306 880.633>
LayerCount: 2
Fore
SplineSet
475 595 m 0,0,1
 641 595 641 595 641 762 c 0,2,3
 641 921 641 921 475 921 c 0,4,5
 312 921 312 921 312 761 c 0,6,7
 312 595 312 595 475 595 c 0,0,1
974 1068 m 0,8,9
 1302 1068 1302 1068 1302 756 c 128,-1,10
 1302 444 1302 444 974 444 c 0,11,12
 808 444 808 444 726 524 c 1,13,14
 644 444 644 444 478 444 c 0,15,16
 150 444 150 444 150 756 c 128,-1,17
 150 1068 150 1068 478 1068 c 0,18,19
 644 1068 644 1068 726 988 c 1,20,21
 808 1068 808 1068 974 1068 c 0,8,9
971 595 m 0,22,23
 1137 595 1137 595 1137 762 c 0,24,25
 1137 921 1137 921 971 921 c 0,26,27
 808 921 808 921 808 761 c 0,28,29
 808 595 808 595 971 595 c 0,22,23
EndSplineSet
Validated: 19457
EndChar

StartChar: approxequal
Encoding: 8776 8776 205
Width: 1208
GlyphClass: 2
Flags: W
HStem: 410 148<663.038 955> 619 146<249 523> 831 148<663.038 955> 1040 146<249 523>
VStem: 150 200<466 596.812 887 1017.81> 858 200<578.188 709 999.188 1130>
LayerCount: 2
Fore
SplineSet
150 466 m 1,0,1
 150 765 150 765 348 765 c 0,2,3
 524 765 524 765 628 625 c 0,4,5
 678 558 678 558 770 558 c 0,6,7
 858 558 858 558 858 765 c 1,8,-1
 1058 709 l 1,9,10
 1058 410 1058 410 852 410 c 0,11,12
 654 410 654 410 568 546 c 0,13,14
 522 619 522 619 440 619 c 0,15,16
 350 619 350 619 350 410 c 1,17,-1
 150 466 l 1,0,1
150 887 m 1,18,19
 150 1186 150 1186 348 1186 c 0,20,21
 524 1186 524 1186 628 1046 c 0,22,23
 678 979 678 979 770 979 c 0,24,25
 858 979 858 979 858 1186 c 1,26,-1
 1058 1130 l 1,27,28
 1058 831 1058 831 852 831 c 0,29,30
 654 831 654 831 568 967 c 0,31,32
 522 1040 522 1040 440 1040 c 0,33,34
 350 1040 350 1040 350 831 c 1,35,-1
 150 887 l 1,18,19
EndSplineSet
Validated: 19457
EndChar

StartChar: notequal
Encoding: 8800 8800 206
Width: 1183
GlyphClass: 2
Flags: W
HStem: 0 21G<154 339.256> 551 150<150 409 655 1033> 839 150<150 542 788 1033> 1490 20G<842.749 1030>
VStem: 154 176<0 176> 852 178<1332 1510>
DStem2: 154 0 330 0 0.420582 0.907255<74.0224 607.146 846.697 924.372 1163.92 1663.52>
LayerCount: 2
Fore
SplineSet
154 0 m 1,0,-1
 409 551 l 1,1,-1
 150 551 l 1,2,-1
 150 701 l 1,3,-1
 478 701 l 1,4,-1
 542 839 l 1,5,-1
 150 839 l 1,6,-1
 150 989 l 1,7,-1
 611 989 l 1,8,-1
 852 1510 l 1,9,-1
 1030 1510 l 1,10,-1
 788 989 l 1,11,-1
 1033 989 l 1,12,-1
 1033 839 l 1,13,-1
 719 839 l 1,14,-1
 655 701 l 1,15,-1
 1033 701 l 1,16,-1
 1033 551 l 1,17,-1
 585 551 l 1,18,-1
 330 0 l 1,19,-1
 154 0 l 1,0,-1
EndSplineSet
Validated: 19457
EndChar

StartChar: equivalence
Encoding: 8801 8801 207
Width: 1183
GlyphClass: 2
Flags: W
HStem: 406 150<150 1033> 694 150<150 1033> 982 150<150 1033>
CounterMasks: 1 e0
LayerCount: 2
Fore
SplineSet
1033 406 m 1,0,-1
 150 406 l 1,1,-1
 150 556 l 1,2,-1
 1033 556 l 1,3,-1
 1033 406 l 1,0,-1
1033 982 m 1,4,-1
 150 982 l 1,5,-1
 150 1132 l 1,6,-1
 1033 1132 l 1,7,-1
 1033 982 l 1,4,-1
1033 694 m 1,8,-1
 150 694 l 1,9,-1
 150 844 l 1,10,-1
 1033 844 l 1,11,-1
 1033 694 l 1,8,-1
EndSplineSet
Validated: 19457
EndChar

StartChar: lessequal
Encoding: 8804 8804 208
Width: 1256
GlyphClass: 2
Flags: W
HStem: 88 150<200 1056> 270 219<837 1056> 1336 175<881 1056>
DStem2: 200 985 374 918 0.852 0.523542<113.171 913.075> 374 918 200 796 0.852 -0.523542<0 805.663>
LayerCount: 2
Fore
SplineSet
1056 88 m 1,0,-1
 200 88 l 1,1,-1
 200 238 l 1,2,-1
 1056 238 l 1,3,-1
 1056 88 l 1,0,-1
200 796 m 1,4,-1
 200 985 l 1,5,-1
 1056 1511 l 1,6,-1
 1056 1336 l 1,7,-1
 374 918 l 1,8,-1
 1056 489 l 1,9,-1
 1056 270 l 1,10,-1
 200 796 l 1,4,-1
EndSplineSet
Validated: 19457
EndChar

StartChar: greaterequal
Encoding: 8805 8805 209
Width: 1256
GlyphClass: 2
Flags: W
HStem: 88 150<200 1056> 270 174<200 374> 1291 220<200 420>
DStem2: 200 1511 200 1291 0.851556 -0.524264<115.338 920.484> 200 444 200 270 0.852444 0.522819<0 800.428>
LayerCount: 2
Fore
SplineSet
1056 88 m 1,0,-1
 200 88 l 1,1,-1
 200 238 l 1,2,-1
 1056 238 l 1,3,-1
 1056 88 l 1,0,-1
1056 984 m 1,4,-1
 1056 795 l 1,5,-1
 200 270 l 1,6,-1
 200 444 l 1,7,-1
 882 863 l 1,8,-1
 200 1291 l 1,9,-1
 200 1511 l 1,10,-1
 1056 984 l 1,4,-1
EndSplineSet
Validated: 19457
EndChar

StartChar: lozenge
Encoding: 9674 9674 210
Width: 1233
GlyphClass: 2
Flags: W
HStem: 0 21G<602.558 629.414> 1491 20G<604.141 629.883>
DStem2: 307 804 120 738 0.557811 -0.829968<0 640.668> 120 738 307 804 0.540813 0.841143<156.647 653.063> 617 1511 581 1218 0.54153 -0.840681<226.825 871.411> 661 270 616 0 0.557026 0.830495<0 490.353>
LayerCount: 2
Fore
SplineSet
581 1218 m 1,0,-1
 307 804 l 1,1,-1
 661 270 l 1,2,-1
 933 678 l 1,3,-1
 581 1218 l 1,0,-1
617 1511 m 1,4,-1
 1113 741 l 1,5,-1
 616 0 l 1,6,-1
 120 738 l 1,7,-1
 617 1511 l 1,4,-1
EndSplineSet
Validated: 19457
EndChar

StartChar: s
Encoding: 115 115 212
Width: 1168
Flags: W
HStem: -20 136<423.674 740.147> 536 139<425.059 758.601> 984 136<444.786 846.676>
VStem: 150 200<192.862 279> 190 200<711.328 929.085> 778 200<820 921.91> 818 200<191.948 476.293>
LayerCount: 2
Fore
SplineSet
150 279 m 9,0,-1
 350 334 l 17,1,2
 350 116 350 116 588 116 c 0,3,4
 818 116 818 116 818 356 c 2,5,-1
 818 358 l 2,6,7
 818 536 818 536 591 536 c 0,8,9
 190 536 190 536 190 765 c 2,10,-1
 190 766 l 2,11,12
 190 1120 190 1120 714 1120 c 0,13,14
 978 1120 978 1120 978 820 c 9,15,-1
 778 764 l 17,16,17
 778 984 778 984 580 984 c 8,18,19
 390 984 390 984 390 796 c 2,20,-1
 390 794 l 2,21,22
 390 675 390 675 593 675 c 0,23,24
 1018 675 1018 675 1018 374 c 2,25,-1
 1018 373 l 2,26,27
 1018 -20 1018 -20 454 -20 c 0,28,29
 150 -20 150 -20 150 279 c 9,0,-1
EndSplineSet
Validated: 19457
EndChar

StartChar: M
Encoding: 77 77 213
Width: 1694
Flags: W
HStem: 0 21G<200 400 1319 1564> 1330 180<389 545.625 1144.9 1294>
VStem: 200 200<0 1327.56> 747 200<662 954.25> 1294 200<52.0093 1330>
CounterMasks: 1 38
LayerCount: 2
Fore
SplineSet
130 1510 m 1,0,-1
 350 1510 l 2,1,2
 834 1510 834 1510 843 958 c 1,3,4
 849 958 l 1,5,6
 856 1510 856 1510 1294 1510 c 2,7,-1
 1494 1510 l 1,8,-1
 1494 300 l 2,9,10
 1494 118 1494 118 1564 0 c 1,11,-1
 1344 0 l 1,12,13
 1294 99 1294 99 1294 300 c 2,14,-1
 1294 1330 l 1,15,16
 947 1330 947 1330 947 662 c 1,17,-1
 747 662 l 1,18,19
 747 1330 747 1330 389 1330 c 1,20,21
 400 1268 400 1268 400 1210 c 2,22,-1
 400 0 l 1,23,-1
 200 0 l 1,24,-1
 200 1210 l 2,25,26
 200 1392 200 1392 130 1510 c 1,0,-1
EndSplineSet
Validated: 19457
EndChar

StartChar: N
Encoding: 78 78 214
Width: 1406
Flags: W
HStem: 0 21G<200 400 1005 1205.01> 1330 180<390 583.239>
VStem: 200 200<0 1327.56> 1005 200<0 517.891 900 1510>
LayerCount: 2
Fore
SplineSet
130 1510 m 1,0,-1
 350 1510 l 2,1,2
 878 1510 878 1510 998 900 c 1,3,-1
 1005 900 l 1,4,-1
 1006 1510 l 1,5,-1
 1206 1510 l 1,6,-1
 1205 0 l 1,7,-1
 1005 0 l 1,8,9
 1005 1329 1005 1329 390 1330 c 1,10,11
 400 1272 400 1272 400 1210 c 2,12,-1
 400 0 l 1,13,-1
 200 0 l 1,14,-1
 200 1210 l 2,15,16
 200 1392 200 1392 130 1510 c 1,0,-1
EndSplineSet
Validated: 19457
EndChar

StartChar: W
Encoding: 87 87 215
Width: 1896
Flags: W
HStem: -20 150<446.708 676.052> -20 107<1123.08 1370.85> 1080 20G<868 1068> 1490 20G<130 375 1516 1716>
VStem: 200 200<177.387 1451.53> 868 200<141.492 300 496.077 1100> 1516 200<295.554 1510>
LayerCount: 2
Fore
SplineSet
130 1510 m 9,0,-1
 350 1510 l 17,1,2
 400 1393 400 1393 400 1210 c 2,3,-1
 400 335 l 2,4,5
 400 130 400 130 555 130 c 0,6,7
 868 130 868 130 868 1022 c 2,8,-1
 868 1100 l 1,9,-1
 1068 1100 l 1,10,-1
 1068 335 l 2,11,12
 1068 87 1068 87 1223 87 c 0,13,14
 1516 87 1516 87 1516 549 c 2,15,-1
 1516 1510 l 25,16,-1
 1716 1510 l 25,17,-1
 1716 589 l 18,18,19
 1716 -20 1716 -20 1172 -20 c 0,20,21
 868 -20 868 -20 868 279 c 2,22,-1
 868 300 l 1,23,24
 788 -20 788 -20 504 -20 c 0,25,26
 200 -20 200 -20 200 279 c 2,27,-1
 200 1210 l 2,28,29
 200 1371 200 1371 130 1510 c 9,0,-1
EndSplineSet
Validated: 19457
EndChar

StartChar: A
Encoding: 65 65 216
Width: 1386
Flags: W
HStem: 0 21G<180 380 1011 1256> 719 127<380 986> 1407 123<532.206 875.654>
VStem: 180 200<0 719 846 1201.56> 986 200<52.3682 719 846 1304.32>
LayerCount: 2
Fore
SplineSet
986 846 m 1,0,-1
 986 1145 l 2,1,2
 986 1407 986 1407 683 1407 c 128,-1,3
 380 1407 380 1407 380 921 c 2,4,-1
 380 846 l 1,5,-1
 986 846 l 1,0,-1
180 0 m 1,6,-1
 180 921 l 2,7,8
 180 1530 180 1530 761 1530 c 0,9,10
 1186 1530 1186 1530 1186 1145 c 2,11,-1
 1186 300 l 2,12,13
 1186 118 1186 118 1256 0 c 1,14,-1
 1036 0 l 1,15,16
 986 100 986 100 986 300 c 2,17,-1
 986 719 l 1,18,-1
 380 719 l 1,19,-1
 380 0 l 1,20,-1
 180 0 l 1,6,-1
EndSplineSet
Validated: 1
EndChar

StartChar: Nacute
Encoding: 323 323 217
Width: 1406
Flags: W
HStem: 0 21G<200 400 1005 1205.01> 1330 180<390 583.239>
VStem: 200 200<0 1327.56> 1005 200<0 517.891 900 1510>
LayerCount: 2
Fore
SplineSet
724 1587 m 1,0,-1
 642 1667 l 1,1,-1
 886 1947 l 1,2,-1
 1010 1825 l 1,3,-1
 724 1587 l 1,0,-1
130 1510 m 1,4,-1
 350 1510 l 2,5,6
 891 1510 891 1510 1005 900 c 1,7,-1
 1006 1510 l 1,8,-1
 1206 1510 l 1,9,-1
 1205 0 l 1,10,-1
 1005 0 l 1,11,12
 1005 1329 1005 1329 390 1330 c 1,13,14
 400 1272 400 1272 400 1210 c 2,15,-1
 400 0 l 1,16,-1
 200 0 l 1,17,-1
 200 1210 l 2,18,19
 200 1392 200 1392 130 1510 c 1,4,-1
EndSplineSet
Validated: 19457
EndChar

StartChar: nacute
Encoding: 324 324 218
Width: 1268
Flags: W
HStem: 0 21G<200 400 893 1138> 970 150<591.948 821.292> 1080 20G<130 375> 1510 20G<714.571 752.328>
VStem: 200 200<0 603.923 800 1040.1> 868 200<59.9048 922.309>
LayerCount: 2
Fore
SplineSet
570 1170 m 1,0,-1
 488 1250 l 1,1,-1
 732 1530 l 1,2,-1
 856 1408 l 1,3,-1
 570 1170 l 1,0,-1
130 1100 m 9,4,-1
 350 1100 l 17,5,6
 400 979 400 979 400 800 c 1,7,8
 480 1120 480 1120 764 1120 c 0,9,10
 1068 1119 1068 1119 1068 821 c 2,11,-1
 1068 300 l 2,12,13
 1068 140 1068 140 1138 0 c 9,14,-1
 918 0 l 17,15,16
 868 121 868 121 868 300 c 2,17,-1
 868 765 l 2,18,19
 868 970 868 970 713 970 c 0,20,21
 400 970 400 970 400 78 c 2,22,-1
 400 0 l 1,23,-1
 200 0 l 1,24,-1
 200 800 l 2,25,26
 200 960 200 960 130 1100 c 9,4,-1
EndSplineSet
Validated: 19457
EndChar

StartChar: Agrave
Encoding: 192 192 219
Width: 1386
Flags: W
HStem: 0 21G<180 380 1011 1256> 719 127<380 986> 1407 123<532.206 875.654>
VStem: 180 200<0 719 846 1201.56> 986 200<52.3682 719 846 1304.32>
LayerCount: 2
Fore
SplineSet
664 1587 m 1,0,-1
 378 1825 l 1,1,-1
 502 1947 l 1,2,-1
 746 1667 l 1,3,-1
 664 1587 l 1,0,-1
986 846 m 1,4,-1
 986 1145 l 2,5,6
 986 1407 986 1407 683 1407 c 128,-1,7
 380 1407 380 1407 380 921 c 2,8,-1
 380 846 l 1,9,-1
 986 846 l 1,4,-1
180 0 m 1,10,-1
 180 921 l 2,11,12
 180 1530 180 1530 761 1530 c 0,13,14
 1186 1530 1186 1530 1186 1145 c 2,15,-1
 1186 300 l 2,16,17
 1186 118 1186 118 1256 0 c 1,18,-1
 1036 0 l 1,19,20
 986 100 986 100 986 300 c 2,21,-1
 986 719 l 1,22,-1
 380 719 l 1,23,-1
 380 0 l 1,24,-1
 180 0 l 1,10,-1
EndSplineSet
Validated: 1
EndChar

StartChar: Aacute
Encoding: 193 193 220
Width: 1386
Flags: W
HStem: 0 21G<180 380 1011 1256> 719 127<380 986> 1407 123<532.206 875.654>
VStem: 180 200<0 719 846 1201.56> 986 200<52.3682 719 846 1304.32>
LayerCount: 2
Fore
SplineSet
744 1587 m 1,0,-1
 662 1667 l 1,1,-1
 906 1947 l 1,2,-1
 1030 1825 l 1,3,-1
 744 1587 l 1,0,-1
986 846 m 1,4,-1
 986 1145 l 2,5,6
 986 1407 986 1407 683 1407 c 128,-1,7
 380 1407 380 1407 380 921 c 2,8,-1
 380 846 l 1,9,-1
 986 846 l 1,4,-1
180 0 m 1,10,-1
 180 921 l 2,11,12
 180 1530 180 1530 761 1530 c 0,13,14
 1186 1530 1186 1530 1186 1145 c 2,15,-1
 1186 300 l 2,16,17
 1186 118 1186 118 1256 0 c 1,18,-1
 1036 0 l 1,19,20
 986 100 986 100 986 300 c 2,21,-1
 986 719 l 1,22,-1
 380 719 l 1,23,-1
 380 0 l 1,24,-1
 180 0 l 1,10,-1
EndSplineSet
Validated: 1
EndChar

StartChar: Acircumflex
Encoding: 194 194 221
Width: 1386
Flags: W
HStem: 0 21G<180 380 1011 1256> 719 127<380 986> 1407 123<532.206 875.654> 1773 174<657 831>
VStem: 180 200<0 719 846 1201.56> 986 200<52.3682 719 846 1304.32>
LayerCount: 2
Fore
SplineSet
582 1587 m 1,0,-1
 458 1709 l 1,1,-1
 744 1947 l 1,2,-1
 1030 1709 l 1,3,-1
 906 1587 l 1,4,-1
 744 1773 l 1,5,-1
 582 1587 l 1,0,-1
986 846 m 1,6,-1
 986 1145 l 2,7,8
 986 1407 986 1407 683 1407 c 128,-1,9
 380 1407 380 1407 380 921 c 2,10,-1
 380 846 l 1,11,-1
 986 846 l 1,6,-1
180 0 m 1,12,-1
 180 921 l 2,13,14
 180 1530 180 1530 761 1530 c 0,15,16
 1186 1530 1186 1530 1186 1145 c 2,17,-1
 1186 300 l 2,18,19
 1186 118 1186 118 1256 0 c 1,20,-1
 1036 0 l 1,21,22
 986 100 986 100 986 300 c 2,23,-1
 986 719 l 1,24,-1
 380 719 l 1,25,-1
 380 0 l 1,26,-1
 180 0 l 1,12,-1
EndSplineSet
Validated: 1
EndChar

StartChar: Atilde
Encoding: 195 195 222
Width: 1386
Flags: W
HStem: 0 21G<180 380 1011 1256> 719 127<380 986> 1407 123<532.206 875.654> 1647 127<718.436 1009.19> 1709 127<475.885 788.576 903 1030>
VStem: 180 200<0 719 846 1201.56> 986 200<52.3682 719 846 1304.32>
LayerCount: 2
Fore
SplineSet
1030 1709 m 17,0,1
 965 1647 965 1647 896 1647 c 0,2,3
 830 1647 830 1647 740 1684 c 0,4,5
 679 1709 679 1709 588 1709 c 0,6,7
 512 1709 512 1709 458 1646 c 9,8,-1
 458 1773 l 17,9,10
 509 1836 509 1836 588 1836 c 0,11,12
 669 1836 669 1836 745 1806 c 0,13,14
 829 1774 829 1774 896 1774 c 0,15,16
 962 1774 962 1774 1030 1836 c 9,17,-1
 1030 1709 l 17,0,1
986 846 m 1,18,-1
 986 1145 l 2,19,20
 986 1407 986 1407 683 1407 c 128,-1,21
 380 1407 380 1407 380 921 c 2,22,-1
 380 846 l 1,23,-1
 986 846 l 1,18,-1
180 0 m 1,24,-1
 180 921 l 2,25,26
 180 1530 180 1530 761 1530 c 0,27,28
 1186 1530 1186 1530 1186 1145 c 2,29,-1
 1186 300 l 2,30,31
 1186 118 1186 118 1256 0 c 1,32,-1
 1036 0 l 1,33,34
 986 100 986 100 986 300 c 2,35,-1
 986 719 l 1,36,-1
 380 719 l 1,37,-1
 380 0 l 1,38,-1
 180 0 l 1,24,-1
EndSplineSet
Validated: 1
EndChar

StartChar: onequarter
Encoding: 188 188 223
Width: 1530
Flags: W
HStem: 0 21G<186 371.272 1180 1330> 222 113<970 1180> 1396 114<150 267.116>
VStem: 150 233<1396.95 1510> 186 176<0 176> 268 150<705 1393.77> 820 150<335 805> 884 178<1332 1510> 1180 150<0 222 335 655>
DStem2: 186 0 362 0 0.420582 0.907255<74.0224 1663.52>
LayerCount: 2
Fore
SplineSet
150 1510 m 1,0,-1
 383 1510 l 1,1,2
 418 1454 418 1454 418 1335 c 2,3,-1
 418 705 l 1,4,-1
 268 705 l 1,5,-1
 268 1335 l 2,6,7
 267 1366 267 1366 261 1396 c 1,8,-1
 150 1396 l 1,9,-1
 150 1510 l 1,0,-1
186 0 m 17,10,-1
 884 1510 l 1,11,-1
 1062 1510 l 1,12,-1
 362 0 l 9,13,-1
 186 0 l 17,10,-1
1180 0 m 1,14,-1
 1180 222 l 1,15,-1
 820 222 l 1,16,-1
 820 805 l 17,17,-1
 970 805 l 9,18,-1
 970 335 l 1,19,-1
 1180 335 l 1,20,-1
 1180 655 l 1,21,-1
 1330 655 l 1,22,-1
 1330 0 l 1,23,-1
 1180 0 l 1,14,-1
EndSplineSet
Validated: 19457
EndChar

StartChar: onehalf
Encoding: 189 189 224
Width: 1541
Flags: W
HStem: 0 113<951 1325.46> 325 114<992.467 1151.04> 702 113<871.157 1171.56> 1396 114<150 267.116>
VStem: 150 233<1396.95 1510> 186 176<0 176> 268 150<705 1393.77> 797 154<113 292.274> 884 178<1332 1510> 1191 150<477.438 681.902>
DStem2: 186 0 362 0 0.420582 0.907255<74.0224 1663.52>
LayerCount: 2
Fore
SplineSet
861 784 m 1,0,1
 970 815 970 815 1051 815 c 2,2,-1
 1103 815 l 2,3,4
 1341 815 1341 815 1341 597 c 2,5,-1
 1341 596 l 2,6,7
 1341 325 1341 325 1064 325 c 0,8,9
 955 325 955 325 951 113 c 1,10,-1
 1157 113 l 2,11,12
 1283 113 1283 113 1333 163 c 1,13,-1
 1333 33 l 1,14,15
 1253 0 1253 0 1157 0 c 2,16,-1
 797 0 l 1,17,18
 797 439 797 439 1035 439 c 0,19,20
 1191 439 1191 439 1191 596 c 2,21,-1
 1191 597 l 2,22,23
 1191 702 1191 702 1053 702 c 2,24,-1
 1036 702 l 2,25,26
 965 702 965 702 861 653 c 1,27,-1
 861 784 l 1,0,1
150 1510 m 1,28,-1
 383 1510 l 1,29,30
 418 1454 418 1454 418 1335 c 2,31,-1
 418 705 l 1,32,-1
 268 705 l 1,33,-1
 268 1335 l 2,34,35
 267 1366 267 1366 261 1396 c 1,36,-1
 150 1396 l 1,37,-1
 150 1510 l 1,28,-1
186 0 m 17,38,-1
 884 1510 l 1,39,-1
 1062 1510 l 1,40,-1
 362 0 l 9,41,-1
 186 0 l 17,38,-1
EndSplineSet
Validated: 19457
EndChar

StartChar: threequarters
Encoding: 190 190 225
Width: 1745
Flags: W
HStem: 0 21G<393 578.272 1395 1545> 222 113<1185 1395> 716 112<333.533 548.489> 1108 114<286 496.369> 1417 113<264.157 534.805> 1490 20G<1081.76 1269>
VStem: 150 150<860.043 952> 393 176<0 176> 540 144<1266.2 1407.5> 584 150<867.282 1090.2> 1035 150<335 805> 1091 178<1332 1510> 1395 150<0 222 335 655>
DStem2: 393 0 569 0 0.420582 0.907255<74.0224 1663.52>
LayerCount: 2
Fore
SplineSet
1395 0 m 1,0,-1
 1395 222 l 1,1,-1
 1035 222 l 1,2,-1
 1035 805 l 17,3,-1
 1185 805 l 9,4,-1
 1185 335 l 1,5,-1
 1395 335 l 1,6,-1
 1395 655 l 1,7,-1
 1545 655 l 1,8,-1
 1545 0 l 1,9,-1
 1395 0 l 1,0,-1
254 1499 m 1,10,11
 363 1530 363 1530 444 1530 c 2,12,-1
 458 1530 l 2,13,14
 684 1530 684 1530 684 1370 c 2,15,-1
 684 1367 l 2,16,17
 684 1268 684 1268 606 1200 c 1,18,19
 734 1157 734 1157 734 1034 c 2,20,-1
 734 1022 l 2,21,22
 734 716 734 716 390 716 c 0,23,24
 150 716 150 716 150 952 c 1,25,-1
 300 993 l 1,26,27
 300 828 300 828 442 828 c 128,-1,28
 584 828 584 828 584 1003 c 2,29,-1
 584 1015 l 2,30,31
 584 1108 584 1108 446 1108 c 2,32,-1
 286 1108 l 1,33,-1
 286 1222 l 1,34,35
 540 1223 540 1223 540 1346 c 2,36,-1
 540 1361 l 2,37,38
 540 1417 540 1417 444 1417 c 2,39,-1
 429 1417 l 2,40,41
 359 1417 359 1417 254 1368 c 1,42,-1
 254 1499 l 1,10,11
393 0 m 17,43,-1
 1091 1510 l 1,44,-1
 1269 1510 l 1,45,-1
 569 0 l 9,46,-1
 393 0 l 17,43,-1
EndSplineSet
Validated: 19457
EndChar

StartChar: Adieresis
Encoding: 196 196 226
Width: 1386
Flags: W
HStem: 0 21G<180 380 1011 1256> 719 127<380 986> 1407 123<532.206 875.654> 1692 255<468.795 679.205 796.795 1007.21>
VStem: 180 200<0 719 846 1201.56> 448 252<1713.04 1925.96> 776 252<1713.04 1925.96> 986 200<52.3682 719 846 1304.32>
LayerCount: 2
Fore
SplineSet
902 1692 m 152,-1,1
 776 1692 776 1692 776 1819.5 c 128,-1,2
 776 1947 776 1947 902 1947 c 128,-1,3
 1028 1947 1028 1947 1028 1819.5 c 128,-1,0
 1028 1692 1028 1692 902 1692 c 152,-1,1
574 1692 m 152,-1,5
 448 1692 448 1692 448 1819.5 c 128,-1,6
 448 1947 448 1947 574 1947 c 128,-1,7
 700 1947 700 1947 700 1819.5 c 128,-1,4
 700 1692 700 1692 574 1692 c 152,-1,5
986 846 m 1,8,-1
 986 1145 l 2,9,10
 986 1407 986 1407 683 1407 c 128,-1,11
 380 1407 380 1407 380 921 c 2,12,-1
 380 846 l 1,13,-1
 986 846 l 1,8,-1
180 0 m 1,14,-1
 180 921 l 2,15,16
 180 1530 180 1530 761 1530 c 0,17,18
 1186 1530 1186 1530 1186 1145 c 2,19,-1
 1186 300 l 2,20,21
 1186 118 1186 118 1256 0 c 1,22,-1
 1036 0 l 1,23,24
 986 100 986 100 986 300 c 2,25,-1
 986 719 l 1,26,-1
 380 719 l 1,27,-1
 380 0 l 1,28,-1
 180 0 l 1,14,-1
EndSplineSet
Validated: 1
EndChar

StartChar: Aring
Encoding: 197 197 227
Width: 1386
Flags: W
HStem: 0 21G<180 380 1011 1256> 719 127<380 986> 1407 123<532.206 875.654> 1617 103<690.366 800.016> 1839 104<690.366 800.016>
VStem: 180 200<0 719 846 1201.56> 583 106<1721.67 1837.72> 803 109<1721.99 1838.06> 986 200<52.3682 719 846 1304.32>
LayerCount: 2
Fore
SplineSet
746 1720 m 152,-1,1
 803 1720 803 1720 803 1780 c 0,2,3
 803 1839 803 1839 746 1839 c 128,-1,4
 689 1839 689 1839 689 1779.5 c 128,-1,0
 689 1720 689 1720 746 1720 c 152,-1,1
746 1617 m 0,5,6
 583 1617 583 1617 583 1783 c 0,7,8
 583 1943 583 1943 746 1943 c 0,9,10
 912 1943 912 1943 912 1784 c 0,11,12
 912 1617 912 1617 746 1617 c 0,5,6
986 846 m 1,13,-1
 986 1145 l 2,14,15
 986 1407 986 1407 683 1407 c 128,-1,16
 380 1407 380 1407 380 921 c 2,17,-1
 380 846 l 1,18,-1
 986 846 l 1,13,-1
180 0 m 1,19,-1
 180 921 l 2,20,21
 180 1530 180 1530 761 1530 c 0,22,23
 1186 1530 1186 1530 1186 1145 c 2,24,-1
 1186 300 l 2,25,26
 1186 118 1186 118 1256 0 c 1,27,-1
 1036 0 l 1,28,29
 986 100 986 100 986 300 c 2,30,-1
 986 719 l 1,31,-1
 380 719 l 1,32,-1
 380 0 l 1,33,-1
 180 0 l 1,19,-1
EndSplineSet
Validated: 1
EndChar

StartChar: AE
Encoding: 198 198 228
Width: 1982
Flags: W
HStem: 0 127<1186 1850.45> 698 127<380 986 1186 1753> 1383 127<1172 1753> 1407 123<532.206 880.297>
VStem: 180 200<0 698 825 1201.56> 986 200<127 698 825 1304.66>
LayerCount: 2
Fore
SplineSet
180 0 m 1,0,-1
 180 921 l 2,1,2
 180 1530 180 1530 761 1530 c 0,3,4
 858 1530 858 1530 933 1510 c 1,5,-1
 1753 1510 l 1,6,-1
 1753 1383 l 1,7,-1
 1172 1383 l 1,8,9
 1186 1306 1186 1306 1186 1210 c 2,10,-1
 1186 825 l 1,11,-1
 1753 825 l 1,12,-1
 1753 698 l 1,13,-1
 1186 698 l 1,14,-1
 1186 127 l 1,15,-1
 1602 127 l 2,16,17
 1784 127 1784 127 1902 197 c 1,18,-1
 1902 50 l 1,19,20
 1781 0 1781 0 1602 0 c 2,21,-1
 986 0 l 1,22,-1
 986 698 l 1,23,-1
 380 698 l 1,24,-1
 380 0 l 1,25,-1
 180 0 l 1,0,-1
380 825 m 1,26,-1
 986 825 l 1,27,-1
 986 1145 l 2,28,29
 986 1407 986 1407 683 1407 c 128,-1,30
 380 1407 380 1407 380 921 c 2,31,-1
 380 825 l 1,26,-1
EndSplineSet
Validated: 1
EndChar

StartChar: Amacron
Encoding: 256 256 229
Width: 1386
Flags: W
HStem: 0 21G<180 380 1011 1256> 719 127<380 986> 1407 123<532.206 875.654> 1709 127<458 1030>
VStem: 180 200<0 719 846 1201.56> 986 200<52.3682 719 846 1304.32>
LayerCount: 2
Fore
SplineSet
458 1836 m 17,0,-1
 1030 1836 l 1,1,-1
 1030 1709 l 1,2,-1
 458 1709 l 9,3,-1
 458 1836 l 17,0,-1
986 846 m 1,4,-1
 986 1145 l 2,5,6
 986 1407 986 1407 683 1407 c 128,-1,7
 380 1407 380 1407 380 921 c 2,8,-1
 380 846 l 1,9,-1
 986 846 l 1,4,-1
180 0 m 1,10,-1
 180 921 l 2,11,12
 180 1530 180 1530 761 1530 c 0,13,14
 1186 1530 1186 1530 1186 1145 c 2,15,-1
 1186 300 l 2,16,17
 1186 118 1186 118 1256 0 c 1,18,-1
 1036 0 l 1,19,20
 986 100 986 100 986 300 c 2,21,-1
 986 719 l 1,22,-1
 380 719 l 1,23,-1
 380 0 l 1,24,-1
 180 0 l 1,10,-1
EndSplineSet
Validated: 1
EndChar

StartChar: Abreve
Encoding: 258 258 230
Width: 1386
Flags: W
HStem: 0 21G<180 380 1011 1256> 719 127<380 986> 1407 123<532.206 875.654> 1641 126<519.225 962.31> 1709 127<458 585 903 1030>
VStem: 180 200<0 719 846 1201.56> 986 200<52.3682 719 846 1304.32>
LayerCount: 2
Fore
SplineSet
458 1836 m 25,0,1
 615 1767 615 1767 736 1767 c 128,-1,2
 857 1767 857 1767 1030 1836 c 17,3,-1
 1030 1709 l 9,4,5
 874 1641 874 1641 739 1641 c 0,6,7
 608 1641 608 1641 458 1709 c 25,8,-1
 458 1836 l 25,0,1
986 846 m 1,9,-1
 986 1145 l 2,10,11
 986 1407 986 1407 683 1407 c 128,-1,12
 380 1407 380 1407 380 921 c 2,13,-1
 380 846 l 1,14,-1
 986 846 l 1,9,-1
180 0 m 1,15,-1
 180 921 l 2,16,17
 180 1530 180 1530 761 1530 c 0,18,19
 1186 1530 1186 1530 1186 1145 c 2,20,-1
 1186 300 l 2,21,22
 1186 118 1186 118 1256 0 c 1,23,-1
 1036 0 l 1,24,25
 986 100 986 100 986 300 c 2,26,-1
 986 719 l 1,27,-1
 380 719 l 1,28,-1
 380 0 l 1,29,-1
 180 0 l 1,15,-1
EndSplineSet
Validated: 1
EndChar

StartChar: Ccedilla
Encoding: 199 199 231
Width: 1388
Flags: W
HStem: -430 21G<663.716 764> -19 123<479.481 617.024> 1406 124<532.75 895.575>
VStem: 160 200<211.836 1187.44> 673 168<-232.22 -72.9772> 1022 202<306.312 472 1145 1285.52>
LayerCount: 2
Fore
SplineSet
1224 497 m 1,0,1
 1185 72 1185 72 778 -4 c 1,2,3
 841 -69 841 -69 841 -159 c 0,4,5
 841 -329 841 -329 687 -430 c 1,6,-1
 531 -296 l 1,7,8
 673 -226 673 -226 673 -154 c 0,9,10
 673 -85 673 -85 549 -19 c 1,11,12
 160 -3 160 -3 160 365 c 2,13,-1
 160 921 l 2,14,15
 160 1530 160 1530 803 1530 c 0,16,17
 1228 1530 1228 1530 1228 1145 c 1,18,-1
 1028 1090 l 1,19,20
 1028 1406 1028 1406 701 1406 c 0,21,22
 360 1406 360 1406 360 921 c 2,23,-1
 360 365 l 2,24,25
 360 104 360 104 687 104 c 0,26,27
 984 104 984 104 1022 472 c 1,28,-1
 1224 497 l 1,0,1
EndSplineSet
Validated: 19457
EndChar

StartChar: Ccircumflex
Encoding: 264 264 232
Width: 1388
Flags: W
HStem: -20 124<474.577 860.815> 1406 124<532.75 895.575> 1773 174<637 811>
VStem: 160 200<214.985 1187.44> 1022 202<308.3 472 1145 1285.52>
LayerCount: 2
Fore
SplineSet
562 1587 m 1,0,-1
 438 1709 l 1,1,-1
 724 1947 l 1,2,-1
 1010 1709 l 1,3,-1
 886 1587 l 1,4,-1
 724 1773 l 1,5,-1
 562 1587 l 1,0,-1
1224 497 m 17,6,7
 1177 -20 1177 -20 585 -20 c 0,8,9
 160 -20 160 -20 160 365 c 2,10,-1
 160 921 l 18,11,12
 160 1530 160 1530 803 1530 c 0,13,14
 1228 1530 1228 1530 1228 1145 c 9,15,-1
 1028 1090 l 17,16,17
 1028 1406 1028 1406 701 1406 c 0,18,19
 360 1406 360 1406 360 921 c 2,20,-1
 360 365 l 2,21,22
 360 104 360 104 687 104 c 0,23,24
 984 104 984 104 1022 472 c 9,25,-1
 1224 497 l 17,6,7
EndSplineSet
Validated: 19457
EndChar

StartChar: Cdotaccent
Encoding: 266 266 233
Width: 1388
Flags: W
HStem: -20 124<474.577 860.815> 1406 124<532.75 895.575> 1692 255<610.795 821.205>
VStem: 160 200<214.985 1187.44> 590 252<1713.04 1925.96> 1022 202<308.3 472 1145 1285.52>
LayerCount: 2
Fore
SplineSet
716 1692 m 152,-1,1
 590 1692 590 1692 590 1819.5 c 128,-1,2
 590 1947 590 1947 716 1947 c 128,-1,3
 842 1947 842 1947 842 1819.5 c 128,-1,0
 842 1692 842 1692 716 1692 c 152,-1,1
1224 497 m 17,4,5
 1177 -20 1177 -20 585 -20 c 0,6,7
 160 -20 160 -20 160 365 c 2,8,-1
 160 921 l 18,9,10
 160 1530 160 1530 803 1530 c 0,11,12
 1228 1530 1228 1530 1228 1145 c 9,13,-1
 1028 1090 l 17,14,15
 1028 1406 1028 1406 701 1406 c 0,16,17
 360 1406 360 1406 360 921 c 2,18,-1
 360 365 l 2,19,20
 360 104 360 104 687 104 c 0,21,22
 984 104 984 104 1022 472 c 9,23,-1
 1224 497 l 17,4,5
EndSplineSet
Validated: 19457
EndChar

StartChar: Ccaron
Encoding: 268 268 234
Width: 1388
Flags: W
HStem: -20 124<474.577 860.815> 1406 124<532.75 895.575> 1587 174<637 811>
VStem: 160 200<214.985 1187.44> 1022 202<308.3 472 1145 1285.52>
LayerCount: 2
Fore
SplineSet
562 1947 m 1,0,-1
 724 1761 l 1,1,-1
 886 1947 l 1,2,-1
 1010 1825 l 1,3,-1
 724 1587 l 1,4,-1
 438 1825 l 1,5,-1
 562 1947 l 1,0,-1
1224 497 m 17,6,7
 1177 -20 1177 -20 585 -20 c 0,8,9
 160 -20 160 -20 160 365 c 2,10,-1
 160 921 l 18,11,12
 160 1530 160 1530 803 1530 c 0,13,14
 1228 1530 1228 1530 1228 1145 c 9,15,-1
 1028 1090 l 17,16,17
 1028 1406 1028 1406 701 1406 c 0,18,19
 360 1406 360 1406 360 921 c 2,20,-1
 360 365 l 2,21,22
 360 104 360 104 687 104 c 0,23,24
 984 104 984 104 1022 472 c 9,25,-1
 1224 497 l 17,6,7
EndSplineSet
Validated: 19457
EndChar

StartChar: germandbls
Encoding: 223 223 235
Width: 1256
Flags: W
HStem: 0 127<569 754.895> 765 133<569 700.129> 1406 124<528.461 780.167>
VStem: 200 200<0 1228.92> 828 189<1047.1 1358.25> 916 200<291.363 664.097>
LayerCount: 2
Fore
SplineSet
200 0 m 9,0,-1
 200 921 l 18,1,2
 200 1530 200 1530 681 1530 c 0,3,4
 1017 1530 1017 1530 1017 1237 c 2,5,-1
 1017 1234 l 2,6,7
 1017 980 1017 980 773 880 c 1,8,9
 1116 829 1116 829 1116 566 c 2,10,-1
 1116 564 l 2,11,12
 1116 0 1116 0 569 0 c 1,13,-1
 569 127 l 1,14,-1
 575 127 l 2,15,16
 916 127 916 127 916 525 c 2,17,-1
 916 527 l 2,18,19
 916 765 916 765 589 765 c 2,20,-1
 569 765 l 1,21,-1
 569 898 l 1,22,23
 828 934 828 934 828 1191 c 2,24,-1
 828 1221 l 2,25,26
 828 1406 828 1406 657 1406 c 0,27,28
 400 1406 400 1406 400 921 c 2,29,-1
 400 0 l 17,30,-1
 200 0 l 9,0,-1
EndSplineSet
Validated: 19457
EndChar

StartChar: Eth
Encoding: 208 208 236
Width: 1388
Flags: W
HStem: 0 127<400 851.671> 696 127<90 200 400 780> 1383 127<386 912.367>
VStem: 200 200<127 696 823 1379.02> 1028 200<342.562 1275.01>
LayerCount: 2
Fore
SplineSet
130 1510 m 1,0,-1
 803 1510 l 2,1,2
 1228 1510 1228 1510 1228 1125 c 2,3,-1
 1228 609 l 2,4,5
 1228 0 1228 0 586 0 c 2,6,-1
 200 0 l 1,7,-1
 200 696 l 1,8,-1
 90 696 l 1,9,-1
 90 823 l 1,10,-1
 200 823 l 1,11,-1
 200 1210 l 2,12,13
 200 1370 200 1370 130 1510 c 1,0,-1
386 1383 m 1,14,15
 400 1314 400 1314 400 1210 c 2,16,-1
 400 823 l 1,17,-1
 780 823 l 1,18,-1
 780 696 l 1,19,-1
 400 696 l 1,20,-1
 400 127 l 1,21,-1
 688 127 l 2,22,23
 1028 127 1028 127 1028 609 c 2,24,-1
 1028 1125 l 2,25,26
 1028 1383 1028 1383 700 1383 c 2,27,-1
 386 1383 l 1,14,15
EndSplineSet
Validated: 19457
EndChar

StartChar: Dcaron
Encoding: 270 270 237
Width: 1388
Flags: W
HStem: 0 127<400 851.671> 1383 127<386 912.367> 1587 174<637 811>
VStem: 200 200<127 1379.02> 1028 200<342.562 1275.01>
LayerCount: 2
Fore
SplineSet
562 1947 m 1,0,-1
 724 1761 l 1,1,-1
 886 1947 l 1,2,-1
 1010 1825 l 1,3,-1
 724 1587 l 1,4,-1
 438 1825 l 1,5,-1
 562 1947 l 1,0,-1
386 1383 m 1,6,7
 400 1314 400 1314 400 1210 c 2,8,-1
 400 127 l 1,9,-1
 688 127 l 2,10,11
 1028 127 1028 127 1028 609 c 2,12,-1
 1028 1125 l 2,13,14
 1028 1383 1028 1383 700 1383 c 2,15,-1
 386 1383 l 1,6,7
130 1510 m 1,16,-1
 803 1510 l 2,17,18
 1228 1510 1228 1510 1228 1125 c 10,19,-1
 1228 609 l 2,20,21
 1228 0 1228 0 586 0 c 2,22,-1
 200 0 l 1,23,-1
 200 1210 l 2,24,25
 200 1370 200 1370 130 1510 c 1,16,-1
EndSplineSet
Validated: 19457
EndChar

StartChar: Dcroat
Encoding: 272 272 238
Width: 1388
Flags: W
HStem: 0 127<400 851.671> 696 127<90 200 400 780> 1383 127<386 912.367>
VStem: 200 200<127 696 823 1379.02> 1028 200<342.562 1275.01>
LayerCount: 2
Fore
SplineSet
130 1510 m 1,0,-1
 803 1510 l 2,1,2
 1228 1510 1228 1510 1228 1125 c 2,3,-1
 1228 609 l 2,4,5
 1228 0 1228 0 586 0 c 2,6,-1
 200 0 l 1,7,-1
 200 696 l 1,8,-1
 90 696 l 1,9,-1
 90 823 l 1,10,-1
 200 823 l 1,11,-1
 200 1210 l 2,12,13
 200 1370 200 1370 130 1510 c 1,0,-1
386 1383 m 1,14,15
 400 1314 400 1314 400 1210 c 2,16,-1
 400 823 l 1,17,-1
 780 823 l 1,18,-1
 780 696 l 1,19,-1
 400 696 l 1,20,-1
 400 127 l 1,21,-1
 688 127 l 2,22,23
 1028 127 1028 127 1028 609 c 2,24,-1
 1028 1125 l 2,25,26
 1028 1383 1028 1383 700 1383 c 2,27,-1
 386 1383 l 1,14,15
EndSplineSet
Validated: 19457
EndChar

StartChar: Egrave
Encoding: 200 200 239
Width: 1196
Flags: W
HStem: 0 127<400 1064.45> 698 127<400 967> 1383 127<386 967>
VStem: 200 200<127 698 825 1379.02>
LayerCount: 2
Fore
SplineSet
546 1587 m 1,0,-1
 260 1825 l 1,1,-1
 384 1947 l 1,2,-1
 628 1667 l 1,3,-1
 546 1587 l 1,0,-1
130 1510 m 1,4,-1
 967 1510 l 17,5,-1
 967 1383 l 9,6,-1
 386 1383 l 1,7,8
 400 1305 400 1305 400 1210 c 2,9,-1
 400 825 l 1,10,-1
 967 825 l 25,11,-1
 967 698 l 25,12,-1
 400 698 l 1,13,-1
 400 127 l 1,14,-1
 816 127 l 2,15,16
 998 127 998 127 1116 197 c 1,17,-1
 1116 50 l 1,18,19
 995 0 995 0 816 0 c 2,20,-1
 200 0 l 1,21,-1
 200 1210 l 2,22,23
 200 1370 200 1370 130 1510 c 1,4,-1
EndSplineSet
Validated: 19457
EndChar

StartChar: Eacute
Encoding: 201 201 240
Width: 1196
Flags: W
HStem: 0 127<400 1064.45> 698 127<400 967> 1383 127<386 967>
VStem: 200 200<127 698 825 1379.02>
LayerCount: 2
Fore
SplineSet
586 1587 m 1,0,-1
 504 1667 l 1,1,-1
 748 1947 l 1,2,-1
 872 1825 l 1,3,-1
 586 1587 l 1,0,-1
130 1510 m 1,4,-1
 967 1510 l 17,5,-1
 967 1383 l 9,6,-1
 386 1383 l 1,7,8
 400 1305 400 1305 400 1210 c 2,9,-1
 400 825 l 1,10,-1
 967 825 l 25,11,-1
 967 698 l 25,12,-1
 400 698 l 1,13,-1
 400 127 l 1,14,-1
 816 127 l 2,15,16
 998 127 998 127 1116 197 c 1,17,-1
 1116 50 l 1,18,19
 995 0 995 0 816 0 c 2,20,-1
 200 0 l 1,21,-1
 200 1210 l 2,22,23
 200 1370 200 1370 130 1510 c 1,4,-1
EndSplineSet
Validated: 19457
EndChar

StartChar: Ecircumflex
Encoding: 202 202 241
Width: 1196
Flags: W
HStem: 0 127<400 1064.45> 698 127<400 967> 1383 127<386 967> 1773 174<459 633>
VStem: 200 200<127 698 825 1379.02>
LayerCount: 2
Fore
SplineSet
384 1587 m 1,0,-1
 260 1709 l 1,1,-1
 546 1947 l 1,2,-1
 832 1709 l 1,3,-1
 708 1587 l 1,4,-1
 546 1773 l 1,5,-1
 384 1587 l 1,0,-1
130 1510 m 1,6,-1
 967 1510 l 17,7,-1
 967 1383 l 9,8,-1
 386 1383 l 1,9,10
 400 1305 400 1305 400 1210 c 2,11,-1
 400 825 l 1,12,-1
 967 825 l 25,13,-1
 967 698 l 25,14,-1
 400 698 l 1,15,-1
 400 127 l 1,16,-1
 816 127 l 2,17,18
 998 127 998 127 1116 197 c 1,19,-1
 1116 50 l 1,20,21
 995 0 995 0 816 0 c 2,22,-1
 200 0 l 1,23,-1
 200 1210 l 2,24,25
 200 1370 200 1370 130 1510 c 1,6,-1
EndSplineSet
Validated: 19457
EndChar

StartChar: Edieresis
Encoding: 203 203 242
Width: 1196
Flags: W
HStem: 0 127<400 1064.45> 698 127<400 967> 1383 127<386 967> 1692 255<326.795 537.205 654.795 865.205>
VStem: 200 200<127 698 825 1379.02> 306 252<1713.04 1925.96> 634 252<1713.04 1925.96>
LayerCount: 2
Fore
SplineSet
760 1692 m 152,-1,1
 634 1692 634 1692 634 1819.5 c 128,-1,2
 634 1947 634 1947 760 1947 c 128,-1,3
 886 1947 886 1947 886 1819.5 c 128,-1,0
 886 1692 886 1692 760 1692 c 152,-1,1
432 1692 m 152,-1,5
 306 1692 306 1692 306 1819.5 c 128,-1,6
 306 1947 306 1947 432 1947 c 128,-1,7
 558 1947 558 1947 558 1819.5 c 128,-1,4
 558 1692 558 1692 432 1692 c 152,-1,5
130 1510 m 1,8,-1
 967 1510 l 17,9,-1
 967 1383 l 9,10,-1
 386 1383 l 1,11,12
 400 1305 400 1305 400 1210 c 2,13,-1
 400 825 l 1,14,-1
 967 825 l 25,15,-1
 967 698 l 25,16,-1
 400 698 l 1,17,-1
 400 127 l 1,18,-1
 816 127 l 2,19,20
 998 127 998 127 1116 197 c 1,21,-1
 1116 50 l 1,22,23
 995 0 995 0 816 0 c 2,24,-1
 200 0 l 1,25,-1
 200 1210 l 2,26,27
 200 1370 200 1370 130 1510 c 1,8,-1
EndSplineSet
Validated: 19457
EndChar

StartChar: Emacron
Encoding: 274 274 243
Width: 1196
Flags: W
HStem: 0 127<400 1064.45> 698 127<400 967> 1383 127<386 967> 1709 127<340 912>
VStem: 200 200<127 698 825 1379.02>
LayerCount: 2
Fore
SplineSet
340 1836 m 17,0,-1
 912 1836 l 1,1,-1
 912 1709 l 1,2,-1
 340 1709 l 9,3,-1
 340 1836 l 17,0,-1
130 1510 m 1,4,-1
 967 1510 l 17,5,-1
 967 1383 l 9,6,-1
 386 1383 l 1,7,8
 400 1305 400 1305 400 1210 c 2,9,-1
 400 825 l 1,10,-1
 967 825 l 25,11,-1
 967 698 l 25,12,-1
 400 698 l 1,13,-1
 400 127 l 1,14,-1
 816 127 l 2,15,16
 998 127 998 127 1116 197 c 1,17,-1
 1116 50 l 1,18,19
 995 0 995 0 816 0 c 2,20,-1
 200 0 l 1,21,-1
 200 1210 l 2,22,23
 200 1370 200 1370 130 1510 c 1,4,-1
EndSplineSet
Validated: 19457
EndChar

StartChar: Ebreve
Encoding: 276 276 244
Width: 1196
Flags: W
HStem: 0 127<400 1064.45> 698 127<400 967> 1383 127<386 967> 1641 126<401.225 844.31> 1709 127<340 467 785 912>
VStem: 200 200<127 698 825 1379.02>
LayerCount: 2
Fore
SplineSet
340 1836 m 25,0,1
 497 1767 497 1767 618 1767 c 128,-1,2
 739 1767 739 1767 912 1836 c 17,3,-1
 912 1709 l 9,4,5
 756 1641 756 1641 621 1641 c 0,6,7
 490 1641 490 1641 340 1709 c 25,8,-1
 340 1836 l 25,0,1
130 1510 m 1,9,-1
 967 1510 l 17,10,-1
 967 1383 l 9,11,-1
 386 1383 l 1,12,13
 400 1305 400 1305 400 1210 c 2,14,-1
 400 825 l 1,15,-1
 967 825 l 25,16,-1
 967 698 l 25,17,-1
 400 698 l 1,18,-1
 400 127 l 1,19,-1
 816 127 l 2,20,21
 998 127 998 127 1116 197 c 1,22,-1
 1116 50 l 1,23,24
 995 0 995 0 816 0 c 2,25,-1
 200 0 l 1,26,-1
 200 1210 l 2,27,28
 200 1370 200 1370 130 1510 c 1,9,-1
EndSplineSet
Validated: 19457
EndChar

StartChar: Edotaccent
Encoding: 278 278 245
Width: 1196
Flags: W
HStem: 0 127<400 1064.45> 698 127<400 967> 1383 127<386 967> 1692 255<466.795 677.205>
VStem: 200 200<127 698 825 1379.02> 446 252<1713.04 1925.96>
LayerCount: 2
Fore
SplineSet
572 1692 m 152,-1,1
 446 1692 446 1692 446 1819.5 c 128,-1,2
 446 1947 446 1947 572 1947 c 128,-1,3
 698 1947 698 1947 698 1819.5 c 128,-1,0
 698 1692 698 1692 572 1692 c 152,-1,1
130 1510 m 1,4,-1
 967 1510 l 17,5,-1
 967 1383 l 9,6,-1
 386 1383 l 1,7,8
 400 1305 400 1305 400 1210 c 2,9,-1
 400 825 l 1,10,-1
 967 825 l 25,11,-1
 967 698 l 25,12,-1
 400 698 l 1,13,-1
 400 127 l 1,14,-1
 816 127 l 2,15,16
 998 127 998 127 1116 197 c 1,17,-1
 1116 50 l 1,18,19
 995 0 995 0 816 0 c 2,20,-1
 200 0 l 1,21,-1
 200 1210 l 2,22,23
 200 1370 200 1370 130 1510 c 1,4,-1
EndSplineSet
Validated: 19457
EndChar

StartChar: Ecaron
Encoding: 282 282 246
Width: 1196
Flags: W
HStem: 0 127<400 1064.45> 698 127<400 967> 1383 127<386 967> 1587 174<503 677>
VStem: 200 200<127 698 825 1379.02>
LayerCount: 2
Fore
SplineSet
428 1947 m 1,0,-1
 590 1761 l 1,1,-1
 752 1947 l 1,2,-1
 876 1825 l 1,3,-1
 590 1587 l 1,4,-1
 304 1825 l 1,5,-1
 428 1947 l 1,0,-1
130 1510 m 1,6,-1
 967 1510 l 17,7,-1
 967 1383 l 9,8,-1
 386 1383 l 1,9,10
 400 1305 400 1305 400 1210 c 2,11,-1
 400 825 l 1,12,-1
 967 825 l 25,13,-1
 967 698 l 25,14,-1
 400 698 l 1,15,-1
 400 127 l 1,16,-1
 816 127 l 2,17,18
 998 127 998 127 1116 197 c 1,19,-1
 1116 50 l 1,20,21
 995 0 995 0 816 0 c 2,22,-1
 200 0 l 1,23,-1
 200 1210 l 2,24,25
 200 1370 200 1370 130 1510 c 1,6,-1
EndSplineSet
Validated: 19457
EndChar

StartChar: uni0191
Encoding: 401 401 247
Width: 1107
Flags: W
HStem: -430 128<20 68.4375> 698 127<420 987> 1383 127<406 987>
VStem: 220 200<-45.957 698 825 1378.65>
LayerCount: 2
Fore
SplineSet
150 1510 m 1,0,1
 987 1510 l 1,2,-1
 987 1383 l 1,3,-1
 406 1383 l 1,4,5
 420 1305 420 1305 420 1210 c 2,6,-1
 420 825 l 1,7,-1
 987 825 l 1,8,-1
 987 698 l 1,9,-1
 420 698 l 1,10,-1
 420 319 l 2,11,12
 420 -331 420 -331 20 -430 c 1,13,-1
 20 -302 l 1,14,15
 220 -181 220 -181 220 319 c 2,16,-1
 220 1210 l 2,17,18
 220 1426 220 1426 150 1510 c 1,0,1
EndSplineSet
Validated: 19457
EndChar

StartChar: Gcircumflex
Encoding: 284 284 248
Width: 1388
Flags: W
HStem: -20 124<474.577 855.25> 635 127<737.549 1028> 1406 124<532.75 895.575> 1773 174<637 811>
VStem: 160 200<214.985 1187.44> 1028 200<322.562 635 1145 1275.84>
LayerCount: 2
Fore
SplineSet
562 1587 m 1,0,-1
 438 1709 l 1,1,-1
 724 1947 l 1,2,-1
 1010 1709 l 1,3,-1
 886 1587 l 1,4,-1
 724 1773 l 1,5,-1
 562 1587 l 1,0,-1
1228 762 m 1,6,-1
 1228 589 l 2,7,8
 1228 -20 1228 -20 585 -20 c 0,9,10
 160 -20 160 -20 160 365 c 2,11,-1
 160 921 l 2,12,13
 160 1530 160 1530 803 1530 c 0,14,15
 1228 1530 1228 1530 1228 1145 c 1,16,-1
 1028 1090 l 1,17,18
 1028 1406 1028 1406 701 1406 c 0,19,20
 360 1406 360 1406 360 921 c 2,21,-1
 360 365 l 2,22,23
 360 104 360 104 687 104 c 0,24,25
 1028 104 1028 104 1028 589 c 2,26,-1
 1028 635 l 1,27,-1
 986 635 l 2,28,29
 804 635 804 635 686 565 c 1,30,-1
 686 712 l 1,31,32
 807 762 807 762 986 762 c 2,33,-1
 1228 762 l 1,6,-1
EndSplineSet
Validated: 19457
EndChar

StartChar: Gbreve
Encoding: 286 286 249
Width: 1388
Flags: W
HStem: -20 124<474.577 855.25> 635 127<737.549 1028> 1406 124<532.75 895.575> 1641 126<499.225 942.31> 1709 127<438 565 883 1010>
VStem: 160 200<214.985 1187.44> 1028 200<322.562 635 1145 1275.84>
LayerCount: 2
Fore
SplineSet
438 1836 m 25,0,1
 595 1767 595 1767 716 1767 c 128,-1,2
 837 1767 837 1767 1010 1836 c 17,3,-1
 1010 1709 l 9,4,5
 854 1641 854 1641 719 1641 c 0,6,7
 588 1641 588 1641 438 1709 c 25,8,-1
 438 1836 l 25,0,1
1228 762 m 1,9,-1
 1228 589 l 2,10,11
 1228 -20 1228 -20 585 -20 c 0,12,13
 160 -20 160 -20 160 365 c 2,14,-1
 160 921 l 2,15,16
 160 1530 160 1530 803 1530 c 0,17,18
 1228 1530 1228 1530 1228 1145 c 1,19,-1
 1028 1090 l 1,20,21
 1028 1406 1028 1406 701 1406 c 0,22,23
 360 1406 360 1406 360 921 c 2,24,-1
 360 365 l 2,25,26
 360 104 360 104 687 104 c 0,27,28
 1028 104 1028 104 1028 589 c 2,29,-1
 1028 635 l 1,30,-1
 986 635 l 2,31,32
 804 635 804 635 686 565 c 1,33,-1
 686 712 l 1,34,35
 807 762 807 762 986 762 c 2,36,-1
 1228 762 l 1,9,-1
EndSplineSet
Validated: 19457
EndChar

StartChar: Gdotaccent
Encoding: 288 288 250
Width: 1388
Flags: W
HStem: -20 124<474.577 855.25> 635 127<737.549 1028> 1406 124<532.75 895.575> 1692 255<610.795 821.205>
VStem: 160 200<214.985 1187.44> 590 252<1713.04 1925.96> 1028 200<322.562 635 1145 1275.84>
LayerCount: 2
Fore
SplineSet
716 1692 m 152,-1,1
 590 1692 590 1692 590 1819.5 c 128,-1,2
 590 1947 590 1947 716 1947 c 128,-1,3
 842 1947 842 1947 842 1819.5 c 128,-1,0
 842 1692 842 1692 716 1692 c 152,-1,1
1228 762 m 1,4,-1
 1228 589 l 2,5,6
 1228 -20 1228 -20 585 -20 c 0,7,8
 160 -20 160 -20 160 365 c 2,9,-1
 160 921 l 2,10,11
 160 1530 160 1530 803 1530 c 0,12,13
 1228 1530 1228 1530 1228 1145 c 1,14,-1
 1028 1090 l 1,15,16
 1028 1406 1028 1406 701 1406 c 0,17,18
 360 1406 360 1406 360 921 c 2,19,-1
 360 365 l 2,20,21
 360 104 360 104 687 104 c 0,22,23
 1028 104 1028 104 1028 589 c 2,24,-1
 1028 635 l 1,25,-1
 986 635 l 2,26,27
 804 635 804 635 686 565 c 1,28,-1
 686 712 l 1,29,30
 807 762 807 762 986 762 c 2,31,-1
 1228 762 l 1,4,-1
EndSplineSet
Validated: 19457
EndChar

StartChar: Gcommaaccent
Encoding: 290 290 251
Width: 1388
Flags: W
HStem: -430 21G<581.672 619.429> -20 124<474.577 855.25> 635 127<737.549 1028> 1406 124<532.75 895.575>
VStem: 160 200<214.985 1187.44> 1028 200<322.562 635 1145 1275.84>
LayerCount: 2
Fore
SplineSet
764 -70 m 1,0,-1
 846 -150 l 1,1,-1
 602 -430 l 1,2,-1
 478 -308 l 1,3,-1
 764 -70 l 1,0,-1
1228 762 m 1,4,-1
 1228 589 l 2,5,6
 1228 -20 1228 -20 585 -20 c 0,7,8
 160 -20 160 -20 160 365 c 2,9,-1
 160 921 l 2,10,11
 160 1530 160 1530 803 1530 c 0,12,13
 1228 1530 1228 1530 1228 1145 c 1,14,-1
 1028 1090 l 1,15,16
 1028 1406 1028 1406 701 1406 c 0,17,18
 360 1406 360 1406 360 921 c 2,19,-1
 360 365 l 2,20,21
 360 104 360 104 687 104 c 0,22,23
 1028 104 1028 104 1028 589 c 2,24,-1
 1028 635 l 1,25,-1
 986 635 l 2,26,27
 804 635 804 635 686 565 c 1,28,-1
 686 712 l 1,29,30
 807 762 807 762 986 762 c 2,31,-1
 1228 762 l 1,4,-1
EndSplineSet
Validated: 19457
EndChar

StartChar: Hcircumflex
Encoding: 292 292 252
Width: 1406
Flags: W
HStem: 0 21G<200 400 1031 1276> 696 127<400 1006> 1490 20G<130 375 1006 1206> 1773 174<637 811>
VStem: 200 200<0 696 823 1457.99> 1006 200<52.0093 696 823 1510>
LayerCount: 2
Fore
SplineSet
562 1587 m 1,0,-1
 438 1709 l 1,1,-1
 724 1947 l 1,2,-1
 1010 1709 l 1,3,-1
 886 1587 l 1,4,-1
 724 1773 l 1,5,-1
 562 1587 l 1,0,-1
130 1510 m 1,6,-1
 350 1510 l 1,7,8
 400 1411 400 1411 400 1210 c 2,9,-1
 400 823 l 1,10,-1
 1006 823 l 1,11,-1
 1006 1510 l 1,12,-1
 1206 1510 l 1,13,-1
 1206 300 l 2,14,15
 1206 118 1206 118 1276 0 c 1,16,-1
 1056 0 l 1,17,18
 1006 99 1006 99 1006 300 c 2,19,-1
 1006 696 l 1,20,-1
 400 696 l 1,21,-1
 400 0 l 1,22,-1
 200 0 l 1,23,-1
 200 1210 l 2,24,25
 200 1392 200 1392 130 1510 c 1,6,-1
EndSplineSet
Validated: 19457
EndChar

StartChar: Hbar
Encoding: 294 294 253
Width: 1406
Flags: W
HStem: 0 21G<200 400 1031 1276> 696 127<400 1006> 1210 127<90 190 400 1006 1206 1316> 1490 20G<130 366.5 1006 1206>
VStem: 200 200<0 696 823 1210 1337 1458.75> 1006 200<52.0093 696 823 1210 1337 1510>
LayerCount: 2
Fore
SplineSet
130 1510 m 1,0,-1
 350 1510 l 1,1,2
 383 1445 383 1445 394 1337 c 1,3,-1
 1006 1337 l 1,4,-1
 1006 1510 l 1,5,-1
 1206 1510 l 1,6,-1
 1206 1337 l 1,7,-1
 1316 1337 l 1,8,-1
 1316 1210 l 1,9,-1
 1206 1210 l 1,10,-1
 1206 300 l 2,11,12
 1206 118 1206 118 1276 0 c 1,13,-1
 1056 0 l 1,14,15
 1006 99 1006 99 1006 300 c 2,16,-1
 1006 696 l 1,17,-1
 400 696 l 1,18,-1
 400 0 l 1,19,-1
 200 0 l 1,20,-1
 200 1210 l 1,21,-1
 90 1210 l 1,22,-1
 90 1337 l 1,23,-1
 190 1337 l 1,24,25
 174 1436 174 1436 130 1510 c 1,0,-1
1006 1210 m 1,26,-1
 400 1210 l 1,27,-1
 400 823 l 1,28,-1
 1006 823 l 1,29,-1
 1006 1210 l 1,26,-1
EndSplineSet
Validated: 19457
EndChar

StartChar: Igrave
Encoding: 204 204 254
Width: 600
Flags: W
HStem: 0 21G<200 400> 1490 20G<130 375>
VStem: 200 200<0 1457.99>
LayerCount: 2
Fore
SplineSet
316 1587 m 1,0,-1
 30 1825 l 1,1,-1
 154 1947 l 1,2,-1
 398 1667 l 1,3,-1
 316 1587 l 1,0,-1
200 0 m 25,4,-1
 200 1210 l 2,5,6
 200 1392 200 1392 130 1510 c 9,7,-1
 350 1510 l 17,8,9
 400 1411 400 1411 400 1210 c 2,10,-1
 400 0 l 25,11,-1
 200 0 l 25,4,-1
EndSplineSet
Validated: 19457
EndChar

StartChar: Iacute
Encoding: 205 205 255
Width: 600
Flags: W
HStem: 0 21G<200 400> 1490 20G<130 375>
VStem: 200 200<0 1457.99>
LayerCount: 2
Fore
SplineSet
284 1587 m 1,0,-1
 202 1667 l 1,1,-1
 446 1947 l 1,2,-1
 570 1825 l 1,3,-1
 284 1587 l 1,0,-1
200 0 m 25,4,-1
 200 1210 l 2,5,6
 200 1392 200 1392 130 1510 c 9,7,-1
 350 1510 l 17,8,9
 400 1411 400 1411 400 1210 c 2,10,-1
 400 0 l 25,11,-1
 200 0 l 25,4,-1
EndSplineSet
Validated: 19457
EndChar

StartChar: Icircumflex
Encoding: 206 206 256
Width: 600
Flags: W
HStem: 0 21G<200 400> 1490 20G<130 375> 1773 174<213 387>
VStem: 200 200<0 1457.99>
LayerCount: 2
Fore
SplineSet
138 1587 m 1,0,-1
 14 1709 l 1,1,-1
 300 1947 l 1,2,-1
 586 1709 l 1,3,-1
 462 1587 l 1,4,-1
 300 1773 l 1,5,-1
 138 1587 l 1,0,-1
200 0 m 25,6,-1
 200 1210 l 2,7,8
 200 1392 200 1392 130 1510 c 9,9,-1
 350 1510 l 17,10,11
 400 1411 400 1411 400 1210 c 2,12,-1
 400 0 l 25,13,-1
 200 0 l 25,6,-1
EndSplineSet
Validated: 19457
EndChar

StartChar: Idieresis
Encoding: 207 207 257
Width: 600
Flags: W
HStem: 0 21G<200 400> 1490 20G<130 375> 1692 255<30.7949 241.205 358.795 569.205>
VStem: 10 252<1713.04 1925.96> 200 200<0 1457.99> 338 252<1713.04 1925.96>
LayerCount: 2
Fore
SplineSet
200 0 m 25,0,-1
 200 1210 l 2,1,2
 200 1392 200 1392 130 1510 c 9,3,-1
 350 1510 l 17,4,5
 400 1411 400 1411 400 1210 c 2,6,-1
 400 0 l 25,7,-1
 200 0 l 25,0,-1
464 1692 m 152,-1,9
 338 1692 338 1692 338 1819.5 c 128,-1,10
 338 1947 338 1947 464 1947 c 128,-1,11
 590 1947 590 1947 590 1819.5 c 128,-1,8
 590 1692 590 1692 464 1692 c 152,-1,9
136 1692 m 152,-1,13
 10 1692 10 1692 10 1819.5 c 128,-1,14
 10 1947 10 1947 136 1947 c 128,-1,15
 262 1947 262 1947 262 1819.5 c 128,-1,12
 262 1692 262 1692 136 1692 c 152,-1,13
EndSplineSet
Validated: 19457
EndChar

StartChar: Itilde
Encoding: 296 296 258
Width: 600
Flags: W
HStem: 0 21G<200 400> 1490 20G<130 375> 1647 127<274.436 565.194> 1709 127<31.8853 344.576 459 586>
VStem: 200 200<0 1457.99>
LayerCount: 2
Fore
SplineSet
586 1709 m 17,0,1
 521 1647 521 1647 452 1647 c 0,2,3
 386 1647 386 1647 296 1684 c 0,4,5
 235 1709 235 1709 144 1709 c 0,6,7
 68 1709 68 1709 14 1646 c 9,8,-1
 14 1773 l 17,9,10
 65 1836 65 1836 144 1836 c 0,11,12
 225 1836 225 1836 301 1806 c 0,13,14
 385 1774 385 1774 452 1774 c 0,15,16
 518 1774 518 1774 586 1836 c 9,17,-1
 586 1709 l 17,0,1
200 0 m 25,18,-1
 200 1210 l 2,19,20
 200 1392 200 1392 130 1510 c 9,21,-1
 350 1510 l 17,22,23
 400 1411 400 1411 400 1210 c 2,24,-1
 400 0 l 25,25,-1
 200 0 l 25,18,-1
EndSplineSet
Validated: 19457
EndChar

StartChar: Imacron
Encoding: 298 298 259
Width: 600
Flags: W
HStem: 0 21G<200 400> 1490 20G<130 375> 1709 127<14 586>
VStem: 200 200<0 1457.99>
LayerCount: 2
Fore
SplineSet
14 1836 m 17,0,-1
 586 1836 l 1,1,-1
 586 1709 l 1,2,-1
 14 1709 l 9,3,-1
 14 1836 l 17,0,-1
200 0 m 25,4,-1
 200 1210 l 2,5,6
 200 1392 200 1392 130 1510 c 9,7,-1
 350 1510 l 17,8,9
 400 1411 400 1411 400 1210 c 2,10,-1
 400 0 l 25,11,-1
 200 0 l 25,4,-1
EndSplineSet
Validated: 19457
EndChar

StartChar: Ibreve
Encoding: 300 300 260
Width: 600
Flags: W
HStem: 0 21G<200 400> 1490 20G<130 375> 1641 126<75.2247 518.31> 1709 127<14 141 459 586>
VStem: 200 200<0 1457.99>
LayerCount: 2
Fore
SplineSet
14 1836 m 25,0,1
 171 1767 171 1767 292 1767 c 128,-1,2
 413 1767 413 1767 586 1836 c 17,3,-1
 586 1709 l 9,4,5
 430 1641 430 1641 295 1641 c 0,6,7
 164 1641 164 1641 14 1709 c 25,8,-1
 14 1836 l 25,0,1
200 0 m 25,9,-1
 200 1210 l 2,10,11
 200 1392 200 1392 130 1510 c 9,12,-1
 350 1510 l 17,13,14
 400 1411 400 1411 400 1210 c 2,15,-1
 400 0 l 25,16,-1
 200 0 l 25,9,-1
EndSplineSet
Validated: 19457
EndChar

StartChar: Iogonek
Encoding: 302 302 261
Width: 600
Flags: W
HStem: -430 21G<265 384.317> 1490 20G<130 375>
VStem: 166 163<-227.167 -25.6606> 200 200<0 1457.99>
LayerCount: 2
Fore
SplineSet
130 1510 m 1,0,-1
 350 1510 l 1,1,2
 400 1411 400 1411 400 1210 c 2,3,-1
 400 0 l 1,4,5
 329 -58 329 -58 329 -130 c 0,6,7
 329 -235 329 -235 492 -304 c 1,8,-1
 364 -430 l 1,9,10
 166 -329 166 -329 166 -134 c 0,11,12
 166 -61 166 -61 203 0 c 1,13,-1
 200 0 l 1,14,-1
 200 1210 l 2,15,16
 200 1392 200 1392 130 1510 c 1,0,-1
EndSplineSet
Validated: 19457
EndChar

StartChar: Idotaccent
Encoding: 304 304 262
Width: 600
Flags: W
HStem: 0 21G<200 400> 1490 20G<130 375> 1692 255<158.795 369.205>
VStem: 138 252<1713.04 1925.96> 200 200<0 1457.99>
LayerCount: 2
Fore
SplineSet
264 1692 m 152,-1,1
 138 1692 138 1692 138 1819.5 c 128,-1,2
 138 1947 138 1947 264 1947 c 128,-1,3
 390 1947 390 1947 390 1819.5 c 128,-1,0
 390 1692 390 1692 264 1692 c 152,-1,1
200 0 m 25,4,-1
 200 1210 l 2,5,6
 200 1392 200 1392 130 1510 c 9,7,-1
 350 1510 l 17,8,9
 400 1411 400 1411 400 1210 c 2,10,-1
 400 0 l 25,11,-1
 200 0 l 25,4,-1
EndSplineSet
Validated: 19457
EndChar

StartChar: IJ
Encoding: 306 306 263
Width: 1529
Flags: W
HStem: -20 124<727.184 1013.96> 0 21G<200 400> 1383 127<740.585 1129>
VStem: 200 200<0 1457.99> 461 200<172.787 279> 1129 200<252.438 1383>
LayerCount: 2
Fore
SplineSet
679 1460 m 1,0,1
 792 1510 792 1510 979 1510 c 2,2,-1
 1329 1510 l 1,3,-1
 1329 501 l 2,4,5
 1329 -20 1329 -20 765 -20 c 0,6,7
 461 -20 461 -20 461 279 c 1,8,-1
 661 334 l 1,9,10
 661 104 661 104 867 104 c 0,11,12
 1129 104 1129 104 1129 484 c 2,13,-1
 1129 1383 l 1,14,-1
 979 1383 l 2,15,16
 831 1383 831 1383 679 1313 c 1,17,-1
 679 1460 l 1,0,1
200 0 m 25,18,-1
 200 1210 l 2,19,20
 200 1392 200 1392 130 1510 c 9,21,-1
 350 1510 l 17,22,23
 400 1411 400 1411 400 1210 c 2,24,-1
 400 0 l 25,25,-1
 200 0 l 25,18,-1
EndSplineSet
Validated: 19457
EndChar

StartChar: Jcircumflex
Encoding: 308 308 264
Width: 1128
Flags: W
HStem: -20 124<326.184 612.958> 1383 127<339.585 728> 1773 174<523 697>
VStem: 60 200<172.787 279> 728 200<252.438 1383>
LayerCount: 2
Fore
SplineSet
448 1587 m 1,0,-1
 324 1709 l 1,1,-1
 610 1947 l 1,2,-1
 896 1709 l 1,3,-1
 772 1587 l 1,4,-1
 610 1773 l 1,5,-1
 448 1587 l 1,0,-1
278 1460 m 1,6,7
 391 1510 391 1510 578 1510 c 2,8,-1
 928 1510 l 1,9,-1
 928 501 l 2,10,11
 928 -20 928 -20 364 -20 c 0,12,13
 60 -20 60 -20 60 279 c 1,14,-1
 260 334 l 1,15,16
 260 104 260 104 466 104 c 0,17,18
 728 104 728 104 728 484 c 2,19,-1
 728 1383 l 1,20,-1
 578 1383 l 2,21,22
 430 1383 430 1383 278 1313 c 1,23,-1
 278 1460 l 1,6,7
EndSplineSet
Validated: 19457
EndChar

StartChar: Kcommaaccent
Encoding: 310 310 265
Width: 1277
Flags: W
HStem: -430 21G<581.672 619.429> 0 21G<200 400 902 1147> 696 127<400 747.02> 1490 20G<130 375 860 1060>
VStem: 200 200<0 696 823 1456.83> 860 200<1027.63 1510> 877 200<53.168 546.781>
LayerCount: 2
Fore
SplineSet
764 -70 m 1,0,-1
 846 -150 l 1,1,-1
 602 -430 l 1,2,-1
 478 -308 l 1,3,-1
 764 -70 l 1,0,-1
130 1510 m 9,4,-1
 350 1510 l 17,5,6
 400 1384 400 1384 400 1210 c 2,7,-1
 400 823 l 1,8,-1
 602 823 l 2,9,10
 860 823 860 823 860 1194 c 2,11,-1
 860 1510 l 25,12,-1
 1060 1510 l 25,13,-1
 1060 1305 l 2,14,15
 1060 910 1060 910 804 779 c 1,16,17
 1077 649 1077 649 1077 314 c 2,18,-1
 1077 300 l 2,19,20
 1077 126 1077 126 1147 0 c 1,21,-1
 927 0 l 1,22,23
 877 110 877 110 877 300 c 2,24,-1
 877 314 l 2,25,26
 877 696 877 696 602 696 c 2,27,-1
 400 696 l 1,28,-1
 400 0 l 1,29,-1
 200 0 l 1,30,-1
 200 1210 l 2,31,32
 200 1392 200 1392 130 1510 c 9,4,-1
EndSplineSet
Validated: 19457
EndChar

StartChar: Lacute
Encoding: 313 313 266
Width: 1041
Flags: W
HStem: 0 127<400 979.451> 1490 20G<130 375>
VStem: 200 200<127 1457.99>
LayerCount: 2
Fore
SplineSet
284 1587 m 1,0,-1
 202 1667 l 1,1,-1
 446 1947 l 1,2,-1
 570 1825 l 1,3,-1
 284 1587 l 1,0,-1
130 1510 m 1,4,-1
 350 1510 l 1,5,6
 400 1411 400 1411 400 1210 c 2,7,-1
 400 127 l 1,8,-1
 731 127 l 2,9,10
 913 127 913 127 1031 197 c 1,11,-1
 1031 50 l 1,12,13
 910 0 910 0 731 0 c 2,14,-1
 200 0 l 1,15,-1
 200 1210 l 2,16,17
 200 1392 200 1392 130 1510 c 1,4,-1
EndSplineSet
Validated: 19457
EndChar

StartChar: Lcommaaccent
Encoding: 315 315 267
Width: 1041
Flags: W
HStem: -430 21G<441.672 479.429> 0 127<400 979.451> 1490 20G<130 375>
VStem: 200 200<127 1457.99>
LayerCount: 2
Fore
SplineSet
624 -70 m 1,0,-1
 706 -150 l 1,1,-1
 462 -430 l 1,2,-1
 338 -308 l 1,3,-1
 624 -70 l 1,0,-1
130 1510 m 1,4,-1
 350 1510 l 1,5,6
 400 1411 400 1411 400 1210 c 2,7,-1
 400 127 l 1,8,-1
 731 127 l 2,9,10
 913 127 913 127 1031 197 c 1,11,-1
 1031 50 l 1,12,13
 910 0 910 0 731 0 c 2,14,-1
 200 0 l 1,15,-1
 200 1210 l 2,16,17
 200 1392 200 1392 130 1510 c 1,4,-1
EndSplineSet
Validated: 19457
EndChar

StartChar: Lcaron
Encoding: 317 317 268
Width: 1041
Flags: W
HStem: 0 127<400 979.451> 1510 0G<130 375 592.277 643.889>
VStem: 200 200<127 1457.99>
LayerCount: 2
Fore
SplineSet
571 1136 m 1,0,-1
 466 1183 l 1,1,-1
 600 1530 l 1,2,-1
 758 1458 l 1,3,-1
 571 1136 l 1,0,-1
130 1510 m 1,4,-1
 350 1510 l 1,5,6
 400 1411 400 1411 400 1210 c 2,7,-1
 400 127 l 1,8,-1
 731 127 l 2,9,10
 913 127 913 127 1031 197 c 1,11,-1
 1031 50 l 1,12,13
 910 0 910 0 731 0 c 2,14,-1
 200 0 l 1,15,-1
 200 1210 l 2,16,17
 200 1392 200 1392 130 1510 c 1,4,-1
EndSplineSet
Validated: 19457
EndChar

StartChar: Ldot
Encoding: 319 319 269
Width: 1041
Flags: W
HStem: 0 127<400 979.451> 747 255<491.795 702.205> 1490 20G<130 375>
VStem: 200 200<127 1457.99> 471 252<768.042 980.958>
LayerCount: 2
Fore
SplineSet
597 747 m 152,-1,1
 471 747 471 747 471 874.5 c 128,-1,2
 471 1002 471 1002 597 1002 c 128,-1,3
 723 1002 723 1002 723 874.5 c 128,-1,0
 723 747 723 747 597 747 c 152,-1,1
130 1510 m 1,4,-1
 350 1510 l 1,5,6
 400 1411 400 1411 400 1210 c 2,7,-1
 400 127 l 1,8,-1
 731 127 l 2,9,10
 913 127 913 127 1031 197 c 1,11,-1
 1031 50 l 1,12,13
 910 0 910 0 731 0 c 2,14,-1
 200 0 l 1,15,-1
 200 1210 l 2,16,17
 200 1392 200 1392 130 1510 c 1,4,-1
EndSplineSet
Validated: 19457
EndChar

StartChar: Ncommaaccent
Encoding: 325 325 270
Width: 1406
Flags: W
HStem: -430 21G<581.672 619.429> 0 21G<200 400 1005 1205.01> 1330 180<390 583.239>
VStem: 200 200<0 1327.56> 1005 200<0 517.891 900 1510>
LayerCount: 2
Fore
SplineSet
764 -70 m 1,0,-1
 846 -150 l 1,1,-1
 602 -430 l 1,2,-1
 478 -308 l 1,3,-1
 764 -70 l 1,0,-1
130 1510 m 1,4,-1
 350 1510 l 2,5,6
 878 1510 878 1510 998 900 c 1,7,-1
 1005 900 l 1,8,-1
 1006 1510 l 1,9,-1
 1206 1510 l 1,10,-1
 1205 0 l 1,11,-1
 1005 0 l 1,12,13
 1005 1329 1005 1329 390 1330 c 1,14,15
 400 1272 400 1272 400 1210 c 2,16,-1
 400 0 l 1,17,-1
 200 0 l 1,18,-1
 200 1210 l 2,19,20
 200 1392 200 1392 130 1510 c 1,4,-1
EndSplineSet
Validated: 19457
EndChar

StartChar: Ncaron
Encoding: 327 327 271
Width: 1406
Flags: W
HStem: 0 21G<200 400 1005 1205.01> 1330 180<390 583.239> 1587 174<637 811>
VStem: 200 200<0 1327.56> 1005 200<0 517.891 900 1510>
LayerCount: 2
Fore
SplineSet
562 1947 m 1,0,-1
 724 1761 l 1,1,-1
 886 1947 l 1,2,-1
 1010 1825 l 1,3,-1
 724 1587 l 1,4,-1
 438 1825 l 1,5,-1
 562 1947 l 1,0,-1
130 1510 m 1,6,-1
 350 1510 l 2,7,8
 878 1510 878 1510 998 900 c 1,9,-1
 1005 900 l 1,10,-1
 1006 1510 l 1,11,-1
 1206 1510 l 1,12,-1
 1205 0 l 1,13,-1
 1005 0 l 1,14,15
 1005 1329 1005 1329 390 1330 c 1,16,17
 400 1272 400 1272 400 1210 c 2,18,-1
 400 0 l 1,19,-1
 200 0 l 1,20,-1
 200 1210 l 2,21,22
 200 1392 200 1392 130 1510 c 1,6,-1
EndSplineSet
Validated: 19457
EndChar

StartChar: Eng
Encoding: 330 330 272
Width: 1406
Flags: W
HStem: -430 128<805 853.559> 0 21G<200 400> 1330 180<390 599.004>
VStem: 200 200<0 1327.56> 1005 201<-45.957 784.371 900 1510>
LayerCount: 2
Fore
SplineSet
130 1510 m 1,0,-1
 350 1510 l 2,1,2
 878 1510 878 1510 998 900 c 1,3,-1
 1005 900 l 1,4,-1
 1006 1510 l 1,5,-1
 1206 1510 l 1,6,-1
 1206 319 l 2,7,8
 1206 -331 1206 -331 805 -430 c 1,9,-1
 805 -302 l 1,10,11
 1005 -181 1005 -181 1005 319 c 0,12,13
 1005 1329 1005 1329 390 1330 c 1,14,15
 400 1272 400 1272 400 1210 c 2,16,-1
 400 0 l 1,17,-1
 200 0 l 1,18,-1
 200 1210 l 2,19,20
 200 1392 200 1392 130 1510 c 1,0,-1
EndSplineSet
Validated: 19457
EndChar

StartChar: Ograve
Encoding: 210 210 273
Width: 1388
Flags: W
HStem: -20 124<474.577 855.25> 1406 124<532.75 913.423>
VStem: 160 200<214.985 1187.44> 1028 200<322.562 1295.01>
LayerCount: 2
Fore
SplineSet
644 1587 m 1,0,-1
 358 1825 l 1,1,-1
 482 1947 l 1,2,-1
 726 1667 l 1,3,-1
 644 1587 l 1,0,-1
360 921 m 2,4,-1
 360 365 l 2,5,6
 360 104 360 104 687 104 c 0,7,8
 1028 104 1028 104 1028 589 c 2,9,-1
 1028 1145 l 2,10,11
 1028 1406 1028 1406 701 1406 c 0,12,13
 360 1406 360 1406 360 921 c 2,4,-1
160 921 m 18,14,15
 160 1530 160 1530 803 1530 c 0,16,17
 1228 1530 1228 1530 1228 1145 c 10,18,-1
 1228 589 l 2,19,20
 1228 -20 1228 -20 585 -20 c 0,21,22
 160 -20 160 -20 160 365 c 2,23,-1
 160 921 l 18,14,15
EndSplineSet
Validated: 19457
EndChar

StartChar: Ocircumflex
Encoding: 212 212 274
Width: 1388
Flags: W
HStem: -20 124<474.577 855.25> 1406 124<532.75 913.423> 1773 174<637 811>
VStem: 160 200<214.985 1187.44> 1028 200<322.562 1295.01>
LayerCount: 2
Fore
SplineSet
562 1587 m 1,0,-1
 438 1709 l 1,1,-1
 724 1947 l 1,2,-1
 1010 1709 l 1,3,-1
 886 1587 l 1,4,-1
 724 1773 l 1,5,-1
 562 1587 l 1,0,-1
360 921 m 2,6,-1
 360 365 l 2,7,8
 360 104 360 104 687 104 c 0,9,10
 1028 104 1028 104 1028 589 c 2,11,-1
 1028 1145 l 2,12,13
 1028 1406 1028 1406 701 1406 c 0,14,15
 360 1406 360 1406 360 921 c 2,6,-1
160 921 m 18,16,17
 160 1530 160 1530 803 1530 c 0,18,19
 1228 1530 1228 1530 1228 1145 c 10,20,-1
 1228 589 l 2,21,22
 1228 -20 1228 -20 585 -20 c 0,23,24
 160 -20 160 -20 160 365 c 2,25,-1
 160 921 l 18,16,17
EndSplineSet
Validated: 19457
EndChar

StartChar: Otilde
Encoding: 213 213 275
Width: 1388
Flags: W
HStem: -20 124<474.577 855.25> 1406 124<532.75 913.423> 1647 127<698.436 989.194> 1709 127<455.885 768.576 883 1010>
VStem: 160 200<214.985 1187.44> 1028 200<322.562 1295.01>
LayerCount: 2
Fore
SplineSet
1010 1709 m 17,0,1
 945 1647 945 1647 876 1647 c 0,2,3
 810 1647 810 1647 720 1684 c 0,4,5
 659 1709 659 1709 568 1709 c 0,6,7
 492 1709 492 1709 438 1646 c 9,8,-1
 438 1773 l 17,9,10
 489 1836 489 1836 568 1836 c 0,11,12
 649 1836 649 1836 725 1806 c 0,13,14
 809 1774 809 1774 876 1774 c 0,15,16
 942 1774 942 1774 1010 1836 c 9,17,-1
 1010 1709 l 17,0,1
360 921 m 2,18,-1
 360 365 l 2,19,20
 360 104 360 104 687 104 c 0,21,22
 1028 104 1028 104 1028 589 c 2,23,-1
 1028 1145 l 2,24,25
 1028 1406 1028 1406 701 1406 c 0,26,27
 360 1406 360 1406 360 921 c 2,18,-1
160 921 m 18,28,29
 160 1530 160 1530 803 1530 c 0,30,31
 1228 1530 1228 1530 1228 1145 c 10,32,-1
 1228 589 l 2,33,34
 1228 -20 1228 -20 585 -20 c 0,35,36
 160 -20 160 -20 160 365 c 2,37,-1
 160 921 l 18,28,29
EndSplineSet
Validated: 19457
EndChar

StartChar: Odieresis
Encoding: 214 214 276
Width: 1388
Flags: W
HStem: -20 124<474.577 855.25> 1406 124<532.75 913.423> 1692 255<448.795 659.205 776.795 987.205>
VStem: 160 200<214.985 1187.44> 428 252<1713.04 1925.96> 756 252<1713.04 1925.96> 1028 200<322.562 1295.01>
LayerCount: 2
Fore
SplineSet
882 1692 m 152,-1,1
 756 1692 756 1692 756 1819.5 c 128,-1,2
 756 1947 756 1947 882 1947 c 128,-1,3
 1008 1947 1008 1947 1008 1819.5 c 128,-1,0
 1008 1692 1008 1692 882 1692 c 152,-1,1
554 1692 m 152,-1,5
 428 1692 428 1692 428 1819.5 c 128,-1,6
 428 1947 428 1947 554 1947 c 128,-1,7
 680 1947 680 1947 680 1819.5 c 128,-1,4
 680 1692 680 1692 554 1692 c 152,-1,5
360 921 m 2,8,-1
 360 365 l 2,9,10
 360 104 360 104 687 104 c 0,11,12
 1028 104 1028 104 1028 589 c 2,13,-1
 1028 1145 l 2,14,15
 1028 1406 1028 1406 701 1406 c 0,16,17
 360 1406 360 1406 360 921 c 2,8,-1
160 921 m 18,18,19
 160 1530 160 1530 803 1530 c 0,20,21
 1228 1530 1228 1530 1228 1145 c 10,22,-1
 1228 589 l 2,23,24
 1228 -20 1228 -20 585 -20 c 0,25,26
 160 -20 160 -20 160 365 c 2,27,-1
 160 921 l 18,18,19
EndSplineSet
Validated: 19457
EndChar

StartChar: Omacron
Encoding: 332 332 277
Width: 1388
Flags: W
HStem: -20 124<474.577 855.25> 1406 124<532.75 913.423> 1709 127<438 1010>
VStem: 160 200<214.985 1187.44> 1028 200<322.562 1295.01>
LayerCount: 2
Fore
SplineSet
438 1836 m 17,0,-1
 1010 1836 l 1,1,-1
 1010 1709 l 1,2,-1
 438 1709 l 9,3,-1
 438 1836 l 17,0,-1
360 921 m 2,4,-1
 360 365 l 2,5,6
 360 104 360 104 687 104 c 0,7,8
 1028 104 1028 104 1028 589 c 2,9,-1
 1028 1145 l 2,10,11
 1028 1406 1028 1406 701 1406 c 0,12,13
 360 1406 360 1406 360 921 c 2,4,-1
160 921 m 18,14,15
 160 1530 160 1530 803 1530 c 0,16,17
 1228 1530 1228 1530 1228 1145 c 10,18,-1
 1228 589 l 2,19,20
 1228 -20 1228 -20 585 -20 c 0,21,22
 160 -20 160 -20 160 365 c 2,23,-1
 160 921 l 18,14,15
EndSplineSet
Validated: 19457
EndChar

StartChar: Obreve
Encoding: 334 334 278
Width: 1388
Flags: W
HStem: -20 124<474.577 855.25> 1406 124<532.75 913.423> 1641 126<499.225 942.31> 1709 127<438 565 883 1010>
VStem: 160 200<214.985 1187.44> 1028 200<322.562 1295.01>
LayerCount: 2
Fore
SplineSet
438 1836 m 25,0,1
 595 1767 595 1767 716 1767 c 128,-1,2
 837 1767 837 1767 1010 1836 c 17,3,-1
 1010 1709 l 9,4,5
 854 1641 854 1641 719 1641 c 0,6,7
 588 1641 588 1641 438 1709 c 25,8,-1
 438 1836 l 25,0,1
360 921 m 2,9,-1
 360 365 l 2,10,11
 360 104 360 104 687 104 c 0,12,13
 1028 104 1028 104 1028 589 c 2,14,-1
 1028 1145 l 2,15,16
 1028 1406 1028 1406 701 1406 c 0,17,18
 360 1406 360 1406 360 921 c 2,9,-1
160 921 m 18,19,20
 160 1530 160 1530 803 1530 c 0,21,22
 1228 1530 1228 1530 1228 1145 c 10,23,-1
 1228 589 l 2,24,25
 1228 -20 1228 -20 585 -20 c 0,26,27
 160 -20 160 -20 160 365 c 2,28,-1
 160 921 l 18,19,20
EndSplineSet
Validated: 19457
EndChar

StartChar: Ohungarumlaut
Encoding: 336 336 279
Width: 1388
Flags: W
HStem: -20 124<474.577 855.25> 1406 124<532.75 913.423>
VStem: 160 200<214.985 1187.44> 1028 200<322.562 1295.01>
LayerCount: 2
Fore
SplineSet
852 1587 m 1,0,-1
 770 1667 l 1,1,-1
 1014 1947 l 1,2,-1
 1138 1825 l 1,3,-1
 852 1587 l 1,0,-1
559 1587 m 1,4,-1
 477 1667 l 1,5,-1
 721 1947 l 1,6,-1
 845 1825 l 1,7,-1
 559 1587 l 1,4,-1
360 921 m 2,8,-1
 360 365 l 2,9,10
 360 104 360 104 687 104 c 0,11,12
 1028 104 1028 104 1028 589 c 2,13,-1
 1028 1145 l 2,14,15
 1028 1406 1028 1406 701 1406 c 0,16,17
 360 1406 360 1406 360 921 c 2,8,-1
160 921 m 18,18,19
 160 1530 160 1530 803 1530 c 0,20,21
 1228 1530 1228 1530 1228 1145 c 10,22,-1
 1228 589 l 2,23,24
 1228 -20 1228 -20 585 -20 c 0,25,26
 160 -20 160 -20 160 365 c 2,27,-1
 160 921 l 18,18,19
EndSplineSet
Validated: 19457
EndChar

StartChar: OE
Encoding: 338 338 280
Width: 2024
Flags: W
HStem: -20 124<474.577 858.828> 0 127<1228 1892.45> 698 127<1228 1795> 1383 127<1214 1795> 1406 124<532.75 914.188>
VStem: 160 200<214.985 1187.44> 1028 200<303.044 698 825 1298.89>
LayerCount: 2
Fore
SplineSet
160 921 m 2,0,1
 160 1530 160 1530 803 1530 c 0,2,3
 900 1530 900 1530 975 1510 c 1,4,-1
 1795 1510 l 1,5,-1
 1795 1383 l 1,6,-1
 1214 1383 l 1,7,8
 1228 1335 1228 1335 1228 1210 c 2,9,-1
 1228 825 l 1,10,-1
 1795 825 l 1,11,-1
 1795 698 l 1,12,-1
 1228 698 l 1,13,-1
 1228 127 l 1,14,-1
 1644 127 l 2,15,16
 1826 127 1826 127 1944 197 c 1,17,-1
 1944 50 l 1,18,19
 1823 0 1823 0 1644 0 c 2,20,-1
 1028 0 l 1,21,-1
 1028 99 l 1,22,23
 869 -20 869 -20 585 -20 c 0,24,25
 160 -20 160 -20 160 365 c 2,26,-1
 160 921 l 2,0,1
360 921 m 2,27,-1
 360 365 l 2,28,29
 360 104 360 104 687 104 c 0,30,31
 1028 104 1028 104 1028 589 c 2,32,-1
 1028 1145 l 2,33,34
 1028 1406 1028 1406 701 1406 c 0,35,36
 360 1406 360 1406 360 921 c 2,27,-1
EndSplineSet
Validated: 19457
EndChar

StartChar: Ntilde
Encoding: 209 209 281
Width: 1406
Flags: W
HStem: 0 21G<200 400 1005 1205.01> 1330 180<390 583.239> 1647 127<698.436 989.194> 1709 127<455.885 768.576 883 1010>
VStem: 200 200<0 1327.56> 1005 200<0 517.891 900 1510>
LayerCount: 2
Fore
SplineSet
1010 1709 m 17,0,1
 945 1647 945 1647 876 1647 c 0,2,3
 810 1647 810 1647 720 1684 c 0,4,5
 659 1709 659 1709 568 1709 c 0,6,7
 492 1709 492 1709 438 1646 c 9,8,-1
 438 1773 l 17,9,10
 489 1836 489 1836 568 1836 c 0,11,12
 649 1836 649 1836 725 1806 c 0,13,14
 809 1774 809 1774 876 1774 c 0,15,16
 942 1774 942 1774 1010 1836 c 9,17,-1
 1010 1709 l 17,0,1
130 1510 m 1,18,-1
 350 1510 l 2,19,20
 878 1510 878 1510 998 900 c 1,21,-1
 1005 900 l 1,22,-1
 1006 1510 l 1,23,-1
 1206 1510 l 1,24,-1
 1205 0 l 1,25,-1
 1005 0 l 1,26,27
 1005 1329 1005 1329 390 1330 c 1,28,29
 400 1272 400 1272 400 1210 c 2,30,-1
 400 0 l 1,31,-1
 200 0 l 1,32,-1
 200 1210 l 2,33,34
 200 1392 200 1392 130 1510 c 1,18,-1
EndSplineSet
Validated: 19457
EndChar

StartChar: Oslash
Encoding: 216 216 282
Width: 1388
Flags: W
HStem: -20 124<497.273 855.25> 1406 124<532.75 888.875>
VStem: 160 200<262.41 1187.44> 1028 200<322.562 1247.6>
DStem2: 377 261 496 137 0.419519 0.907747<0 1163.74>
LayerCount: 2
Fore
SplineSet
160 921 m 2,0,1
 160 1530 160 1530 803 1530 c 0,2,3
 900 1530 900 1530 975 1510 c 1,4,-1
 1132 1510 l 1,5,-1
 1104 1449 l 1,6,7
 1228 1353 1228 1353 1228 1145 c 2,8,-1
 1228 589 l 2,9,10
 1228 -20 1228 -20 585 -20 c 0,11,12
 488 -20 488 -20 413 -0 c 1,13,-1
 256 0 l 1,14,-1
 284 61 l 1,15,16
 160 157 160 157 160 365 c 2,17,-1
 160 921 l 2,0,1
377 261 m 1,18,-1
 891 1374 l 1,19,20
 816 1406 816 1406 701 1406 c 0,21,22
 360 1406 360 1406 360 921 c 2,23,-1
 360 365 l 2,24,25
 360 306 360 306 377 261 c 1,18,-1
1011 1250 m 1,26,-1
 496 137 l 1,27,28
 571 104 571 104 687 104 c 0,29,30
 1028 104 1028 104 1028 589 c 2,31,-1
 1028 1145 l 2,32,33
 1028 1204 1028 1204 1011 1250 c 1,26,-1
EndSplineSet
Validated: 19457
EndChar

StartChar: Racute
Encoding: 340 340 283
Width: 1340
Flags: W
HStem: 0 21G<200 400 935 1180> 508 127<400 785.909> 1383 127<388 838.367>
VStem: 200 200<0 508 635 1379.85> 910 200<59.9048 441.149> 954 200<844.457 1275.01>
LayerCount: 2
Fore
SplineSet
724 1587 m 1,0,-1
 642 1667 l 1,1,-1
 886 1947 l 1,2,-1
 1010 1825 l 1,3,-1
 724 1587 l 1,0,-1
388 1383 m 1,4,5
 400 1282 400 1282 400 1212 c 2,6,-1
 400 635 l 1,7,-1
 614 635 l 2,8,9
 954 635 954 635 954 1117 c 2,10,-1
 954 1125 l 2,11,12
 954 1383 954 1383 626 1383 c 2,13,-1
 388 1383 l 1,4,5
130 1510 m 1,14,-1
 729 1510 l 2,15,16
 1154 1510 1154 1510 1154 1125 c 2,17,-1
 1154 1117 l 2,18,19
 1154 732 1154 732 898 591 c 1,20,21
 1110 529 1110 529 1110 308 c 2,22,-1
 1110 300 l 2,23,24
 1110 140 1110 140 1180 0 c 1,25,-1
 960 0 l 1,26,27
 910 121 910 121 910 300 c 2,28,-1
 910 308 l 2,29,30
 910 508 910 508 670 508 c 2,31,-1
 400 508 l 1,32,-1
 400 0 l 1,33,-1
 200 0 l 1,34,-1
 200 1210 l 2,35,36
 200 1357 200 1357 130 1510 c 1,14,-1
EndSplineSet
Validated: 19457
EndChar

